{"glyphs":{"0":{"ha":631,"x_min":64,"x_max":588,"o":"m 210 188 q 220 155 210 171 q 248 134 231 139 q 253 132 250 133 q 262 130 257 131 q 271 127 267 129 q 277 124 275 126 q 279 119 277 123 q 281 114 281 115 l 283 114 l 286 114 q 290 116 288 115 q 294 119 294 119 q 306 125 299 121 q 320 133 313 130 q 337 142 328 137 q 345 150 340 145 q 352 157 351 155 q 357 168 353 159 q 366 188 361 177 q 375 207 370 198 q 380 218 379 216 q 385 225 381 220 q 389 231 388 230 q 393 236 390 233 q 399 244 396 240 q 406 252 403 248 q 410 257 408 256 q 413 265 410 258 q 420 280 416 272 q 428 295 425 288 q 433 304 431 302 q 436 308 433 304 q 442 315 439 311 q 448 322 446 319 q 452 328 451 326 l 452 333 q 449 343 452 339 q 446 354 446 348 q 448 364 446 360 q 453 372 450 368 q 458 380 456 376 q 460 389 460 384 l 460 397 q 461 407 460 399 q 463 416 463 415 q 458 450 460 435 q 452 482 457 465 q 449 488 451 484 q 445 496 447 492 q 440 505 442 500 q 437 511 437 509 l 437 524 q 435 529 437 526 q 433 534 433 532 q 423 536 429 534 q 410 539 417 537 q 397 542 404 541 q 389 545 391 543 l 387 545 q 361 534 377 545 q 329 510 345 524 q 301 483 313 496 q 286 463 289 469 q 284 457 286 462 q 281 447 282 452 q 278 436 279 441 q 277 429 277 431 q 268 414 273 420 q 258 397 262 407 q 252 380 256 391 q 244 357 248 368 q 237 337 240 346 q 235 328 235 328 q 233 320 234 326 q 230 308 231 315 q 227 296 228 302 q 225 289 225 290 q 224 270 224 279 q 223 252 224 261 q 222 235 223 243 q 216 218 220 227 q 212 208 212 213 q 211 199 211 203 q 210 193 210 196 q 210 188 210 190 m 64 235 q 66 258 64 248 q 72 279 68 269 q 80 300 76 290 q 88 323 84 311 l 88 331 q 94 355 90 346 q 103 372 98 365 q 114 387 109 380 q 125 406 120 395 q 130 419 128 413 q 132 433 131 426 q 135 446 133 439 q 140 458 136 452 q 154 485 147 471 q 169 513 161 499 q 186 539 177 526 q 205 562 195 552 q 222 572 212 568 q 239 581 232 575 q 273 616 255 596 q 310 646 290 635 q 316 649 311 647 q 327 653 321 651 q 341 658 334 656 q 352 662 348 661 q 360 663 355 662 q 372 666 366 665 q 383 669 378 668 q 389 670 388 670 q 393 671 391 670 q 396 671 394 671 q 399 671 397 671 q 436 662 420 671 q 469 642 452 652 q 478 637 471 641 q 494 630 486 634 q 509 623 502 627 q 517 618 515 620 q 536 602 526 612 q 554 579 546 592 q 568 554 563 567 q 574 529 574 541 l 574 524 q 572 520 574 524 q 569 514 571 517 q 566 509 567 511 q 564 506 564 506 q 566 500 564 505 q 571 492 568 496 q 575 483 573 487 q 577 477 577 479 q 586 455 583 467 q 588 431 588 443 q 578 356 588 393 q 554 284 568 319 q 553 279 554 283 q 550 275 551 276 q 545 271 547 273 q 541 265 541 267 q 538 257 540 263 q 533 244 536 251 q 529 231 531 237 q 527 223 528 225 q 508 194 519 206 q 488 165 497 181 q 485 157 488 164 q 480 148 481 149 q 476 143 479 147 q 470 134 473 139 q 464 124 467 129 q 460 119 460 120 q 458 115 460 118 q 455 110 457 113 q 453 103 454 106 q 452 100 452 100 q 446 94 450 98 q 437 86 441 90 q 429 77 433 81 q 422 72 425 73 q 416 68 421 71 q 406 63 412 66 q 396 57 401 60 q 389 53 391 54 q 359 33 374 43 q 328 16 344 24 q 295 4 312 9 q 258 0 278 0 q 221 3 241 0 q 183 13 201 6 q 148 32 164 20 q 122 58 132 43 q 120 62 121 59 q 116 69 118 65 q 113 77 115 73 q 111 82 112 81 q 91 125 102 100 q 73 172 79 150 q 72 178 73 173 q 71 190 72 184 q 70 201 71 196 q 69 208 70 207 q 67 218 69 210 q 64 228 64 226 l 64 235 z "},"1":{"ha":488,"x_min":98,"x_max":422,"o":"m 98 61 q 110 122 98 92 q 136 180 121 151 q 145 212 142 195 q 153 245 149 229 q 156 252 155 248 q 159 261 157 256 q 162 269 161 265 q 163 275 163 273 q 183 332 175 303 q 200 392 191 361 q 210 419 204 404 q 221 451 216 435 q 230 483 227 467 q 234 513 234 498 q 227 529 234 524 q 211 537 220 534 q 189 541 201 540 q 168 545 178 543 q 151 553 158 548 q 144 569 144 558 q 160 598 144 585 q 196 622 175 612 q 238 639 217 632 q 271 650 259 646 q 283 653 273 650 q 302 658 292 655 q 321 664 313 661 q 332 667 330 667 q 341 669 335 668 q 353 671 347 671 q 364 673 359 672 q 370 673 369 673 q 389 665 380 672 q 406 648 399 658 q 417 626 413 637 q 422 606 422 614 q 414 581 422 592 q 403 556 406 570 q 399 530 400 545 q 393 503 398 514 q 389 496 392 502 q 384 489 385 491 q 382 484 383 488 q 379 475 380 480 q 376 467 377 471 q 375 463 375 463 q 372 455 374 460 q 368 443 370 450 q 363 431 366 437 q 361 424 361 425 q 360 418 361 422 q 359 410 359 414 q 357 401 358 405 q 356 395 357 397 q 353 387 355 394 q 347 372 350 380 q 340 357 343 364 q 337 349 338 351 q 335 341 337 347 q 332 334 332 336 q 330 325 332 333 q 328 315 328 317 q 325 309 328 314 q 318 297 321 303 q 312 286 315 291 q 309 278 309 280 l 309 254 q 308 251 309 254 q 304 244 307 248 q 301 239 302 241 q 300 236 300 236 q 282 196 290 214 q 275 154 275 178 q 275 148 275 152 q 275 140 275 144 q 276 133 275 136 q 276 128 276 130 q 311 114 292 119 q 349 109 330 109 q 357 110 353 109 q 364 111 361 111 q 373 102 367 107 q 379 95 378 98 l 379 93 l 379 90 q 368 66 372 75 q 351 48 363 58 q 335 39 344 42 q 315 34 326 36 q 295 31 305 33 q 276 24 285 28 q 266 20 274 24 q 248 12 258 16 q 230 5 239 8 q 220 1 222 1 q 215 1 219 1 q 204 1 210 1 q 193 0 199 1 q 184 0 187 0 q 178 0 182 0 q 167 1 173 1 q 156 1 161 1 q 149 1 151 1 q 130 15 140 10 q 114 26 121 20 q 102 39 106 31 q 98 61 98 47 z "},"2":{"ha":522,"x_min":22,"x_max":464,"o":"m 149 11 l 144 11 q 139 8 142 9 q 132 7 136 7 q 124 5 128 6 q 120 5 121 5 q 113 7 119 5 q 106 11 108 9 q 95 12 102 11 q 78 13 87 12 q 60 14 68 13 q 50 14 52 14 q 32 27 42 20 q 22 47 22 35 q 29 73 22 59 q 41 94 36 86 q 45 101 41 95 q 50 108 50 106 l 50 116 l 50 136 q 51 142 50 138 q 54 151 52 146 q 57 160 56 156 q 59 165 58 163 q 68 176 62 172 q 81 183 74 180 q 94 191 87 187 q 106 198 100 194 q 119 215 115 204 q 130 236 122 227 q 137 244 132 239 q 144 249 142 249 q 151 253 145 250 q 163 259 157 256 q 175 265 170 262 q 181 269 180 268 q 184 271 182 270 q 186 272 184 271 q 197 301 192 286 q 215 325 201 316 q 221 329 216 326 q 231 335 226 332 q 241 341 237 338 q 247 345 246 344 q 252 349 252 345 q 274 381 263 365 q 294 414 286 397 q 309 450 303 431 q 314 488 314 468 l 314 502 q 313 509 314 505 q 309 517 313 513 q 301 522 308 519 q 287 528 295 525 q 272 533 279 531 q 262 536 264 536 q 254 538 260 537 q 239 540 247 539 q 222 541 231 541 q 210 541 214 541 l 208 541 l 205 541 q 205 542 205 541 q 203 542 204 542 q 202 541 203 541 l 200 541 q 194 539 198 541 q 185 537 189 538 q 177 534 180 535 q 173 532 174 533 q 168 529 172 532 q 160 523 164 526 q 153 516 156 519 q 149 513 150 513 l 144 513 l 139 513 q 133 523 136 515 q 130 532 130 530 q 133 545 131 539 q 136 556 134 551 q 139 564 138 561 q 141 571 140 566 q 144 581 142 576 q 147 589 145 585 q 149 593 149 593 q 166 617 154 606 q 192 630 179 627 q 196 632 192 631 q 205 633 200 633 q 214 635 210 634 q 220 636 218 635 q 237 644 231 640 q 250 651 244 648 q 261 657 256 654 q 275 659 267 659 q 290 661 285 659 q 301 662 296 662 q 307 661 304 662 q 314 659 309 661 q 319 659 315 659 q 327 657 323 658 q 336 655 332 656 q 340 654 340 654 q 374 641 358 650 q 404 617 390 631 q 429 589 417 604 q 450 559 440 574 q 457 542 454 554 q 461 515 460 529 q 463 489 463 502 q 464 471 464 477 q 461 447 464 457 q 453 429 458 437 q 441 413 448 420 q 427 395 434 405 q 422 390 425 394 q 417 382 420 387 q 411 373 414 377 q 408 368 408 370 q 404 360 407 366 q 398 348 401 355 q 392 336 395 342 q 388 330 389 331 q 383 323 388 328 q 375 315 378 317 q 357 302 369 311 q 333 282 345 292 q 311 264 321 273 q 298 254 301 256 q 287 247 292 249 q 276 244 281 245 q 263 243 270 243 q 247 241 256 243 q 243 239 245 241 q 239 236 240 237 q 236 233 237 235 q 233 231 234 231 q 227 229 233 230 q 220 225 221 227 q 214 221 218 224 q 205 214 210 218 q 197 206 201 210 q 192 202 193 203 q 186 201 191 201 q 177 200 182 201 q 167 199 172 199 q 162 198 163 199 q 159 194 162 197 q 154 188 157 191 q 148 181 151 184 q 144 175 145 177 q 140 165 144 173 q 134 155 136 158 l 134 154 l 134 151 q 142 140 138 143 q 150 135 145 136 q 159 132 154 133 q 173 128 165 131 q 195 118 184 123 q 220 113 205 113 q 235 117 229 113 q 252 123 241 122 q 259 125 254 123 q 271 127 264 126 q 283 130 277 129 q 290 132 288 132 q 294 133 291 132 q 302 136 298 134 q 311 139 307 138 q 317 142 315 141 q 323 144 320 142 q 328 146 327 146 q 330 156 328 148 q 332 165 332 163 q 339 172 333 168 q 352 180 345 176 q 365 186 359 184 q 374 189 372 189 q 406 179 395 189 q 427 151 417 170 l 427 146 q 420 115 427 129 q 408 85 414 100 q 405 78 407 83 q 401 66 403 73 q 396 54 399 60 q 393 47 394 49 q 390 41 393 45 q 383 34 387 38 q 376 27 379 31 q 370 24 372 24 q 362 19 368 22 q 349 13 356 16 q 336 8 342 10 q 328 5 330 5 q 320 4 326 5 q 309 3 315 3 q 297 1 302 2 q 290 0 292 1 q 285 -3 289 0 q 281 -5 283 -4 l 274 -5 q 223 -1 251 -5 q 173 5 195 2 q 162 7 170 6 q 153 11 155 9 l 149 11 z "},"3":{"ha":526,"x_min":-47,"x_max":465,"o":"m -47 -180 q -46 -172 -47 -174 q -43 -161 -45 -169 q -35 -140 -38 -148 q -26 -127 -31 -132 q -14 -120 -22 -122 q 8 -119 -6 -119 q 36 -120 22 -119 q 61 -128 50 -121 q 66 -132 62 -129 q 75 -138 71 -135 q 84 -144 80 -141 q 89 -148 88 -147 q 95 -148 90 -148 q 108 -149 100 -149 q 123 -150 115 -150 q 136 -151 131 -151 l 142 -151 q 174 -142 160 -151 q 201 -119 188 -132 q 204 -115 201 -119 q 206 -109 206 -112 q 209 -102 208 -108 q 212 -95 211 -96 q 221 -93 213 -95 q 230 -90 229 -92 q 233 -89 231 -90 q 235 -85 235 -87 q 250 -65 245 -74 q 259 -48 256 -57 q 263 -29 262 -39 q 264 -3 264 -18 q 260 43 264 22 q 240 83 257 63 q 225 100 232 93 q 211 113 218 107 q 195 122 203 118 q 174 132 186 127 l 163 132 l 159 132 q 132 138 150 132 q 97 154 115 144 q 67 175 80 163 q 55 198 55 186 q 55 204 55 200 q 57 210 56 209 q 65 220 59 213 q 80 235 72 227 q 94 249 87 242 q 104 257 101 255 q 111 263 105 260 q 117 267 116 267 q 125 269 119 268 q 137 272 131 270 q 149 275 143 273 q 155 277 154 276 q 158 280 155 277 q 162 286 160 283 q 167 292 165 290 q 170 296 170 295 q 185 308 176 304 q 202 312 193 311 q 221 314 212 313 q 240 319 231 315 q 253 332 246 323 q 264 347 259 341 q 281 369 271 357 q 300 393 291 380 q 315 419 309 406 q 321 447 321 433 q 320 452 321 448 q 319 455 319 453 q 317 460 319 456 q 313 469 315 464 q 309 477 311 473 q 306 484 307 481 q 292 496 300 492 q 274 502 283 500 q 255 508 264 505 q 240 521 246 512 l 222 521 q 206 519 211 521 q 198 516 201 518 q 192 513 195 514 q 182 511 189 511 q 171 512 180 511 q 154 516 163 513 q 138 522 145 518 q 131 530 131 526 q 125 555 125 543 q 131 583 125 568 q 133 586 132 584 q 135 589 134 587 q 136 591 135 590 q 164 621 145 608 q 201 638 183 633 q 208 640 203 639 q 218 642 212 641 q 228 643 223 642 q 235 643 233 643 q 239 645 236 644 q 244 649 241 647 q 250 652 248 651 q 253 654 253 654 l 275 654 l 286 654 q 302 652 294 654 q 315 643 310 650 q 388 611 355 632 q 442 554 420 591 q 445 545 442 553 q 447 536 447 537 q 460 498 454 515 q 465 458 465 481 q 463 440 465 448 q 457 427 460 433 q 449 414 454 420 q 439 397 444 408 q 434 391 437 397 q 428 380 431 386 q 422 368 425 374 q 418 361 419 363 q 415 357 418 360 q 409 352 412 355 q 403 346 406 349 q 400 342 400 343 q 397 337 399 341 q 391 330 394 334 q 385 323 387 326 q 381 319 382 319 q 376 317 381 318 q 372 315 374 315 q 368 310 371 313 q 360 302 364 307 q 353 295 357 298 q 348 291 349 292 q 342 290 347 290 q 332 288 337 289 q 321 286 326 287 q 315 285 316 286 q 312 283 315 285 q 305 279 309 281 q 297 275 301 277 q 292 272 294 273 q 288 268 288 269 q 287 262 287 266 l 287 257 q 290 250 288 255 q 295 238 292 244 q 301 228 298 233 q 306 220 304 222 q 309 217 307 220 q 314 210 311 214 q 320 202 317 206 q 325 196 323 198 q 328 193 326 195 q 334 187 331 190 q 339 181 337 184 q 342 178 342 179 q 376 121 362 154 q 395 60 389 89 l 395 50 l 395 42 q 392 29 395 39 q 386 8 389 19 q 380 -13 382 -3 q 376 -24 377 -22 q 375 -29 376 -26 q 374 -36 374 -33 q 372 -44 373 -40 q 372 -48 372 -47 q 355 -81 367 -66 q 334 -109 344 -96 q 327 -119 332 -111 q 315 -136 321 -127 q 303 -152 309 -144 q 296 -161 298 -159 q 288 -168 294 -163 q 275 -178 281 -173 q 262 -188 268 -184 q 253 -195 256 -193 q 252 -199 253 -196 q 248 -203 250 -203 q 245 -205 248 -203 q 239 -209 243 -207 q 231 -214 235 -212 q 225 -218 227 -216 l 217 -222 q 213 -225 216 -222 q 207 -230 210 -227 q 201 -235 203 -233 q 198 -237 199 -237 q 193 -237 197 -237 q 185 -238 189 -237 q 178 -240 181 -239 q 174 -241 175 -241 q 165 -245 172 -242 q 151 -251 159 -248 q 136 -257 142 -254 q 127 -260 129 -260 q 116 -262 124 -261 q 98 -263 108 -262 q 79 -264 88 -264 q 66 -265 70 -265 l 47 -260 q 21 -254 34 -256 q -3 -246 8 -251 q -24 -234 -14 -241 q -39 -214 -33 -227 q -40 -207 -39 -212 q -43 -198 -41 -203 q -46 -190 -45 -194 q -47 -184 -47 -186 l -47 -180 z "},"4":{"ha":654,"x_min":-37,"x_max":604,"o":"m 109 119 q 139 115 123 115 q 170 114 155 114 l 191 114 q 201 114 194 114 q 216 114 208 114 q 230 114 223 114 q 239 115 237 115 q 256 122 246 119 q 275 130 265 125 q 293 139 284 134 q 305 153 301 145 q 329 216 319 184 q 339 283 339 248 q 332 308 339 297 q 309 318 324 318 q 278 310 291 318 q 255 289 265 301 q 235 262 244 277 q 216 237 227 248 q 196 217 208 227 q 175 199 184 207 q 166 194 173 198 q 153 186 160 191 q 140 177 146 181 q 133 172 134 173 q 130 167 132 171 q 125 158 127 163 q 120 149 123 153 q 117 143 118 144 q 113 136 117 142 q 109 129 109 130 q 108 127 108 129 q 108 124 108 125 q 108 121 108 123 q 109 119 108 119 m 239 -227 l 239 -220 q 241 -213 240 -218 q 242 -204 241 -209 q 244 -196 243 -199 q 245 -191 245 -192 q 250 -182 246 -189 q 257 -166 253 -175 q 265 -150 261 -157 q 269 -140 269 -142 q 272 -128 270 -137 q 276 -110 274 -119 q 280 -91 278 -100 q 281 -79 281 -82 q 283 -69 283 -77 q 282 -55 283 -62 q 281 -45 281 -47 q 283 -42 282 -45 q 285 -36 284 -39 q 286 -31 286 -33 q 288 -27 287 -28 l 288 -15 q 281 7 288 -1 q 260 15 275 15 l 250 15 q 245 14 249 15 q 237 13 241 14 q 230 12 233 13 q 227 12 227 12 q 197 7 216 9 q 160 4 178 5 q 129 1 142 2 q 114 0 115 0 l 99 0 q 80 -2 94 -1 q 50 -4 66 -3 q 20 -6 34 -5 q 0 -8 6 -7 l -5 -8 q -24 -2 -18 -8 q -34 15 -31 5 q -37 35 -37 24 q -37 54 -37 46 q -36 76 -37 68 q -30 90 -34 84 q -20 102 -26 96 q -5 119 -14 109 q -2 124 -4 119 q 0 129 -1 129 l 24 153 q 28 159 24 154 q 33 167 32 165 q 39 177 37 174 q 47 185 40 181 q 54 189 48 186 q 66 195 60 192 q 78 201 73 198 q 86 205 84 204 l 87 207 q 90 209 89 208 l 122 276 q 127 279 124 277 q 135 284 131 281 q 141 290 138 288 q 146 294 144 293 q 207 351 178 322 q 264 412 237 380 q 266 415 264 413 q 269 416 268 416 q 276 421 270 418 q 281 426 281 425 q 288 434 283 427 q 297 449 292 441 q 306 464 302 457 q 311 473 310 471 q 316 479 312 473 q 326 492 321 485 q 336 505 331 498 q 344 516 341 512 q 346 517 345 517 q 349 519 349 519 q 359 532 351 523 q 374 552 366 542 q 390 573 382 563 q 401 587 398 583 q 406 588 403 587 q 410 590 408 589 q 414 594 411 591 q 422 602 418 598 q 429 610 426 606 q 433 614 432 613 q 444 618 437 617 q 456 619 450 619 q 467 619 462 619 q 475 618 473 618 l 503 618 q 514 614 510 618 q 519 605 517 610 q 522 592 522 599 q 522 582 522 586 q 514 530 522 556 q 495 482 507 504 l 480 373 q 478 369 479 372 q 476 362 477 366 q 473 355 475 359 q 472 350 472 351 q 470 345 471 349 q 469 336 469 340 q 468 328 468 332 q 467 323 467 323 q 462 312 466 320 q 456 302 458 304 q 456 298 456 302 q 455 289 456 294 q 453 279 454 284 q 452 271 452 274 q 451 262 452 269 q 450 247 450 255 q 449 232 450 239 q 448 223 448 225 q 443 205 446 214 q 437 185 440 195 q 431 166 433 176 q 429 148 429 157 q 432 134 429 140 q 444 124 436 129 q 460 125 448 124 q 485 125 471 125 q 510 125 498 125 q 527 124 522 124 q 538 122 530 124 q 556 118 547 121 q 573 114 565 116 q 585 109 581 111 q 601 85 598 100 q 604 55 604 71 q 604 51 604 54 q 604 43 604 47 q 603 35 604 39 q 603 31 603 31 q 592 14 600 20 q 574 3 585 7 q 553 -2 564 -1 q 534 -3 543 -3 q 519 -2 525 -3 q 507 2 513 0 q 494 5 500 3 q 479 7 488 7 l 456 7 q 450 2 456 6 q 444 -3 445 -2 q 438 -4 442 -3 q 428 -5 433 -4 q 419 -6 423 -5 q 414 -8 415 -7 q 408 -14 413 -8 q 401 -22 403 -19 l 401 -24 q 403 -35 401 -30 q 405 -45 405 -39 l 405 -55 q 403 -64 405 -56 q 401 -74 401 -73 q 400 -78 400 -75 q 400 -85 400 -81 q 401 -104 400 -95 q 401 -116 401 -113 q 399 -126 400 -118 q 396 -144 397 -135 q 393 -162 394 -154 q 391 -172 391 -170 q 389 -193 391 -178 q 387 -224 388 -208 q 384 -255 385 -241 q 382 -276 382 -270 q 353 -320 370 -304 q 305 -342 336 -335 l 299 -342 q 266 -335 276 -342 q 251 -314 255 -327 q 247 -286 247 -302 q 245 -252 247 -269 q 243 -243 245 -251 q 239 -233 241 -235 l 239 -227 z "},"5":{"ha":534,"x_min":-26,"x_max":558,"o":"m 330 214 q 330 210 330 212 q 328 206 330 208 q 329 205 328 205 q 330 204 330 205 q 335 196 333 201 q 338 183 338 191 q 341 155 339 169 q 342 128 342 142 q 341 102 342 115 q 338 75 339 89 q 337 70 338 74 q 334 60 336 65 q 331 49 333 54 q 328 42 330 44 q 322 32 327 40 q 312 14 317 23 q 301 -4 306 4 q 294 -15 296 -13 q 292 -19 294 -16 q 290 -26 291 -22 q 287 -34 288 -30 q 286 -39 286 -37 q 266 -71 279 -55 q 238 -101 253 -86 q 208 -130 223 -116 q 182 -156 193 -143 q 175 -165 180 -157 q 169 -175 170 -172 q 162 -182 167 -177 q 151 -192 157 -186 q 141 -201 146 -197 q 134 -206 136 -205 q 131 -210 134 -208 q 126 -211 127 -211 q 118 -214 124 -212 q 104 -218 112 -216 q 91 -223 97 -221 q 83 -227 85 -226 q 48 -241 67 -233 q 7 -250 28 -250 q 2 -248 5 -249 q -7 -245 -2 -246 q -15 -242 -12 -243 q -20 -241 -19 -241 q -26 -230 -26 -237 q -26 -222 -26 -227 q -25 -211 -25 -218 q -13 -184 -21 -195 q 7 -165 -4 -174 q 30 -151 18 -157 q 56 -136 43 -144 q 66 -129 58 -135 q 83 -117 74 -123 q 102 -104 93 -111 q 116 -94 111 -97 q 138 -71 130 -84 q 152 -43 146 -58 q 163 -12 158 -28 q 173 19 168 4 q 195 84 184 50 q 206 153 206 118 q 205 162 206 156 q 205 170 205 169 q 201 179 205 172 q 197 188 197 186 q 195 195 195 189 q 196 205 195 200 q 197 211 197 210 q 186 241 194 228 q 166 267 178 255 q 143 289 155 278 q 121 311 131 299 q 104 335 111 322 q 97 365 97 348 q 106 420 97 397 q 130 471 116 444 q 133 477 130 472 q 139 489 136 483 q 145 500 142 495 q 150 507 149 506 q 154 512 151 508 q 161 519 157 515 q 168 527 165 524 q 173 532 172 531 q 174 538 174 536 q 177 545 175 543 q 182 552 178 547 q 190 562 186 557 q 199 573 195 568 q 205 580 203 578 q 214 585 206 581 q 224 593 221 589 q 254 615 239 602 q 286 635 269 629 q 295 638 290 636 q 303 640 300 640 l 304 640 q 315 637 307 640 q 322 632 322 634 l 356 627 q 371 620 364 625 q 383 609 377 615 q 396 599 389 604 q 412 595 403 595 l 478 583 q 485 575 481 576 q 497 574 490 574 q 510 577 504 574 q 522 583 516 580 q 535 590 528 587 q 550 593 542 593 q 556 591 553 593 q 558 583 558 589 q 556 576 558 582 q 555 569 555 570 q 553 563 553 568 q 551 553 552 558 q 550 543 551 547 q 549 536 549 538 q 545 529 549 535 q 539 522 541 524 q 532 503 534 513 q 527 482 530 492 q 521 462 525 471 q 507 447 517 453 q 501 444 505 446 q 492 440 496 442 q 484 435 488 437 q 478 433 479 433 l 458 433 q 452 436 457 433 q 440 442 447 439 q 429 448 434 446 q 422 452 423 451 q 414 453 420 452 q 401 454 408 453 q 388 455 394 454 q 380 456 382 456 q 367 461 374 458 q 354 469 361 465 q 341 476 348 473 q 328 480 334 479 l 319 480 q 305 479 312 480 q 292 478 298 479 q 279 476 285 477 l 259 458 q 251 446 254 450 q 245 436 248 441 q 240 425 243 431 q 233 405 237 418 q 239 400 233 404 q 252 390 245 396 q 267 378 260 385 q 275 366 273 372 q 277 362 276 366 q 278 355 277 359 q 280 348 279 351 q 281 342 281 344 q 283 336 281 340 q 286 327 284 332 q 288 319 287 323 q 290 315 290 316 q 300 306 292 313 q 309 296 308 298 q 315 283 314 290 q 315 270 315 276 q 330 223 330 248 l 330 214 z "},"6":{"ha":656,"x_min":71,"x_max":751,"o":"m 170 189 q 178 178 176 184 q 180 165 180 172 q 180 155 180 160 q 179 146 179 150 q 181 136 179 140 q 185 129 182 132 q 190 122 188 125 q 195 113 193 118 q 196 103 195 111 q 199 94 197 95 q 201 92 199 94 q 206 87 203 90 q 210 83 208 85 q 212 81 212 81 q 215 76 213 79 q 219 68 217 72 q 224 61 222 64 q 226 58 226 58 q 234 52 229 53 q 243 52 239 52 l 254 52 q 266 53 258 52 q 279 54 273 54 q 291 56 286 55 q 296 58 296 56 q 314 66 307 60 q 329 78 322 71 q 341 93 335 85 q 354 108 347 100 q 373 130 363 119 q 394 152 384 140 q 412 175 404 163 q 425 202 420 188 q 426 208 425 203 q 427 218 427 213 q 429 229 428 224 q 429 236 429 234 q 435 252 431 245 q 443 269 439 258 q 459 329 454 296 q 463 389 463 361 l 463 405 q 460 409 462 406 q 457 415 459 412 q 454 420 456 418 q 452 424 453 423 l 452 441 q 449 465 452 454 q 438 484 445 475 q 423 501 431 493 q 406 519 414 509 l 387 519 q 358 515 370 519 q 336 504 346 511 q 316 487 326 496 q 296 466 307 477 q 291 460 296 465 q 281 450 286 456 q 270 439 275 444 q 264 434 265 435 q 263 429 264 433 q 259 421 261 425 q 256 414 258 417 q 254 410 255 411 q 253 408 254 410 q 250 403 252 406 q 248 398 249 401 q 246 395 246 396 q 242 390 245 395 q 238 379 240 385 q 233 369 235 374 q 231 363 231 364 q 224 350 227 355 q 219 339 222 344 q 215 328 216 334 q 212 315 213 323 q 212 304 212 313 q 210 285 211 296 q 209 266 210 275 q 208 254 208 256 q 206 251 208 254 q 203 244 205 248 q 201 239 202 241 q 199 236 199 236 q 196 226 197 234 q 195 217 195 218 q 190 211 193 215 q 182 202 186 207 q 174 194 178 198 q 170 189 171 191 m 85 85 q 77 160 83 121 q 71 236 71 199 q 73 256 71 248 q 76 272 74 264 q 82 287 79 279 q 90 307 85 295 q 93 315 91 309 q 95 321 95 320 q 105 360 98 340 q 123 395 112 380 q 129 406 123 397 q 141 427 134 416 q 153 447 147 437 q 160 458 159 456 q 165 461 160 458 q 170 466 170 465 q 174 476 171 467 q 179 486 178 484 q 206 519 191 505 q 235 551 222 534 q 272 600 255 574 q 312 645 289 625 q 315 649 312 646 q 322 655 319 652 q 330 661 326 658 q 335 664 334 663 q 356 679 345 673 q 378 692 368 684 q 382 697 379 693 q 390 705 386 701 q 397 712 393 709 q 401 715 400 715 q 413 722 404 718 q 425 730 422 725 q 438 738 427 732 q 460 751 448 744 q 483 765 472 759 q 495 773 493 771 q 500 778 496 774 q 509 787 505 783 q 518 796 514 792 q 524 800 522 800 q 561 820 540 813 q 599 834 581 826 q 606 839 600 834 q 613 844 612 844 q 617 845 614 844 q 625 846 621 845 q 632 847 629 846 q 637 847 635 847 q 654 854 646 850 q 674 858 663 858 q 698 853 686 858 l 730 853 q 735 850 732 852 q 742 845 739 848 q 747 839 745 842 q 751 834 749 836 l 751 821 q 748 802 751 810 q 735 787 745 795 q 724 783 732 786 q 707 778 716 781 q 691 772 699 774 q 680 768 683 769 q 670 765 677 767 q 660 764 662 764 q 652 761 657 762 q 646 758 646 759 q 641 754 645 758 q 632 747 636 751 q 623 740 627 743 q 618 734 619 736 q 611 733 616 734 q 604 730 605 732 q 597 726 602 729 q 587 720 593 724 q 577 714 582 717 q 571 711 572 711 q 537 696 556 703 q 505 680 519 689 q 498 672 503 678 q 486 660 492 667 q 474 648 479 653 q 467 641 469 642 q 458 635 465 639 q 444 628 452 632 q 430 622 437 625 q 420 617 422 618 q 414 602 418 609 q 410 587 410 595 q 411 577 410 581 q 420 570 412 573 q 428 568 422 570 q 440 566 433 567 q 454 563 448 564 q 463 559 460 561 q 475 557 467 559 q 490 553 483 555 q 504 549 498 551 q 510 547 509 547 q 513 543 511 546 q 520 537 516 541 q 528 529 524 533 q 534 524 532 526 q 562 481 551 502 q 581 434 572 460 q 582 426 581 433 q 584 416 584 420 q 582 408 584 415 q 581 400 581 401 q 578 392 579 398 q 575 378 576 386 q 573 364 574 371 q 571 353 572 357 l 571 351 q 573 337 571 343 q 576 323 576 330 q 568 284 576 302 q 552 249 560 267 q 536 212 544 231 q 519 174 528 193 q 500 138 511 155 q 476 104 490 120 q 469 97 475 102 q 457 85 464 92 q 446 73 451 79 q 439 66 440 68 q 436 62 439 65 q 431 56 434 60 q 427 50 429 53 q 425 47 425 47 l 420 42 q 404 35 415 40 q 381 24 393 30 q 359 12 370 18 q 343 5 348 7 q 333 1 342 3 q 320 0 323 0 l 199 0 q 193 2 198 0 q 182 6 189 3 q 170 11 176 8 q 160 14 164 13 q 143 24 151 18 q 129 37 135 31 q 120 45 125 39 q 109 57 115 51 q 97 68 102 63 q 90 75 92 73 q 87 80 89 76 q 85 85 85 83 z "},"7":{"ha":577,"x_min":22,"x_max":605,"o":"m 22 -101 l 22 -98 q 24 -94 22 -97 q 29 -86 26 -90 q 33 -79 31 -83 q 36 -75 35 -76 q 38 -66 36 -74 q 41 -56 39 -58 q 55 -30 45 -43 q 69 -5 64 -17 q 72 3 69 -3 q 74 11 74 9 q 79 16 75 12 q 88 24 83 20 q 97 33 93 28 q 103 37 102 37 q 106 43 104 39 q 112 51 109 47 q 117 60 115 56 q 121 66 119 64 q 122 71 121 67 q 125 78 123 75 q 128 85 127 82 q 130 89 130 89 q 136 96 132 91 q 146 109 141 102 q 157 121 152 115 q 163 128 161 126 q 165 132 163 130 q 168 136 168 136 q 170 143 168 138 q 175 153 172 148 q 179 164 177 159 q 182 170 181 169 q 190 178 184 176 q 202 184 196 181 q 215 190 209 186 q 224 198 220 193 q 227 204 224 199 q 233 214 230 209 q 239 224 236 220 q 243 230 242 229 q 249 238 245 233 q 252 245 252 243 q 282 277 268 261 q 314 307 296 293 q 321 316 319 311 q 324 329 323 322 q 327 342 326 336 q 333 353 329 349 q 337 358 334 355 q 344 365 340 361 q 351 372 348 369 q 356 376 355 376 q 360 384 357 378 q 365 392 363 390 q 373 398 367 393 q 387 411 379 404 q 400 425 394 418 q 408 433 406 431 q 413 444 412 438 q 414 456 414 449 q 413 464 414 458 q 412 471 412 469 q 404 472 410 471 q 391 473 397 473 q 378 475 385 474 q 370 475 372 475 l 359 475 l 346 475 q 334 475 342 475 q 316 473 326 474 q 298 472 307 473 q 286 471 289 471 q 275 462 279 465 q 265 460 272 460 q 245 463 256 460 q 226 466 235 466 q 211 459 218 466 q 196 443 203 452 q 180 427 188 435 q 163 419 172 420 q 155 418 159 418 q 148 418 151 418 q 142 418 144 418 q 126 419 134 418 q 112 423 119 420 q 101 432 106 427 q 97 447 97 437 l 97 452 l 121 489 l 121 492 q 118 503 121 498 q 116 516 116 509 l 116 522 q 118 527 116 524 q 121 532 121 531 q 127 551 124 541 q 136 571 131 562 q 148 589 140 581 q 168 598 155 596 q 198 602 182 600 q 227 603 214 603 q 248 600 238 603 q 268 593 258 597 q 288 586 277 589 q 309 583 298 583 q 322 586 317 583 q 332 591 328 588 q 342 597 337 594 q 356 603 347 601 l 388 603 q 424 611 408 604 q 458 617 440 617 q 467 617 461 617 q 473 616 473 617 q 483 614 475 616 q 499 611 490 613 q 516 608 509 609 q 526 606 524 606 q 541 607 532 606 q 558 608 549 608 q 581 604 570 608 q 595 588 591 600 q 597 581 596 586 q 601 571 599 576 q 604 559 602 565 q 605 551 605 554 l 605 548 l 605 545 q 603 539 604 545 q 602 532 602 534 q 592 515 598 526 q 582 494 587 505 q 572 475 576 484 q 568 466 568 467 q 561 459 566 465 q 549 447 555 454 q 537 435 543 441 q 529 428 531 430 q 519 413 523 421 q 511 395 515 404 q 503 378 507 387 q 492 363 498 370 q 487 356 492 361 q 476 346 481 351 q 465 336 470 340 q 458 330 460 331 q 446 307 450 319 q 435 283 443 295 q 430 274 435 281 q 420 257 426 267 q 408 239 414 248 q 399 225 402 231 q 385 214 393 218 q 370 202 376 210 q 365 188 364 195 q 361 170 366 181 q 356 163 359 168 q 352 155 353 158 q 345 149 350 154 q 334 139 340 144 q 324 129 329 134 q 317 123 319 124 q 315 118 317 122 q 311 108 313 113 q 307 99 309 103 q 304 94 304 94 q 299 87 302 93 q 294 81 296 82 q 291 76 294 79 q 285 70 288 73 q 279 64 281 67 q 275 61 276 62 q 269 52 274 59 q 262 42 264 45 q 258 37 261 41 q 252 26 255 32 q 247 16 249 21 q 243 11 244 12 q 238 5 242 9 q 229 -4 233 1 q 220 -13 224 -9 q 216 -19 216 -18 q 212 -24 214 -20 q 208 -33 210 -28 q 203 -42 205 -38 q 200 -47 201 -46 q 197 -50 200 -47 q 191 -56 194 -53 q 185 -62 188 -59 q 182 -66 182 -65 q 180 -70 181 -66 q 177 -77 178 -73 q 175 -85 176 -81 q 174 -89 174 -88 q 143 -120 163 -111 q 103 -136 123 -130 q 97 -139 101 -136 q 92 -141 94 -141 l 85 -141 q 71 -136 81 -141 q 50 -125 60 -132 q 30 -112 39 -119 q 22 -101 22 -105 z "},"8":{"ha":603,"x_min":59,"x_max":627,"o":"m 317 683 l 317 675 q 318 664 317 671 q 320 651 319 657 q 321 639 321 644 q 322 633 322 634 q 326 623 323 631 q 334 606 330 615 q 343 589 338 597 q 349 577 347 581 q 366 559 356 566 q 388 553 375 553 q 425 564 408 553 q 455 593 441 576 q 478 630 469 610 q 494 665 488 650 q 504 681 498 674 q 510 697 510 688 q 508 709 510 703 q 505 723 505 715 q 507 732 505 728 q 509 740 508 736 q 512 749 511 744 q 513 762 513 754 q 507 794 513 776 q 488 828 500 812 q 462 855 477 844 q 430 863 447 865 q 421 860 429 863 q 411 853 414 856 q 403 849 408 852 q 396 845 397 846 q 388 837 393 842 q 378 827 383 832 q 369 817 373 821 q 364 810 365 812 q 361 805 363 810 q 356 795 359 800 q 352 785 354 789 q 349 779 350 780 q 349 776 349 778 q 347 773 348 774 q 345 770 346 771 q 331 752 339 761 q 322 732 323 743 q 321 725 322 731 q 320 713 321 720 q 318 700 319 706 q 317 689 317 693 l 317 683 m 171 230 q 171 221 171 227 q 171 211 171 216 q 172 202 172 206 q 172 198 172 199 q 178 177 172 194 q 191 142 184 161 q 205 109 199 124 q 213 94 212 94 q 220 90 215 92 q 229 86 224 88 q 238 83 234 84 q 242 81 241 81 l 247 81 q 271 87 255 81 q 302 104 286 94 q 331 124 318 114 q 349 141 345 134 q 359 159 355 149 q 364 178 363 170 q 368 232 366 207 q 369 283 369 256 q 364 314 369 300 q 353 342 359 327 q 353 346 353 344 q 351 351 352 348 q 349 357 350 353 q 321 383 338 372 q 283 394 303 394 q 260 389 272 394 q 237 377 248 385 q 217 360 227 369 q 200 342 207 351 q 193 326 195 336 q 191 310 192 316 q 183 289 187 298 q 177 271 180 279 q 173 252 174 262 q 171 230 171 243 m 59 186 q 60 216 59 201 q 63 247 60 231 q 70 277 65 262 q 83 305 75 292 q 89 314 83 307 q 101 329 94 321 q 113 343 107 336 q 120 352 119 350 q 135 370 127 363 q 150 382 142 376 q 166 392 158 387 q 184 404 175 397 q 204 427 196 411 q 219 454 212 444 q 231 486 228 471 q 234 519 234 501 q 224 572 234 545 q 205 624 214 600 q 203 628 205 625 q 200 636 202 632 q 197 643 198 640 q 195 648 195 646 l 195 652 l 195 657 q 197 662 195 658 q 200 671 198 666 q 203 680 202 675 q 205 685 205 684 q 207 699 205 688 q 210 722 208 709 q 212 745 211 734 q 213 759 213 756 q 233 815 218 790 q 266 863 248 840 q 270 870 266 865 q 275 876 273 876 q 278 879 275 877 q 284 882 281 880 q 291 885 288 884 q 294 887 294 886 q 300 896 295 888 q 307 905 306 903 q 342 929 323 923 q 383 939 360 935 q 395 940 387 939 q 410 941 403 941 q 424 943 418 942 q 430 943 429 943 q 436 942 431 943 q 446 939 441 941 q 456 935 452 937 q 463 934 461 934 q 468 932 463 933 q 479 931 473 932 q 489 929 484 930 q 494 928 494 928 q 545 910 521 923 q 587 879 569 898 q 616 836 606 860 q 627 783 627 811 l 627 764 q 625 752 627 756 q 623 741 623 748 l 623 712 q 618 688 621 703 q 612 657 616 673 q 604 628 609 642 q 593 606 599 614 q 589 601 593 604 q 582 593 586 597 q 574 586 578 589 q 570 582 570 583 q 564 576 568 581 q 555 565 560 571 q 547 554 551 559 q 541 548 543 549 q 538 546 541 547 q 533 542 536 544 q 527 537 530 539 q 523 535 524 536 q 518 530 522 534 q 509 523 514 527 q 500 515 505 519 q 494 511 496 512 q 476 500 486 505 q 457 490 466 496 q 443 475 448 484 q 437 454 437 467 q 441 428 437 441 q 453 402 446 415 q 466 377 459 389 q 477 352 473 365 q 477 347 477 351 q 479 338 478 342 q 480 329 479 334 q 481 323 481 325 q 483 320 481 323 q 486 315 485 317 q 501 279 497 296 q 505 241 505 262 q 504 221 505 232 q 499 198 503 210 q 492 177 496 187 q 481 159 488 166 q 473 152 479 157 q 459 139 467 146 q 446 126 452 132 q 439 117 440 119 q 435 109 438 115 q 427 94 431 102 q 420 79 423 86 q 416 71 416 73 q 395 45 408 57 q 367 23 382 33 q 336 5 352 13 q 307 -9 320 -3 q 300 -10 304 -9 q 291 -10 296 -10 q 281 -11 286 -10 q 275 -11 277 -11 q 232 -6 250 -11 q 197 6 213 -2 q 164 26 180 14 q 130 53 149 38 q 123 56 128 53 q 115 61 117 60 q 82 86 94 74 q 66 113 71 98 q 60 144 61 127 q 59 186 59 162 z "},"9":{"ha":667,"x_min":-43,"x_max":580,"o":"m 467 434 q 461 473 467 452 q 444 511 456 494 q 416 540 433 528 q 376 551 399 551 q 360 548 368 551 q 343 538 351 544 q 328 526 335 532 q 315 513 320 519 q 306 500 313 509 q 290 481 298 492 q 274 460 281 470 q 264 447 267 451 q 255 413 262 429 q 241 384 249 398 q 225 354 233 369 q 212 321 217 339 q 207 301 212 311 q 198 283 201 292 q 197 273 198 280 q 196 264 196 267 q 201 246 196 254 q 207 228 207 237 l 207 204 q 209 191 208 199 q 210 176 210 183 q 211 162 211 168 q 212 155 212 156 q 214 149 212 153 q 219 138 216 144 q 225 127 222 132 q 230 119 229 121 q 245 104 236 109 q 265 96 254 99 q 286 92 275 93 q 307 89 297 90 q 338 98 323 89 q 358 123 352 108 l 358 137 q 365 142 358 139 q 373 146 372 146 q 376 149 374 147 q 380 154 378 151 q 384 158 382 156 q 386 161 386 160 q 396 173 392 168 q 402 185 399 179 q 408 197 406 191 q 414 212 411 204 q 437 268 427 241 q 454 320 448 294 q 464 374 460 346 q 467 434 467 401 m -43 -271 q -43 -264 -43 -269 q -42 -258 -42 -259 q -39 -251 -41 -256 q -34 -240 -37 -246 q -28 -229 -31 -235 q -23 -220 -25 -223 q -13 -209 -19 -213 q 0 -201 -7 -204 q 15 -195 7 -197 q 28 -188 22 -192 q 58 -169 43 -179 q 90 -150 73 -159 q 134 -126 113 -138 q 180 -103 156 -115 q 191 -90 186 -95 q 201 -82 196 -85 q 213 -75 207 -79 q 227 -64 218 -71 q 230 -59 227 -64 q 235 -49 232 -54 q 241 -39 238 -43 q 245 -33 244 -34 q 253 -24 248 -28 q 262 -16 258 -20 q 270 -6 267 -11 q 273 6 273 -1 q 273 11 273 9 q 269 14 272 12 q 259 20 266 16 q 245 27 253 23 q 231 34 237 31 q 222 37 224 37 q 203 31 210 33 q 186 28 196 28 q 172 36 182 28 q 151 53 162 43 q 131 72 140 62 q 117 85 121 81 q 97 112 103 99 q 90 140 92 125 q 87 170 87 154 q 85 204 87 185 q 82 215 84 205 q 80 228 81 224 l 80 270 q 84 322 80 296 q 98 372 89 348 q 114 399 105 387 q 133 424 123 410 q 137 432 134 425 q 144 447 140 439 q 151 462 148 455 q 156 471 155 469 q 159 476 157 472 q 165 484 162 479 q 172 491 169 488 q 175 495 174 494 q 178 504 175 497 q 183 513 182 511 q 190 526 187 522 q 195 533 192 530 q 201 538 197 536 q 212 547 205 541 q 235 567 225 558 q 258 585 245 576 q 336 616 295 605 q 420 628 377 628 q 451 620 436 628 q 480 603 467 612 q 487 599 482 602 q 495 593 491 596 q 504 588 500 591 q 509 585 508 586 q 518 580 511 584 q 527 575 526 576 q 550 549 542 564 q 564 517 559 534 q 572 482 569 500 q 580 447 575 464 l 580 334 q 570 294 574 314 q 561 254 566 275 q 551 231 557 243 q 541 208 544 220 q 541 202 541 207 q 540 191 541 197 q 538 181 539 186 q 537 175 538 176 q 534 171 536 174 q 529 165 532 168 q 525 159 527 162 q 522 155 523 156 q 518 147 521 154 q 514 137 515 140 q 511 132 513 136 q 509 123 510 128 q 506 114 507 118 q 503 108 504 109 q 499 103 503 107 q 490 95 495 99 q 481 86 486 90 q 475 81 477 81 q 472 75 475 79 q 466 66 469 71 q 460 58 463 62 q 456 53 457 54 q 448 43 454 50 q 436 27 442 35 q 423 11 429 18 q 414 0 417 3 q 376 -45 394 -22 q 334 -89 357 -69 q 332 -99 334 -92 q 330 -106 330 -106 q 321 -115 328 -113 q 311 -117 315 -116 q 284 -137 297 -126 q 260 -161 272 -149 q 236 -184 248 -173 q 212 -206 224 -196 q 177 -224 194 -216 q 146 -244 161 -232 q 138 -253 144 -249 q 125 -260 132 -256 q 111 -267 118 -263 q 98 -273 103 -270 q 93 -276 97 -274 q 84 -282 89 -279 q 76 -288 80 -285 q 71 -292 72 -291 q 52 -299 62 -298 q 32 -300 43 -300 l 13 -300 l -2 -300 q -9 -300 -5 -300 q -19 -297 -14 -300 q -25 -293 -21 -296 q -33 -289 -28 -291 q -39 -284 -37 -286 q -42 -281 -42 -282 q -43 -277 -43 -279 q -43 -271 -43 -275 z "}," ":{"ha":306,"x_min":0,"x_max":0,"o":""},"!":{"ha":444,"x_min":31,"x_max":604,"o":"m 225 463 l 226 463 q 229 467 227 464 q 234 473 232 470 q 239 479 237 476 q 243 482 241 481 q 245 488 243 484 q 249 496 247 492 q 253 505 251 501 q 256 511 254 509 q 270 555 265 534 q 283 600 274 576 q 288 611 284 602 q 297 632 292 621 q 306 652 302 643 q 311 664 309 662 q 313 674 311 666 q 318 693 315 683 q 323 711 321 703 q 326 722 325 720 l 327 724 q 328 728 328 727 q 337 742 332 735 q 345 755 342 748 q 346 758 346 757 l 346 758 q 351 773 348 764 q 358 791 355 782 q 363 806 361 800 q 366 814 366 813 q 366 818 366 815 q 367 824 366 821 q 368 830 368 827 q 368 833 368 833 l 368 833 q 369 834 368 834 q 369 836 369 835 l 370 838 q 373 843 371 838 q 379 852 376 847 q 384 860 382 857 q 387 865 387 864 q 396 886 389 871 q 410 919 402 902 q 424 952 417 937 q 433 974 430 968 q 454 1003 439 987 q 485 1034 468 1019 q 519 1058 502 1048 q 552 1067 537 1067 q 587 1053 576 1067 q 603 1021 597 1039 q 603 1010 603 1017 q 604 1002 604 1003 q 602 999 603 1001 q 600 994 602 996 q 595 981 597 987 q 591 974 592 975 q 591 966 591 972 q 590 958 591 960 q 589 955 590 956 q 587 950 589 953 q 584 945 587 949 q 582 940 582 941 q 572 920 580 936 q 555 886 564 905 q 537 852 546 868 q 526 833 529 837 q 524 826 526 831 q 519 814 522 821 q 514 803 517 808 q 511 797 512 798 q 508 792 511 795 q 503 786 506 789 q 497 780 500 783 q 495 777 495 777 q 491 771 494 776 q 486 762 489 767 q 480 752 483 757 q 475 744 477 747 q 454 700 465 722 q 431 654 442 677 q 423 626 426 640 q 414 597 420 612 q 411 592 413 595 q 408 584 410 588 q 404 576 406 580 q 401 570 402 572 q 379 548 389 562 q 365 524 368 534 q 363 519 364 524 q 360 510 362 515 q 358 501 359 505 q 356 495 357 496 q 354 491 356 494 q 350 484 352 488 q 345 475 347 479 q 340 468 342 471 q 334 461 338 467 q 330 454 330 456 q 314 430 322 443 q 298 407 307 418 q 278 390 289 397 q 252 382 267 382 q 238 387 244 382 q 229 399 233 392 q 222 416 224 407 q 220 435 220 426 q 221 450 220 443 q 225 463 222 456 m 36 47 q 32 83 33 68 q 31 119 31 98 l 31 136 q 33 139 31 136 q 37 146 35 142 q 42 154 39 150 q 45 159 44 157 q 53 172 49 165 q 63 178 57 178 q 72 179 66 178 q 85 180 78 180 q 99 184 93 180 q 109 188 106 188 q 129 196 120 194 q 151 198 138 198 q 163 198 157 198 q 178 197 170 198 q 186 190 179 195 q 195 183 193 184 q 199 182 196 183 q 205 179 202 180 q 211 176 208 178 q 214 174 214 174 q 219 168 216 173 q 225 157 222 163 q 233 145 229 151 q 238 136 236 139 q 241 130 239 135 q 243 123 243 124 q 243 120 243 121 q 243 117 243 119 q 237 96 243 106 q 230 76 231 87 q 229 70 229 73 q 229 63 229 66 l 229 54 q 228 47 229 51 q 225 37 228 43 q 218 31 224 37 q 210 24 212 25 q 195 13 204 19 q 179 2 186 7 q 174 0 177 1 q 163 -2 171 -1 q 141 -4 155 -3 q 102 -5 126 -5 q 93 -1 100 -5 q 83 3 86 2 q 78 9 83 4 q 65 20 73 14 q 51 32 58 26 q 39 42 44 38 q 38 45 39 43 q 36 47 37 47 z "},"\"":{"ha":688,"x_min":212,"x_max":851,"o":"m 520 694 q 524 701 522 697 q 528 706 527 705 q 591 723 560 716 q 645 742 621 730 q 682 775 668 753 q 696 836 696 796 q 685 863 696 852 q 661 884 674 874 q 636 906 647 895 q 625 935 625 918 q 631 963 625 954 q 648 977 637 972 q 671 985 658 982 q 696 994 684 987 l 735 994 q 824 965 798 994 q 851 871 851 937 q 847 815 851 843 q 830 762 844 788 q 804 726 822 745 q 764 689 786 706 q 720 660 743 671 q 680 648 698 648 l 597 648 q 585 652 589 651 q 575 652 581 652 l 551 648 q 542 652 547 648 q 533 663 537 656 q 526 677 529 669 q 520 693 522 686 l 520 694 m 212 692 q 216 697 213 694 q 220 702 218 701 q 282 720 252 713 q 336 739 313 727 q 374 771 359 750 q 388 831 388 792 q 377 859 388 848 q 352 880 366 869 q 327 901 338 890 q 316 929 316 912 q 322 958 316 948 q 339 973 329 968 q 362 982 349 979 q 388 990 375 985 l 427 990 q 515 961 488 990 q 541 867 541 932 q 538 811 541 838 q 522 759 535 784 q 494 723 512 743 q 455 685 476 703 q 411 656 433 668 q 371 644 389 644 l 288 644 q 277 647 281 647 q 267 648 274 648 l 242 644 q 232 649 237 644 q 223 661 227 654 q 216 676 219 668 q 212 691 213 684 l 212 692 z "},"#":{"ha":1115,"x_min":114,"x_max":1136,"o":"m 583 111 q 587 131 583 121 q 596 148 591 140 q 606 166 602 157 q 612 185 610 175 q 613 202 612 196 q 616 212 614 208 q 619 219 617 216 q 622 227 621 222 q 626 234 624 229 q 631 245 629 238 q 633 255 632 252 q 635 262 633 259 q 639 270 636 266 q 649 283 642 275 q 648 291 648 288 q 648 298 648 294 q 648 307 648 302 q 649 319 648 312 q 651 326 649 322 q 654 332 654 329 l 652 332 q 651 333 652 332 q 648 333 650 333 q 616 331 638 333 q 560 323 593 328 l 496 332 q 479 326 479 332 l 435 326 q 427 309 435 314 q 420 303 423 307 q 414 299 417 299 q 414 290 414 294 q 414 283 414 286 q 412 262 414 269 q 405 254 410 256 q 404 217 405 232 q 400 193 404 201 q 392 185 399 191 q 382 178 385 180 q 375 163 376 170 q 374 148 374 157 q 374 136 374 138 q 369 123 372 127 q 363 117 366 119 q 358 111 360 114 q 353 98 355 107 l 317 85 q 307 92 313 85 q 295 106 301 98 q 285 122 289 115 q 281 130 281 129 q 283 150 281 141 q 290 166 286 158 q 297 182 294 174 q 303 201 301 191 q 305 211 304 203 q 309 222 306 218 q 315 240 310 231 q 323 260 320 248 q 323 266 323 262 q 324 276 323 271 q 326 285 325 281 q 326 291 326 290 q 336 301 328 294 q 345 313 344 309 q 345 320 345 316 q 342 325 345 325 q 320 316 330 319 q 309 313 310 313 q 303 315 306 315 q 298 315 301 315 q 285 313 291 315 q 274 309 279 311 q 263 306 269 307 q 250 304 257 304 l 205 310 q 188 306 192 307 q 180 305 183 305 q 160 307 171 305 q 138 312 149 308 q 121 322 128 315 q 114 340 114 329 q 117 354 114 346 q 126 370 121 362 q 137 384 131 378 q 147 393 142 391 q 202 400 180 398 q 244 401 224 401 q 274 401 260 401 q 304 400 289 401 q 327 394 321 395 q 334 393 332 393 q 377 417 364 402 q 395 451 390 432 q 403 493 400 471 q 418 540 406 515 q 424 548 420 545 q 430 552 427 550 q 436 558 433 555 q 438 568 438 561 q 437 570 437 568 q 437 572 437 571 q 430 573 432 572 q 425 574 427 573 q 419 576 422 575 q 410 578 416 577 q 402 576 406 577 q 393 576 399 576 l 368 581 q 355 578 361 581 q 343 571 349 575 q 331 565 337 568 q 317 562 324 562 l 275 572 q 257 567 261 569 q 249 566 252 566 q 229 567 240 566 q 208 573 218 569 q 191 584 198 577 q 184 603 184 591 q 188 616 184 608 q 195 632 191 624 q 205 647 199 640 q 216 656 211 653 l 235 656 l 374 663 l 400 654 q 420 660 410 654 q 443 667 431 665 q 453 665 446 667 q 461 663 460 663 q 463 664 462 663 q 465 667 465 666 q 493 726 481 693 q 511 789 505 758 l 511 806 q 514 813 511 809 q 519 821 517 818 q 527 831 525 827 q 530 844 530 836 q 535 872 530 859 q 549 897 541 885 q 570 918 558 908 q 594 935 581 928 q 610 929 604 935 q 620 915 616 923 q 625 898 624 906 q 627 886 627 890 q 621 873 627 877 q 615 865 615 869 q 620 850 618 859 q 622 838 621 841 q 620 827 622 831 q 615 819 618 823 q 608 813 612 816 q 602 806 605 810 q 600 798 602 804 q 595 782 597 791 q 591 766 593 774 q 589 754 589 758 q 586 726 589 737 q 576 706 582 715 q 566 688 571 696 q 557 667 560 680 l 649 663 l 700 663 q 724 663 711 663 q 748 665 736 663 q 770 670 760 667 q 787 678 781 673 q 792 691 787 679 q 801 718 796 703 q 811 746 806 732 q 814 762 815 759 l 814 783 q 820 790 816 787 q 827 797 823 793 q 835 804 831 800 q 838 813 838 808 q 842 843 838 829 q 851 869 846 857 q 864 893 857 882 q 876 915 870 904 q 884 917 880 916 q 892 918 888 918 q 908 916 901 918 q 914 911 914 913 q 926 893 920 900 q 935 882 932 886 q 933 873 935 879 q 928 861 931 867 q 924 849 926 854 q 922 844 922 844 q 922 830 922 836 q 922 821 922 825 q 921 810 922 814 q 919 804 920 807 q 914 799 917 802 q 907 791 911 796 q 903 783 904 787 q 901 773 902 779 q 898 762 900 768 q 892 746 897 755 l 897 724 q 896 711 897 718 q 892 698 895 705 q 887 686 890 691 q 879 678 884 680 l 925 682 q 938 676 932 682 q 953 671 943 671 q 969 676 960 671 q 988 682 977 682 l 1057 678 l 1109 682 q 1127 670 1122 682 q 1136 649 1133 659 q 1096 615 1118 627 q 1047 603 1074 603 q 1037 603 1039 603 q 1035 604 1035 603 q 1009 599 1021 602 q 994 595 997 596 q 986 591 991 593 q 974 589 981 589 q 960 595 966 589 q 946 593 949 593 q 939 593 942 593 q 915 593 922 593 q 907 595 909 593 q 885 584 893 587 q 866 581 877 581 q 848 584 854 584 q 840 585 843 585 q 823 563 829 574 q 814 541 817 552 q 810 517 811 529 q 806 490 809 505 q 797 474 804 484 q 784 455 791 465 q 773 438 778 446 q 768 427 768 430 q 771 418 769 422 q 774 412 772 413 q 791 415 781 414 q 814 418 802 417 q 837 419 826 419 q 857 420 848 420 l 883 412 q 899 416 890 412 q 919 420 908 420 l 988 415 l 1040 420 q 1059 409 1053 420 q 1068 389 1065 398 q 978 340 1034 340 q 970 342 975 340 q 965 344 966 344 q 956 340 964 344 q 946 337 949 337 q 935 335 941 337 q 924 332 929 334 q 907 328 914 328 q 897 330 901 329 q 888 332 892 331 q 883 332 884 332 q 876 331 880 331 q 869 331 873 331 q 844 331 848 331 q 838 332 839 331 q 817 320 826 321 q 798 318 808 318 l 745 328 q 740 318 741 325 q 739 305 739 311 l 718 254 q 715 245 716 251 q 713 235 713 240 q 712 224 712 229 q 711 217 711 219 q 709 195 711 203 q 703 180 707 187 q 693 166 699 174 q 680 148 688 159 q 676 137 676 140 q 677 126 676 130 q 677 119 677 123 q 677 115 677 117 q 676 111 676 113 q 670 102 675 109 q 662 95 665 96 q 659 85 661 92 q 657 76 657 79 q 640 68 648 71 q 621 66 631 66 q 611 72 617 66 q 598 85 604 77 q 588 100 592 92 q 583 111 583 107 m 566 595 q 536 592 547 595 q 519 582 525 589 q 511 563 513 574 q 507 535 509 552 q 499 508 506 517 q 492 498 492 498 q 491 494 492 497 q 490 486 490 490 q 489 479 489 482 q 488 475 488 475 q 478 463 483 467 q 470 456 473 458 q 464 450 466 454 q 461 439 461 447 q 459 420 459 437 l 459 400 l 574 407 q 591 406 578 407 q 636 400 604 405 q 666 401 652 400 q 692 407 681 401 q 697 421 693 407 q 706 454 701 435 q 716 489 711 472 q 723 513 721 507 q 726 518 725 517 q 729 519 728 519 q 733 520 731 519 q 737 524 735 521 q 749 583 749 548 q 731 598 739 595 q 713 601 723 601 l 629 585 l 566 595 z "},"$":{"ha":784,"x_min":6,"x_max":876,"o":"m 243 -43 q 249 -13 243 -25 q 260 14 254 0 q 260 14 260 14 q 256 16 259 14 q 251 19 254 17 q 244 22 248 21 q 241 24 241 24 q 229 26 238 24 q 217 28 220 28 l 165 66 l 148 66 q 109 61 128 66 q 72 52 90 57 q 56 43 62 49 q 37 37 49 37 q 28 37 33 37 q 18 39 23 37 q 10 43 14 40 q 6 52 6 46 q 8 62 6 53 q 11 75 9 71 q 17 92 13 84 q 27 107 22 100 q 38 122 32 115 q 48 136 43 129 q 59 153 53 144 q 67 169 64 161 q 69 179 67 171 q 72 188 71 186 q 75 194 73 190 q 80 202 77 198 q 86 211 83 207 q 91 216 90 214 q 97 222 92 217 q 107 233 102 227 q 117 243 113 238 q 123 249 122 248 q 124 252 124 250 q 126 257 125 254 q 128 263 127 260 q 140 285 132 274 q 156 306 147 296 q 173 325 165 316 q 189 342 182 334 l 214 342 q 222 341 218 342 q 228 334 227 340 q 227 326 228 333 q 227 313 227 319 q 228 305 227 307 q 240 217 229 262 q 278 136 251 173 q 280 134 278 134 q 283 132 281 132 q 288 127 286 130 q 294 123 291 125 q 301 130 297 127 q 306 134 305 133 l 306 165 q 310 179 307 172 q 318 191 313 185 q 327 203 322 197 q 333 217 331 210 q 337 228 334 220 q 343 243 340 235 q 348 257 346 251 q 351 266 351 264 q 354 284 351 269 q 364 317 358 299 q 376 350 370 334 q 389 367 383 365 q 409 415 401 389 q 422 466 416 441 q 390 498 406 482 q 358 530 374 515 q 346 559 354 546 q 330 586 338 573 q 312 612 321 599 q 298 640 304 625 q 297 673 299 657 q 294 706 296 690 q 290 739 292 722 q 288 773 288 755 q 289 786 288 781 q 293 794 290 790 q 299 801 296 798 q 307 812 302 805 q 310 819 308 814 q 311 827 311 824 q 313 832 312 828 q 314 840 313 836 q 315 847 315 844 q 316 850 316 850 q 319 854 316 851 q 326 860 322 857 q 334 868 330 864 q 340 874 338 872 q 345 878 341 875 q 354 885 349 882 q 363 892 359 889 q 369 897 368 896 q 375 907 370 899 q 382 916 380 915 q 408 931 392 924 q 441 943 424 938 q 475 954 458 949 q 505 963 492 958 q 508 964 505 963 q 514 968 511 966 q 519 971 517 970 q 522 972 522 972 q 531 973 524 972 q 541 974 538 974 q 598 970 570 974 q 602 983 600 977 q 605 995 604 989 q 609 1015 607 1006 q 616 1031 611 1025 q 631 1042 621 1038 q 656 1046 640 1046 q 677 1043 666 1046 q 696 1032 689 1040 l 696 995 q 691 986 695 994 q 687 978 687 979 q 685 960 684 968 q 684 943 685 952 q 692 938 689 940 q 697 935 696 936 q 704 932 699 934 q 711 929 710 931 q 725 918 720 924 q 736 908 730 912 q 750 900 743 903 q 768 897 757 897 q 794 907 785 897 q 812 928 804 916 q 829 949 820 939 q 856 958 839 958 q 872 949 869 958 q 876 929 876 941 q 874 905 876 918 q 871 882 873 891 q 864 871 869 881 q 857 859 858 862 q 851 844 852 852 q 848 829 849 837 q 847 813 848 821 q 842 799 846 806 q 837 790 841 797 q 828 775 833 783 q 819 761 823 767 q 814 752 815 754 q 811 745 814 750 q 805 734 808 740 q 800 723 802 728 q 795 715 797 718 q 792 706 794 713 q 786 693 789 700 q 781 679 783 686 q 777 671 778 673 q 773 668 777 671 q 766 661 770 665 q 758 653 762 657 q 752 648 754 650 q 749 646 751 646 q 744 644 745 644 l 742 644 q 731 645 737 644 q 718 646 724 645 q 706 650 711 648 q 697 659 700 653 q 693 664 696 660 q 689 672 691 667 q 684 680 686 676 q 682 686 682 684 q 678 710 681 693 q 671 745 675 726 q 664 780 667 764 q 659 804 661 797 q 642 839 654 827 q 628 817 635 827 q 614 798 621 806 q 606 782 607 787 q 605 775 605 778 l 604 754 q 593 719 601 736 q 577 690 586 701 q 577 679 577 684 q 578 671 578 674 q 576 652 578 659 q 573 642 575 646 q 568 635 571 637 q 563 629 566 632 q 558 619 561 625 q 554 605 556 612 q 550 590 552 597 q 549 578 549 583 q 545 549 549 562 q 557 535 550 543 q 570 520 564 528 q 582 507 576 513 q 588 498 587 500 q 603 475 597 487 q 617 452 610 464 q 621 446 618 450 q 626 436 623 441 q 632 427 629 431 q 635 422 635 423 q 663 347 657 388 q 669 267 669 307 l 669 235 q 667 229 669 233 q 664 218 666 224 q 661 208 663 213 q 659 202 659 203 q 657 192 659 200 q 655 176 656 184 q 652 160 654 167 q 650 151 651 153 q 646 139 648 143 q 639 131 643 134 q 631 125 635 128 q 622 117 627 122 q 621 116 621 117 q 619 113 621 114 q 617 108 618 110 q 592 76 607 90 q 560 52 578 62 q 555 47 559 50 q 546 42 551 45 q 538 36 542 39 q 533 32 534 33 q 496 16 517 20 q 455 9 476 11 q 412 7 433 7 q 372 5 391 7 q 365 2 371 5 q 358 0 359 0 l 342 0 q 336 -11 337 -5 q 334 -22 334 -16 l 334 -31 q 334 -35 334 -33 q 333 -39 334 -37 q 328 -52 330 -48 q 323 -57 326 -55 q 319 -63 321 -60 q 315 -75 317 -66 l 277 -90 q 267 -83 273 -90 q 256 -68 261 -76 q 247 -52 250 -60 q 243 -43 243 -45 m 405 98 q 410 100 406 99 q 419 101 414 100 q 428 102 424 102 q 434 102 433 102 q 449 114 444 106 q 463 128 455 121 q 470 132 464 128 q 475 136 475 135 q 489 152 481 142 q 502 171 496 161 q 514 190 509 180 q 522 206 519 199 q 524 224 523 211 q 525 251 524 237 q 527 278 526 265 q 528 296 528 291 q 529 300 528 296 q 531 307 530 303 q 532 315 532 311 q 533 319 533 318 l 533 331 q 529 351 533 342 q 518 368 524 360 q 504 383 511 376 q 490 399 496 391 q 488 402 490 400 q 486 405 486 404 q 482 408 484 406 q 478 412 480 410 q 477 410 477 410 q 476 408 477 410 q 470 394 471 401 q 469 378 469 386 q 469 349 469 357 q 465 336 469 341 q 452 312 456 324 q 448 299 449 300 q 445 294 448 298 q 438 287 441 291 q 431 280 434 283 q 426 277 427 277 q 421 259 422 271 q 417 233 419 247 q 414 208 416 220 q 408 190 412 195 q 405 185 408 188 q 400 180 403 182 q 395 175 397 177 q 393 171 393 172 q 397 152 397 159 q 390 126 397 136 q 376 113 382 117 q 375 99 375 105 q 373 90 374 94 q 389 94 382 91 q 405 98 395 96 m 505 874 q 494 867 497 869 q 486 863 490 864 l 481 857 q 470 845 478 853 q 448 823 462 837 l 443 808 q 442 798 443 808 q 441 774 441 787 q 439 746 440 760 q 439 723 439 732 l 439 686 q 443 676 439 684 q 448 667 448 669 q 456 647 453 656 q 466 629 458 638 l 471 623 q 477 637 475 633 q 481 642 479 640 l 490 667 q 494 686 492 678 q 500 700 497 693 q 508 713 504 707 q 516 730 512 720 q 539 797 530 763 q 558 863 549 831 q 561 871 559 867 q 564 880 562 876 l 560 880 q 533 878 546 880 q 505 874 520 876 z "},"%":{"ha":1220,"x_min":163,"x_max":1077,"o":"m 395 -22 q 386 -34 392 -28 q 373 -46 380 -40 q 357 -60 366 -54 l 348 -60 q 334 -59 340 -60 q 321 -55 327 -58 q 311 -48 315 -53 q 302 -35 306 -43 q 298 -24 300 -29 q 296 -17 296 -18 q 297 -8 296 -12 q 299 0 298 -4 q 304 8 301 3 q 312 20 307 13 l 311 18 q 314 23 312 20 q 317 28 315 25 l 357 80 q 385 109 371 96 q 408 140 399 121 q 449 195 433 174 q 480 233 466 216 q 509 269 494 250 q 547 317 524 288 q 579 360 565 341 q 605 394 593 379 q 627 421 617 410 q 646 444 636 433 l 644 443 q 671 481 656 462 q 698 516 686 500 l 713 533 q 718 539 715 535 q 722 547 720 543 l 722 546 q 759 596 737 572 q 802 647 781 621 l 862 715 q 869 718 867 717 q 873 720 871 719 q 877 722 875 721 q 884 724 880 723 q 908 712 899 723 q 917 688 917 702 q 916 681 916 684 q 916 673 916 678 q 911 656 915 665 q 902 639 907 647 q 890 623 897 631 q 880 608 884 615 q 864 595 874 606 q 844 564 854 583 q 802 505 820 528 q 768 464 784 483 q 735 424 752 444 q 698 373 719 404 l 700 380 q 695 373 699 378 q 688 362 692 367 l 688 363 q 664 334 673 345 q 647 312 654 323 q 639 300 644 307 q 627 284 635 294 l 602 256 q 586 233 597 248 q 563 204 575 219 q 543 178 551 190 q 534 161 534 165 q 521 146 526 151 q 513 134 517 140 q 504 120 509 128 q 488 99 498 113 q 480 90 483 92 q 474 85 477 87 q 468 73 471 80 q 463 62 465 66 q 451 49 456 56 q 441 35 446 42 l 441 36 q 432 23 435 27 q 425 14 429 19 q 414 1 420 9 q 395 -24 408 -7 l 395 -22 m 867 275 q 871 277 872 277 q 867 275 869 276 l 867 275 m 865 74 q 867 75 865 75 l 869 74 q 871 73 871 73 q 873 71 871 72 q 875 70 873 71 l 865 74 m 777 170 q 786 145 777 159 q 803 123 795 132 q 821 107 811 115 q 840 93 831 99 q 857 81 849 86 q 866 75 864 77 q 871 76 870 75 l 876 77 q 883 77 880 77 q 889 77 886 77 l 900 77 q 920 83 908 77 q 941 101 932 89 q 944 102 942 101 q 947 103 947 102 q 968 120 961 111 q 983 147 976 130 q 988 150 986 146 q 990 156 989 153 q 991 164 991 160 q 993 170 991 168 q 988 188 991 178 q 981 209 985 199 q 970 229 977 220 q 955 246 964 239 q 944 259 949 250 q 936 269 939 268 q 929 273 934 270 q 924 275 926 275 l 893 275 q 886 276 890 275 q 881 277 882 277 q 874 276 880 277 q 865 274 869 275 q 847 260 852 264 q 831 256 842 256 q 828 254 831 256 q 822 249 825 252 q 817 245 819 247 q 814 243 814 243 l 791 243 q 791 239 793 241 q 788 236 789 237 l 787 234 q 784 231 785 233 q 782 230 783 230 q 783 225 782 229 q 784 220 784 222 l 784 214 q 783 196 784 205 q 781 178 783 186 q 779 173 781 177 q 777 170 779 171 m 704 203 q 707 233 704 220 q 714 254 710 245 q 721 267 718 262 q 724 271 724 271 q 725 275 724 273 q 725 278 725 277 q 726 279 726 279 l 732 287 q 758 310 746 298 q 787 331 770 321 q 808 343 794 341 q 838 353 822 346 q 844 355 840 354 q 853 357 848 356 q 863 359 859 358 q 869 361 867 360 l 876 361 q 900 359 890 361 q 922 355 910 357 l 942 355 q 957 349 951 353 q 970 340 963 344 q 1013 316 994 331 q 1047 282 1033 301 q 1069 239 1061 262 q 1077 191 1077 216 l 1077 180 q 1075 173 1077 178 q 1070 163 1073 168 l 1070 130 q 1057 87 1068 109 q 1029 47 1046 65 q 990 16 1012 28 q 944 1 968 3 q 919 -4 932 -4 q 899 -7 905 -5 l 893 -9 l 882 -9 l 865 -3 l 861 -3 q 857 -3 859 -3 q 853 -3 854 -3 l 848 -3 q 830 0 840 -3 q 813 7 821 3 q 798 18 805 12 q 786 28 791 24 l 774 39 q 769 42 772 41 q 764 43 766 43 q 745 62 754 52 q 729 84 736 73 q 718 105 722 95 q 711 123 713 115 q 710 136 711 126 q 708 159 709 146 q 706 183 707 171 q 704 203 705 195 m 326 668 q 330 670 332 671 q 326 668 329 669 l 326 668 m 325 467 q 327 468 325 468 l 329 467 q 331 466 330 467 q 332 465 331 465 q 334 463 333 464 l 325 467 m 237 563 q 246 539 237 552 q 262 517 255 526 q 280 500 271 509 q 299 486 290 492 q 316 475 309 479 q 326 469 323 470 q 331 469 330 469 l 336 471 q 342 470 339 471 q 349 470 345 470 l 359 470 q 379 476 368 470 q 401 494 391 482 q 404 495 401 494 q 406 496 406 496 q 428 514 420 505 q 443 541 435 523 q 447 543 446 540 q 450 550 449 546 q 451 557 450 553 q 452 563 451 562 q 448 582 450 571 q 440 603 445 592 q 430 623 436 613 q 414 640 423 632 q 404 652 408 644 q 396 662 398 661 q 389 667 393 663 q 384 669 385 668 l 353 669 q 346 670 350 669 q 340 671 342 671 q 334 670 339 671 q 325 667 328 669 q 306 654 311 658 q 290 650 301 650 q 288 647 290 649 q 282 643 285 645 q 276 638 279 640 q 274 636 273 636 l 250 636 q 251 633 252 635 q 248 629 249 631 l 246 627 q 244 625 245 626 q 241 623 243 623 q 242 619 241 622 q 243 614 243 616 l 243 608 q 243 589 243 598 q 241 572 242 580 q 239 566 240 570 q 237 563 238 564 m 163 597 q 166 626 163 614 q 173 647 170 639 q 180 660 177 656 q 184 665 184 665 q 184 669 184 667 q 185 671 184 670 q 185 673 185 672 l 192 680 q 217 703 205 692 q 246 724 229 714 q 268 737 254 734 q 297 747 281 739 q 303 748 299 747 q 313 750 308 749 q 322 752 318 751 q 329 754 327 753 l 336 754 q 359 752 349 754 q 382 748 370 751 l 401 748 q 417 742 411 747 q 430 734 422 737 q 473 709 453 724 q 507 675 492 694 q 529 633 521 656 q 536 585 536 610 l 536 574 q 534 567 536 572 q 530 557 532 562 l 530 524 q 516 480 528 502 q 488 440 505 458 q 449 409 471 422 q 404 394 427 397 q 378 389 391 389 q 358 386 365 389 l 353 385 l 341 385 l 324 391 l 320 391 q 316 390 318 391 q 313 390 314 390 l 307 390 q 290 393 299 390 q 273 401 281 396 q 257 411 264 406 q 245 422 250 417 l 234 433 q 228 435 231 434 q 224 437 225 436 q 205 455 214 445 q 189 477 196 466 q 177 498 182 488 q 171 516 173 509 q 170 530 171 519 q 168 552 169 540 q 165 576 166 564 q 163 597 164 589 z "},"&":{"ha":1267,"x_min":66,"x_max":1326,"o":"m 168 277 q 169 258 168 270 q 173 234 170 245 q 182 213 176 222 q 199 204 189 204 q 220 209 211 204 q 238 220 230 213 q 253 235 246 227 q 267 251 260 243 q 286 288 274 272 q 305 323 298 304 q 309 333 306 325 q 315 351 312 341 q 321 369 318 360 q 324 379 323 377 q 330 391 325 382 q 342 412 336 401 q 354 432 349 422 q 361 445 360 442 q 377 472 369 458 q 385 501 385 486 q 382 517 385 511 q 366 524 380 524 q 350 522 362 524 q 325 515 338 519 q 301 508 312 511 q 288 501 290 504 q 283 498 286 500 q 276 491 279 495 q 269 484 272 488 q 264 477 265 479 q 233 445 248 460 q 211 407 218 429 q 210 404 211 407 q 209 398 210 401 q 208 392 208 395 q 207 389 207 389 q 203 384 206 387 q 197 376 201 380 q 191 369 194 372 q 188 365 189 366 q 181 347 182 357 q 178 328 181 338 q 176 320 178 326 q 173 306 175 313 q 170 293 172 299 q 168 285 168 287 l 168 277 m 371 -209 q 326 -191 349 -197 q 281 -175 303 -186 q 275 -172 280 -174 q 265 -166 271 -170 q 255 -160 260 -163 q 249 -156 250 -157 q 244 -155 248 -156 q 241 -151 241 -153 q 181 -93 210 -124 q 132 -26 152 -61 q 129 -18 130 -24 q 127 -11 127 -12 q 112 15 121 3 q 98 40 104 26 q 98 44 98 41 q 98 48 98 46 q 98 50 98 50 q 95 56 97 52 q 89 65 92 60 q 83 73 86 69 q 80 79 81 77 q 76 88 77 83 q 76 98 76 93 l 76 109 q 75 127 76 119 q 66 144 73 136 l 66 177 l 66 210 q 66 214 66 211 q 68 219 67 216 q 70 225 69 222 q 71 228 71 227 l 71 290 q 72 299 71 292 q 75 314 73 306 q 77 330 76 323 q 80 341 79 338 q 81 345 80 342 q 83 352 82 348 q 86 359 85 355 q 90 365 88 363 q 105 414 100 389 q 121 465 111 439 q 159 524 134 496 q 207 577 184 553 q 217 587 210 580 q 232 603 224 595 q 248 618 240 611 q 258 629 255 625 q 284 642 272 634 q 311 656 296 650 q 345 670 327 664 q 381 684 363 676 l 452 684 q 470 693 462 684 q 485 713 478 701 q 497 736 492 724 q 507 754 503 747 l 517 765 q 522 771 519 766 q 526 778 526 777 q 528 786 526 780 q 533 798 530 791 q 537 810 535 804 q 541 817 540 815 q 547 826 542 819 q 559 843 553 834 q 571 858 566 851 q 577 867 576 865 q 586 889 585 878 q 593 910 587 900 q 595 914 593 911 q 600 922 597 918 q 604 929 602 926 q 606 934 606 932 q 610 948 610 942 q 611 961 611 954 l 611 972 l 611 1000 q 594 1019 607 1014 q 566 1027 581 1023 q 541 1037 552 1031 q 530 1061 530 1044 q 531 1065 530 1061 q 532 1073 532 1068 q 534 1081 533 1077 q 535 1088 534 1086 q 538 1099 536 1092 q 541 1107 540 1106 q 551 1118 543 1114 q 564 1125 560 1122 q 567 1129 565 1126 q 573 1136 570 1133 q 578 1141 576 1139 q 582 1145 581 1144 q 587 1147 583 1146 q 593 1149 591 1149 q 620 1155 605 1152 q 651 1162 635 1159 q 682 1168 667 1166 q 711 1170 698 1170 q 715 1170 712 1170 q 722 1169 718 1169 q 728 1168 725 1168 q 732 1167 729 1168 q 738 1164 734 1166 q 744 1160 741 1162 q 747 1159 747 1159 q 766 1153 756 1155 q 785 1146 777 1150 q 798 1134 793 1141 q 804 1114 804 1126 q 795 1077 804 1094 q 780 1042 787 1059 q 755 991 769 1015 q 726 945 741 968 q 694 899 711 922 q 663 854 678 877 q 649 821 652 839 q 640 789 645 804 q 634 778 637 785 q 630 770 631 771 q 625 762 629 768 q 619 754 621 755 q 611 733 614 745 q 601 712 608 721 q 576 684 587 696 q 555 659 565 671 q 538 630 546 646 q 522 595 530 615 q 519 588 521 591 q 517 577 517 582 q 516 572 517 576 q 514 565 515 568 q 513 557 513 561 q 511 554 512 554 q 509 549 511 553 q 503 541 506 545 q 497 534 500 537 q 494 530 494 531 q 477 501 484 516 q 460 473 469 486 q 444 453 454 465 q 428 431 433 441 q 415 401 420 416 q 403 371 409 386 q 391 341 397 355 q 376 313 385 326 q 372 309 374 312 q 366 301 369 305 q 360 294 363 297 q 358 290 358 290 q 327 232 338 262 q 300 172 315 201 q 289 154 294 162 q 278 137 283 145 q 270 120 273 129 q 267 98 267 111 q 278 52 267 72 q 306 18 289 32 q 346 -6 323 3 q 389 -20 368 -15 q 397 -22 391 -20 q 409 -26 402 -24 q 421 -29 415 -28 q 428 -31 427 -31 q 445 -32 433 -31 q 472 -33 458 -33 q 499 -34 486 -33 q 517 -34 511 -34 q 524 -43 519 -41 q 535 -45 529 -45 l 540 -45 q 558 -41 551 -45 q 577 -34 565 -37 q 586 -33 579 -34 q 600 -32 592 -33 q 614 -31 607 -32 q 624 -31 621 -31 q 673 -21 649 -28 q 718 -2 696 -15 q 747 18 734 7 q 776 37 760 28 q 779 38 776 37 q 786 41 783 39 q 794 44 790 43 q 799 45 798 45 q 811 51 804 48 q 823 60 818 54 q 856 104 840 81 q 888 149 871 127 q 898 162 895 157 q 902 172 901 168 q 906 182 904 176 q 911 196 907 187 l 916 201 q 919 205 918 202 q 921 210 921 209 q 923 218 922 213 q 926 228 925 223 q 929 237 928 233 q 930 243 930 241 q 932 258 930 245 q 935 286 933 271 q 938 317 937 302 q 940 341 939 333 l 940 351 l 940 360 q 936 375 939 364 q 929 398 932 386 q 922 421 925 410 q 916 435 918 431 q 903 456 913 446 q 888 473 894 465 q 886 478 888 474 q 881 487 884 482 q 877 496 879 492 q 874 501 875 500 q 861 517 870 508 q 842 534 852 526 q 822 548 832 543 q 804 554 811 554 l 718 554 q 710 546 716 552 q 697 534 704 541 q 685 523 691 528 q 677 515 679 517 q 672 513 676 514 q 667 511 668 511 q 640 478 651 498 q 629 437 629 459 q 633 427 629 431 q 642 418 637 422 q 654 413 648 415 q 665 412 661 412 q 684 418 677 412 q 701 431 691 425 q 707 435 703 433 q 716 439 711 437 q 725 443 721 441 q 728 445 728 445 l 789 445 q 793 444 789 445 q 799 441 796 442 q 828 415 817 429 q 841 379 840 400 q 836 364 841 373 q 827 351 830 355 q 825 348 826 351 q 822 341 823 345 q 820 335 821 338 q 818 332 819 332 q 785 305 806 315 q 747 290 765 295 l 743 290 q 728 293 735 290 q 713 298 721 297 q 708 299 712 298 q 697 301 703 300 q 687 302 692 302 q 682 304 682 303 q 678 306 681 304 q 672 310 675 307 q 664 314 668 312 q 659 318 661 317 q 637 331 646 326 q 621 343 628 336 q 607 357 613 349 q 593 379 600 366 q 581 399 585 391 q 577 421 577 408 l 577 431 q 582 475 580 452 q 588 519 583 498 q 613 582 594 554 q 659 632 633 609 q 672 641 665 639 q 686 645 679 644 q 702 646 694 646 q 718 648 709 646 q 723 649 720 648 q 731 651 727 650 q 738 654 734 652 q 741 656 741 655 q 749 659 744 657 q 758 662 753 661 q 767 664 763 663 q 771 665 770 665 q 774 666 771 666 q 781 667 777 667 q 789 667 785 667 q 795 667 793 667 q 811 667 802 667 q 823 665 821 667 q 827 664 823 665 q 836 661 831 663 q 845 657 841 659 q 850 656 849 656 l 901 656 q 906 654 903 656 q 912 652 909 653 q 918 649 915 650 q 921 648 920 648 q 942 639 930 644 q 966 629 954 634 q 988 616 978 623 q 1006 601 999 609 q 1010 593 1007 599 q 1017 581 1013 588 q 1023 568 1020 574 q 1029 558 1027 562 q 1031 551 1029 557 q 1036 539 1034 545 q 1041 527 1038 532 q 1044 519 1043 522 q 1045 515 1044 519 q 1048 511 1046 511 q 1057 501 1050 508 q 1071 487 1063 494 q 1085 473 1078 479 q 1095 465 1092 467 q 1108 460 1103 461 q 1123 458 1114 458 q 1154 465 1142 458 q 1173 482 1166 471 q 1182 508 1180 493 q 1185 538 1185 522 l 1185 562 l 1182 566 q 1179 572 1179 570 q 1157 608 1168 590 q 1146 649 1146 627 l 1146 652 q 1155 673 1151 665 q 1164 686 1158 681 q 1178 692 1169 690 q 1200 694 1186 694 l 1208 694 q 1227 693 1218 694 q 1245 684 1236 691 q 1250 680 1246 684 q 1258 672 1253 677 q 1267 663 1262 668 q 1274 656 1272 659 q 1295 633 1286 644 q 1312 612 1305 623 q 1322 589 1318 602 q 1326 558 1326 576 q 1315 466 1326 507 q 1274 384 1305 424 q 1248 364 1262 370 q 1217 351 1234 358 l 1198 341 l 1187 341 q 1154 343 1172 341 q 1123 347 1135 345 q 1118 349 1122 347 q 1109 351 1114 350 q 1100 354 1104 353 q 1095 355 1096 355 l 1082 355 q 1053 332 1060 355 q 1048 312 1049 321 q 1046 291 1046 302 q 1047 270 1046 280 q 1048 249 1048 260 q 1047 232 1048 239 q 1044 215 1046 224 q 1040 202 1043 211 q 1035 185 1038 194 q 1028 168 1031 176 q 1024 157 1025 160 q 1022 152 1024 156 q 1017 143 1020 148 q 1013 135 1015 139 q 1010 130 1010 131 q 1009 125 1010 129 q 1006 116 1008 121 q 1003 107 1004 111 q 1001 102 1002 103 q 998 97 1000 101 q 991 88 995 92 q 985 79 988 83 q 982 74 983 75 q 980 65 981 72 q 976 51 978 58 q 971 36 973 43 q 968 27 968 29 q 964 22 967 26 q 959 13 962 18 q 952 4 956 8 q 948 -2 949 -1 q 946 -6 947 -3 q 942 -13 944 -9 q 938 -21 939 -17 q 935 -26 936 -24 q 929 -32 932 -30 q 925 -35 927 -34 q 919 -38 922 -37 q 911 -43 916 -40 q 902 -53 909 -45 q 885 -67 894 -60 q 869 -82 877 -75 q 860 -90 862 -88 q 854 -96 858 -92 q 847 -102 850 -99 q 840 -107 843 -105 q 837 -109 838 -109 q 794 -127 817 -121 q 752 -143 771 -134 q 747 -146 751 -144 q 738 -153 743 -149 q 729 -159 734 -156 q 724 -162 725 -161 q 720 -163 723 -162 q 714 -164 717 -163 q 708 -165 711 -165 q 705 -167 705 -166 q 666 -184 685 -172 q 630 -203 648 -195 q 621 -207 626 -205 q 610 -212 615 -210 q 601 -217 605 -215 q 596 -218 597 -218 l 498 -218 q 479 -212 491 -215 q 460 -209 467 -209 q 442 -208 454 -209 q 415 -208 429 -208 q 388 -208 401 -208 q 371 -209 375 -209 z "},"'":{"ha":379,"x_min":212,"x_max":543,"o":"m 242 646 q 223 664 231 652 q 212 691 215 675 q 213 699 212 694 q 220 705 214 703 q 282 722 252 715 q 336 741 313 729 q 374 773 360 752 q 389 833 389 794 q 378 861 389 850 q 354 882 367 872 q 330 904 340 892 q 319 932 319 915 q 325 960 319 951 q 341 975 331 970 q 363 983 351 980 q 389 993 376 987 l 433 993 q 517 963 492 993 q 543 871 543 932 q 539 814 543 842 q 523 762 536 787 q 496 725 514 745 q 456 688 478 705 q 412 658 435 670 q 370 646 389 646 q 334 644 352 644 q 290 646 311 644 q 278 649 282 649 q 268 650 274 650 l 242 646 z "},"(":{"ha":436,"x_min":102,"x_max":507,"o":"m 484 939 l 484 935 q 482 931 484 933 l 479 927 q 477 922 479 926 q 472 914 475 918 q 468 907 470 910 q 465 903 466 904 q 463 898 465 902 q 460 890 462 895 q 457 883 458 886 q 456 880 456 880 q 451 875 454 879 q 446 869 448 871 q 426 852 435 861 q 409 833 418 842 q 404 827 408 831 q 395 818 400 823 q 386 809 390 813 q 380 804 381 804 q 373 797 378 802 q 365 786 369 791 q 356 777 360 781 q 351 771 353 772 q 347 762 350 770 q 343 752 345 753 q 340 750 342 751 q 336 746 338 748 q 331 741 334 743 q 328 738 329 739 q 322 722 323 732 q 319 705 321 713 q 317 698 319 703 q 311 686 314 692 q 304 674 307 680 q 301 667 302 669 q 298 661 299 666 q 296 654 296 655 q 286 637 293 644 q 277 621 279 630 q 276 615 277 619 q 274 606 275 611 q 273 597 273 602 q 273 593 273 593 q 270 587 272 591 q 267 583 268 583 q 254 544 259 564 q 250 503 250 524 q 254 463 250 483 q 258 422 258 444 l 258 418 q 252 397 256 409 q 243 373 248 385 q 237 349 239 361 q 234 330 234 338 l 234 319 q 235 308 234 317 q 239 289 237 299 q 242 270 241 279 q 243 258 243 261 q 240 243 242 251 q 237 231 239 237 q 234 222 235 225 q 232 214 234 220 q 231 206 231 208 l 231 205 l 231 202 q 232 192 231 199 q 233 180 232 186 q 234 169 233 174 q 234 164 234 165 q 237 159 235 163 q 242 152 239 156 q 247 145 245 149 q 250 141 249 142 q 251 130 250 139 q 254 111 252 121 q 256 91 255 100 q 258 79 257 81 q 261 71 258 77 q 268 56 264 64 q 274 41 271 48 q 277 32 277 34 q 278 29 277 31 q 279 23 278 26 q 280 18 279 20 q 281 14 281 15 q 284 10 281 13 q 289 4 286 7 q 294 -1 292 1 q 296 -5 296 -4 q 308 -33 303 -18 q 316 -61 312 -47 q 325 -90 320 -76 q 338 -117 330 -104 q 344 -125 339 -119 q 354 -137 349 -130 q 365 -149 359 -143 q 372 -156 370 -154 q 382 -171 374 -159 q 399 -198 390 -183 q 417 -225 409 -212 q 427 -241 425 -238 q 434 -249 429 -241 q 441 -258 439 -256 q 444 -261 443 -259 q 446 -264 446 -263 q 450 -267 447 -264 q 458 -271 454 -269 q 465 -275 462 -273 q 469 -277 468 -277 q 481 -291 474 -281 q 493 -313 488 -301 q 503 -336 499 -325 q 507 -355 507 -348 q 504 -369 507 -361 q 492 -376 500 -376 q 464 -375 480 -376 q 436 -363 448 -373 l 433 -363 q 417 -356 426 -361 q 398 -343 408 -350 q 380 -330 389 -336 q 367 -320 372 -323 q 361 -318 366 -320 q 356 -315 357 -315 q 354 -310 355 -314 q 350 -300 352 -305 q 346 -292 347 -296 q 343 -288 344 -288 q 332 -276 339 -281 q 316 -266 324 -271 q 301 -257 309 -262 q 290 -245 294 -252 q 287 -233 290 -242 q 281 -222 283 -223 q 277 -214 281 -220 q 273 -206 273 -208 l 273 -203 l 273 -193 q 268 -188 271 -191 q 261 -182 264 -185 q 254 -178 257 -180 q 250 -175 250 -176 q 233 -160 239 -168 q 223 -142 227 -151 q 217 -123 220 -133 q 211 -104 214 -114 q 209 -99 211 -103 q 207 -94 207 -95 q 203 -89 206 -93 q 197 -80 200 -85 q 191 -71 194 -75 q 187 -66 188 -67 q 175 -36 178 -50 q 163 -5 172 -22 q 157 10 160 3 q 150 23 153 16 q 144 36 146 29 q 140 52 141 43 l 140 79 q 139 84 140 80 q 136 92 138 87 q 133 99 134 96 q 131 104 132 103 q 128 112 131 106 q 126 117 127 115 l 126 159 q 121 200 125 181 q 113 238 117 219 q 106 276 109 257 q 102 318 102 296 l 102 319 q 104 328 103 321 q 107 343 106 335 q 111 358 109 351 q 113 366 113 365 q 113 382 113 369 q 112 407 112 395 q 112 417 112 413 q 113 424 112 422 q 114 427 113 424 q 115 435 115 431 q 116 443 115 439 q 117 447 117 446 q 117 456 117 449 q 119 470 118 463 q 121 484 120 477 q 121 494 121 491 q 135 513 130 500 q 142 542 140 526 q 146 573 144 557 q 150 597 147 588 q 156 614 152 603 q 163 636 159 625 q 170 656 167 648 q 173 667 173 665 q 176 674 174 669 q 182 686 179 680 q 189 698 186 692 q 192 705 191 703 q 193 708 193 705 q 195 714 194 711 q 196 721 195 718 q 197 724 197 724 q 200 729 198 726 q 202 733 201 732 q 204 737 202 734 q 209 743 206 740 q 213 749 211 746 q 216 752 215 751 q 218 760 216 753 q 220 767 220 766 q 223 772 220 768 q 227 781 225 777 q 231 789 229 785 q 234 794 233 793 q 252 815 239 800 q 279 846 265 829 q 306 877 294 863 q 324 897 319 892 q 328 904 324 899 q 333 911 332 910 q 349 934 340 922 q 368 956 357 946 q 392 972 379 966 q 420 979 405 979 q 437 976 426 979 q 458 967 448 972 q 476 954 469 962 q 484 939 484 947 z "},")":{"ha":455,"x_min":24,"x_max":429,"o":"m 47 -338 l 47 -334 q 49 -331 48 -333 q 52 -326 50 -328 q 55 -321 53 -325 q 59 -313 57 -317 q 64 -306 62 -309 q 66 -302 66 -303 q 68 -297 67 -301 q 71 -290 69 -294 q 73 -283 72 -286 q 76 -279 75 -279 q 80 -274 77 -277 q 85 -269 83 -270 q 105 -252 97 -261 q 123 -233 114 -242 q 128 -227 123 -231 q 137 -217 132 -222 q 146 -208 142 -212 q 152 -203 151 -204 q 158 -196 154 -201 q 167 -186 163 -191 q 175 -176 172 -180 q 179 -170 178 -172 q 184 -161 181 -169 q 189 -151 187 -153 q 196 -144 190 -150 q 203 -136 201 -139 q 209 -121 209 -131 q 212 -104 209 -111 q 215 -97 212 -102 q 221 -85 218 -92 q 228 -73 224 -79 q 231 -66 231 -68 q 234 -59 232 -64 q 235 -53 235 -54 q 245 -37 239 -44 q 254 -19 252 -29 q 256 -14 255 -18 q 257 -5 256 -9 q 258 3 258 -1 q 259 8 259 7 q 262 14 260 10 q 264 18 264 18 q 277 57 273 37 q 282 98 282 77 q 278 138 282 118 q 273 178 273 158 l 273 183 q 279 203 275 192 q 287 227 283 215 q 294 251 291 239 q 296 271 296 263 l 296 281 q 295 293 296 283 q 292 312 294 302 q 290 331 291 322 q 288 342 288 340 q 292 357 290 350 q 294 370 293 363 q 296 380 295 376 q 299 387 296 381 q 301 394 301 393 l 301 395 l 301 399 q 300 409 300 403 q 298 421 299 415 q 297 432 298 427 q 296 437 296 436 q 294 441 296 438 q 289 449 292 445 q 285 456 287 452 q 282 460 283 459 q 281 471 282 462 q 278 491 279 480 q 275 510 277 501 q 273 522 274 519 q 270 531 273 524 q 264 545 267 537 q 258 560 260 553 q 254 569 255 567 q 253 578 254 570 q 250 587 251 585 q 247 590 249 587 q 242 596 245 593 q 238 602 240 600 q 235 606 236 605 q 223 633 228 618 q 215 663 219 648 q 206 692 211 677 q 193 718 201 706 q 187 726 192 720 q 177 738 182 731 q 166 749 172 744 q 160 757 161 755 q 150 772 158 760 q 132 798 141 784 q 114 825 122 812 q 105 841 106 838 q 98 850 102 843 q 90 859 93 857 q 87 862 89 861 q 85 865 85 863 q 81 867 84 865 q 74 871 77 869 q 66 876 70 873 q 62 879 62 878 q 51 892 57 882 q 38 914 44 902 q 28 937 33 926 q 24 956 24 949 q 28 970 24 962 q 39 979 31 979 q 45 976 44 979 q 47 970 47 974 l 47 961 q 55 961 49 961 q 68 962 61 962 q 83 963 75 962 q 95 963 90 963 l 99 963 q 115 957 106 962 q 133 944 123 951 q 151 930 142 937 q 165 921 159 924 q 170 919 166 921 q 176 916 174 916 q 178 911 176 916 q 182 902 180 907 q 186 893 184 897 q 189 888 188 889 q 200 876 193 881 q 215 867 208 871 q 230 858 223 863 q 241 846 237 852 q 242 841 241 845 q 245 833 243 838 q 248 826 246 829 q 250 823 249 823 q 254 815 250 821 q 259 808 259 810 l 259 804 l 259 794 q 263 789 260 791 q 270 784 267 786 q 277 779 274 781 q 282 776 281 777 q 308 744 301 762 q 320 705 314 726 q 322 700 320 704 q 325 694 325 696 q 328 690 325 694 q 334 681 331 686 q 340 672 337 677 q 343 667 343 668 q 352 651 349 659 q 357 636 355 644 q 361 622 359 629 q 367 606 363 614 q 374 592 370 598 q 382 579 378 585 q 388 566 385 573 q 391 550 390 559 l 391 522 q 392 517 391 521 q 395 509 393 513 q 398 502 397 505 q 401 498 400 498 q 403 489 401 493 q 406 484 404 486 l 406 441 q 410 400 406 419 q 418 363 414 382 q 426 325 422 344 q 429 283 429 305 l 429 281 q 427 273 429 279 q 424 258 426 266 q 420 243 422 250 q 418 235 419 237 l 418 193 l 418 177 q 418 173 418 176 q 416 166 417 170 q 414 159 415 162 q 414 154 414 155 q 413 145 414 152 q 412 131 412 138 q 411 116 412 123 q 410 106 410 109 q 396 88 401 101 q 389 60 391 75 q 386 29 387 44 q 382 5 385 14 q 376 -13 380 -1 q 369 -35 372 -24 q 362 -56 365 -47 q 359 -66 359 -64 q 355 -73 358 -68 q 349 -85 353 -79 q 343 -97 346 -92 q 340 -104 340 -102 q 337 -114 338 -106 q 335 -123 335 -122 q 332 -127 334 -124 q 330 -132 330 -131 q 328 -136 330 -134 q 323 -142 326 -139 q 319 -148 321 -145 q 317 -151 317 -151 q 313 -158 315 -153 q 312 -165 312 -164 q 308 -171 311 -168 q 304 -179 306 -175 q 300 -188 302 -184 q 296 -193 298 -192 q 279 -214 292 -199 q 252 -245 266 -229 q 225 -276 237 -262 q 208 -297 212 -291 q 204 -303 208 -298 q 199 -311 200 -309 q 182 -334 192 -322 q 162 -355 173 -345 q 139 -370 151 -364 q 113 -376 127 -376 q 95 -373 106 -376 q 74 -365 84 -370 q 55 -353 63 -359 q 47 -338 47 -346 z "},"*":{"ha":560,"x_min":249,"x_max":691,"o":"m 471 881 q 482 910 479 895 q 491 940 486 926 q 507 962 496 953 q 537 970 517 970 l 555 970 q 567 955 564 963 q 570 934 570 946 q 567 895 570 917 q 555 854 564 873 q 532 823 547 836 q 495 810 517 810 q 489 811 493 810 q 481 814 485 812 q 474 818 477 816 q 471 823 471 821 l 471 881 m 277 893 l 277 909 q 286 919 279 915 q 300 924 293 924 q 307 923 302 924 q 317 921 312 922 q 327 919 323 920 q 333 918 332 918 q 342 912 335 918 q 353 905 350 907 q 364 893 356 901 q 381 877 372 886 q 398 859 390 867 q 408 847 406 850 q 418 826 414 838 q 423 804 423 813 q 414 794 423 795 q 400 792 406 792 q 375 797 387 792 q 352 808 363 801 q 330 823 340 814 q 310 839 320 831 q 294 851 300 846 q 284 861 288 856 q 278 874 280 867 q 277 893 277 881 m 545 730 l 545 734 q 549 741 546 736 q 554 750 551 745 q 560 758 557 754 q 564 764 563 762 q 574 771 567 766 q 583 777 582 777 l 630 777 q 640 770 635 772 q 651 767 646 768 q 662 764 656 766 q 672 758 667 762 q 676 755 673 758 q 682 750 679 753 q 687 744 685 747 q 691 739 690 741 q 689 733 691 738 q 688 726 688 728 q 683 720 686 724 q 676 710 680 715 q 671 702 673 706 q 667 698 668 699 q 654 689 661 691 q 637 688 646 688 l 624 688 l 602 688 q 598 689 602 688 q 590 693 595 691 q 581 698 586 696 q 574 703 576 701 q 554 713 563 708 q 545 730 545 718 m 249 669 l 249 675 q 250 681 249 677 q 252 688 251 684 q 253 695 252 692 q 254 698 254 698 q 266 708 256 703 q 288 715 276 712 q 312 722 300 719 q 330 726 324 724 q 333 728 330 726 q 338 730 335 729 q 344 733 341 732 q 347 734 347 734 l 349 734 q 357 732 350 734 q 373 728 364 730 q 388 721 381 725 q 395 715 395 718 l 395 711 q 391 707 394 711 q 385 703 388 704 q 361 681 374 693 q 334 657 348 668 q 304 638 319 646 q 273 630 289 630 q 253 642 256 630 q 249 669 249 653 m 466 692 q 494 680 483 690 q 511 656 505 670 q 523 627 518 643 q 532 598 527 612 l 532 593 q 530 572 532 584 q 524 551 529 561 q 511 534 519 541 q 490 528 503 528 q 469 536 477 528 q 455 556 460 545 q 451 563 453 559 q 447 572 449 568 q 444 581 445 577 q 442 585 442 585 l 442 659 q 450 679 442 670 q 466 692 458 688 z "},"+":{"ha":718,"x_min":93,"x_max":718,"o":"m 98 474 q 121 485 106 481 q 154 489 136 489 q 173 488 168 489 q 181 486 178 488 l 283 486 q 323 488 307 486 q 345 496 339 490 q 357 545 357 509 l 345 704 q 347 736 345 722 q 357 759 350 751 q 391 768 368 768 q 421 764 407 768 q 443 752 435 760 l 462 711 q 463 709 462 711 q 464 703 463 708 q 467 689 465 699 q 470 662 468 679 q 459 654 463 659 q 451 640 454 647 q 449 624 449 633 q 451 590 449 608 q 457 557 454 571 q 458 545 458 548 q 459 540 459 543 q 458 518 459 529 q 457 500 457 507 l 457 498 q 458 498 457 498 q 464 493 463 493 q 512 499 487 493 q 559 505 538 505 q 578 503 570 505 q 593 498 586 500 l 697 498 q 706 496 701 498 q 713 493 711 494 q 718 473 718 486 l 718 421 l 707 408 q 646 386 684 386 q 584 393 615 386 q 528 401 553 400 l 512 395 l 470 392 q 464 374 467 386 q 459 347 461 362 q 456 316 457 332 q 454 284 454 299 q 456 256 454 269 q 460 233 458 244 q 464 214 464 220 q 462 202 464 211 q 460 191 460 193 l 463 159 q 457 138 463 144 q 427 132 446 132 q 393 136 409 132 q 372 143 378 140 q 360 179 363 159 q 355 220 357 199 q 352 263 353 241 q 345 307 350 286 l 359 359 q 355 373 359 366 q 340 382 347 379 q 324 386 334 386 q 301 383 313 386 q 276 380 290 380 q 263 380 267 380 q 256 381 259 380 q 240 386 252 386 l 223 385 q 202 381 213 382 q 179 380 191 380 q 157 381 168 380 q 134 385 146 382 q 116 387 123 385 q 102 399 109 389 q 93 440 93 414 q 96 467 95 461 q 98 474 98 473 z "},",":{"ha":336,"x_min":-144,"x_max":190,"o":"m -144 -206 q -144 -199 -144 -202 q -140 -193 -143 -197 q -109 -156 -124 -171 q -74 -123 -94 -140 q -25 -87 -51 -104 q 24 -53 1 -71 q 48 -33 38 -42 q 58 -7 58 -24 q 45 15 58 6 q 18 34 33 24 q -10 55 3 43 q -22 87 -22 67 q -12 135 -22 113 q 20 172 -2 157 q 24 174 20 172 q 32 177 27 175 q 40 180 36 178 q 48 182 45 181 q 64 180 54 182 q 80 177 75 179 q 85 176 82 176 q 91 174 87 175 q 98 172 94 173 q 101 169 99 172 q 106 163 104 166 q 111 157 109 160 q 114 154 113 154 q 117 150 115 151 q 120 150 118 150 l 123 150 q 127 150 125 150 q 132 148 130 149 q 136 146 133 146 q 142 146 140 146 q 161 118 152 131 q 176 92 170 105 q 186 65 182 79 q 190 32 190 50 q 190 26 190 31 q 190 16 190 22 q 189 6 189 11 q 189 -1 189 1 q 179 -23 182 -12 q 173 -45 176 -34 q 168 -68 171 -57 q 161 -89 165 -79 q 158 -93 160 -90 q 154 -99 156 -96 q 149 -105 151 -102 q 146 -109 146 -109 q 141 -116 144 -111 q 135 -124 138 -120 q 130 -132 132 -128 q 127 -136 127 -136 q 126 -140 127 -137 q 123 -146 125 -143 q 121 -152 122 -149 q 119 -156 119 -155 q 102 -173 111 -165 q 82 -186 92 -180 q 62 -198 73 -193 q 43 -211 52 -204 q 19 -229 30 -221 q -2 -242 9 -237 q -25 -251 -13 -248 q -55 -254 -38 -254 l -69 -254 q -80 -253 -73 -254 q -94 -252 -87 -252 q -106 -250 -100 -251 q -113 -250 -111 -250 q -124 -243 -118 -248 q -134 -233 -130 -239 q -141 -219 -138 -227 q -144 -206 -144 -212 z "},"-":{"ha":548,"x_min":91,"x_max":449,"o":"m 91 307 q 98 327 91 319 q 115 339 104 334 q 136 345 125 343 q 157 347 147 347 l 173 347 l 213 347 q 235 349 217 348 q 272 350 252 349 q 310 352 292 351 q 332 353 328 353 l 359 353 l 387 353 q 419 329 407 344 q 444 296 432 313 q 445 294 445 295 q 447 291 446 292 q 449 288 448 289 q 443 259 449 274 q 430 235 436 244 q 412 220 422 225 q 391 206 401 214 q 377 205 387 206 q 356 204 368 205 q 335 203 345 203 q 321 202 325 202 l 314 202 l 308 202 q 295 203 305 202 q 272 204 284 203 q 250 205 260 205 q 237 206 239 206 l 195 206 q 185 207 192 206 q 171 209 179 208 q 157 210 163 210 q 146 211 150 211 q 115 222 126 214 q 99 241 104 230 q 93 268 94 253 q 91 300 92 283 l 91 307 z "},".":{"ha":338,"x_min":-10,"x_max":202,"o":"m -5 52 q -9 88 -9 73 q -10 123 -10 103 l -10 141 q -5 151 -10 142 q 4 164 1 160 q 11 176 7 170 q 21 183 15 183 q 31 184 24 183 q 43 184 37 184 q 58 189 51 184 q 67 193 64 193 q 88 201 79 199 q 109 203 97 203 q 121 203 115 203 q 136 202 128 203 q 144 195 138 200 q 154 188 151 189 q 158 186 155 188 q 164 184 161 185 q 170 181 167 182 q 173 178 172 179 q 177 172 174 177 q 184 162 180 168 q 191 150 187 156 q 196 141 194 144 q 199 134 197 140 q 201 128 201 129 q 201 125 201 126 q 202 122 202 123 q 196 101 202 111 q 188 81 189 92 q 186 74 186 77 q 186 68 186 71 l 186 58 q 186 51 186 55 q 183 42 186 47 q 177 36 182 41 q 168 28 171 30 q 154 18 163 24 q 138 7 145 12 q 132 4 136 5 q 121 2 129 3 q 99 1 113 1 q 60 0 85 0 q 52 3 59 0 q 41 8 44 7 q 36 14 41 9 q 24 24 31 18 q 9 37 17 31 q -2 47 2 43 q -3 50 -2 48 q -5 52 -5 52 z "},"/":{"ha":351,"x_min":-1,"x_max":452,"o":"m -1 -76 q 1 -57 -1 -65 q 7 -40 3 -48 q 14 -24 10 -32 q 21 -6 18 -16 l 26 15 q 32 33 28 25 q 38 50 35 40 l 44 83 q 47 87 44 85 q 53 93 50 90 q 58 98 56 96 q 62 101 61 100 l 62 132 q 66 146 62 140 q 74 159 69 153 q 82 171 78 165 q 89 184 87 177 q 93 195 90 188 q 99 211 96 203 q 104 225 102 218 q 106 233 106 231 q 110 251 106 236 q 120 284 114 267 q 132 317 125 302 q 145 334 139 332 q 167 392 159 360 q 182 450 175 424 l 208 515 q 220 565 215 547 q 228 592 224 583 q 233 605 231 602 q 237 609 235 608 l 246 635 q 250 653 248 646 q 256 667 253 661 q 264 681 260 674 q 272 698 268 688 q 295 764 286 730 q 314 831 304 798 q 324 857 317 845 q 338 882 330 868 q 342 896 339 886 q 349 918 345 905 q 355 942 352 930 q 361 962 359 954 q 365 983 363 973 q 372 999 367 992 q 387 1010 377 1006 q 412 1014 396 1014 q 433 1010 422 1014 q 452 1000 445 1007 l 452 962 q 447 954 451 961 q 443 945 443 947 q 440 918 439 932 q 437 890 441 905 q 429 875 435 880 q 415 863 422 871 q 412 854 412 859 q 412 838 412 850 q 405 819 410 829 q 395 800 401 809 q 382 781 389 790 q 370 765 376 772 q 362 750 363 754 q 361 743 361 745 l 360 722 q 349 686 357 703 q 333 657 342 669 q 333 646 333 651 q 334 638 334 642 q 332 620 334 627 q 329 609 331 613 q 324 602 327 605 q 319 596 321 600 q 314 586 317 593 q 310 572 312 580 q 306 557 308 564 q 304 545 304 550 q 301 515 304 528 q 292 495 297 503 q 282 481 287 486 q 277 473 278 476 q 275 465 277 470 q 272 458 272 460 q 267 435 271 445 q 258 415 263 425 q 245 396 252 406 q 232 376 239 387 q 226 361 227 369 q 225 346 225 353 q 225 316 225 324 q 221 304 224 309 q 208 279 212 292 q 203 267 205 267 q 200 262 203 265 q 194 255 197 258 q 186 248 190 251 q 182 244 183 245 q 177 227 178 239 q 173 201 175 214 q 170 175 172 187 q 164 157 168 163 q 161 153 163 155 q 156 147 159 150 q 151 142 153 144 q 149 138 149 140 q 153 119 153 127 q 145 94 153 104 q 132 81 138 84 q 129 57 130 65 q 121 45 129 49 q 122 37 121 43 q 123 24 123 31 q 122 5 123 13 q 118 -8 121 -2 q 111 -20 116 -14 q 99 -32 106 -26 q 92 -43 93 -38 q 90 -55 90 -49 l 90 -63 q 90 -67 90 -65 q 89 -72 90 -70 q 84 -84 86 -81 q 79 -90 81 -87 q 75 -96 77 -92 q 71 -108 73 -99 l 33 -122 q 23 -115 28 -122 q 12 -100 17 -109 q 2 -85 6 -92 q -1 -76 -1 -77 z "},":":{"ha":382,"x_min":4,"x_max":381,"o":"m 179 493 l 179 519 q 181 555 179 536 q 192 583 183 574 q 200 591 195 586 q 210 602 205 597 q 220 612 216 608 q 226 616 224 616 q 235 619 227 617 q 245 622 242 621 q 250 623 245 622 q 258 626 254 625 q 267 629 263 627 q 273 630 271 630 l 282 630 q 307 623 290 630 q 339 605 323 616 q 369 582 356 594 q 381 559 381 570 l 381 486 q 377 474 381 483 q 370 463 373 465 q 352 435 361 445 q 331 419 342 425 q 305 411 319 413 q 273 410 291 410 q 236 415 253 410 q 207 431 219 420 q 186 458 194 442 q 179 493 179 473 m 9 52 q 5 88 5 73 q 4 123 4 103 l 4 141 q 6 144 4 141 q 10 151 7 147 q 15 158 12 155 q 18 164 17 162 q 26 176 22 170 q 36 183 30 183 q 45 184 39 183 q 58 184 51 184 q 72 189 66 184 q 81 193 79 193 q 102 201 93 199 q 124 203 111 203 q 136 203 130 203 q 151 202 143 203 q 159 195 152 200 q 168 188 165 189 q 172 186 169 188 q 178 184 175 185 q 184 181 181 182 q 187 178 186 179 q 192 172 189 177 q 198 162 195 168 q 205 150 202 156 q 211 141 209 144 q 214 134 212 140 q 216 128 216 129 q 216 125 216 126 q 216 122 216 123 q 210 101 216 111 q 203 81 203 92 q 201 74 201 77 q 201 68 201 71 l 201 58 q 201 51 201 55 q 198 42 201 47 q 191 36 197 41 q 182 28 185 30 q 168 18 177 24 q 152 7 159 12 q 147 4 150 5 q 136 2 144 3 q 114 1 128 1 q 75 0 99 0 q 66 3 73 0 q 56 8 59 7 q 51 14 56 9 q 38 24 45 18 q 24 37 31 31 q 12 47 17 43 q 11 50 12 48 q 9 52 10 52 z "},";":{"ha":389,"x_min":-96,"x_max":334,"o":"m 159 500 q 166 522 159 512 q 183 539 173 531 q 203 554 193 547 q 221 568 214 561 l 276 568 q 286 565 279 568 q 295 558 293 562 q 300 551 296 557 q 305 545 304 545 q 323 525 313 534 q 334 501 332 516 l 334 474 l 334 446 q 320 420 329 430 q 299 406 311 411 q 274 399 288 401 q 247 397 260 397 q 211 404 225 397 q 188 422 197 411 q 173 449 178 434 q 163 482 168 465 q 161 490 163 484 q 159 498 159 496 l 159 500 m -94 -212 q -89 -204 -94 -211 q -81 -193 -83 -197 q -68 -181 -77 -189 q -51 -164 -60 -172 q -34 -148 -41 -155 q -24 -138 -26 -140 q -20 -135 -24 -138 q -13 -131 -17 -133 q -5 -126 -8 -128 q -1 -123 -1 -123 q 4 -119 0 -123 q 13 -110 8 -115 q 22 -101 18 -105 q 27 -95 26 -96 q 37 -90 28 -94 q 46 -87 45 -87 q 53 -82 48 -85 q 61 -76 57 -79 q 70 -71 66 -73 q 75 -68 73 -68 q 83 -59 77 -64 q 88 -53 88 -54 q 94 -35 94 -45 q 88 -15 94 -26 q 79 -7 87 -12 q 62 3 71 -3 q 44 14 53 9 q 33 22 36 19 q 11 58 18 37 q 4 98 4 79 q 10 124 4 109 q 27 146 16 139 q 39 152 34 149 q 48 156 43 154 q 58 158 53 157 q 71 159 63 159 q 81 159 74 159 q 88 159 87 159 q 96 157 90 159 q 108 154 101 156 q 120 151 115 152 q 127 149 125 149 q 135 148 129 149 q 148 147 141 148 q 161 146 155 146 q 170 146 168 146 q 174 139 170 144 q 181 128 177 134 q 188 117 184 122 q 193 111 191 112 q 207 92 199 102 q 221 70 214 81 q 231 46 227 58 q 235 24 235 35 q 235 17 235 20 q 234 13 235 13 q 233 3 234 9 q 232 -9 233 -3 q 231 -19 231 -15 q 229 -24 230 -24 q 226 -32 229 -26 q 220 -44 223 -37 q 214 -56 217 -50 q 210 -63 211 -62 q 209 -67 210 -64 q 207 -74 208 -70 q 203 -82 205 -78 q 201 -87 202 -85 q 197 -91 201 -87 q 190 -98 194 -94 q 182 -105 186 -102 q 178 -111 178 -109 q 171 -120 174 -114 q 165 -132 168 -125 q 158 -144 162 -138 q 151 -151 155 -149 q 132 -175 141 -163 q 113 -199 123 -188 q 92 -219 103 -210 q 65 -233 80 -228 q 42 -238 56 -235 q 15 -246 28 -242 q -9 -253 1 -250 q -20 -256 -19 -256 l -52 -256 q -71 -251 -61 -256 q -90 -246 -81 -246 q -95 -242 -94 -245 q -96 -236 -96 -239 l -94 -212 z "},"<":{"ha":612,"x_min":92,"x_max":702,"o":"m 231 196 l 224 212 q 201 232 206 228 q 195 237 196 237 q 185 241 189 237 q 181 253 182 246 q 180 266 180 259 q 179 275 180 272 q 171 279 174 277 q 165 283 168 281 q 160 289 162 286 q 156 299 158 292 l 136 336 q 119 343 128 338 q 103 357 110 349 q 94 376 97 366 q 96 397 92 386 q 114 418 101 409 q 141 434 126 427 q 171 448 156 441 q 197 460 186 454 q 205 465 200 460 q 215 474 210 469 q 224 482 220 478 q 232 486 229 486 q 249 496 242 492 q 260 503 255 500 q 270 509 265 506 q 283 517 275 512 q 289 523 287 520 q 292 528 291 526 q 307 541 295 533 l 346 551 l 398 588 q 406 588 402 588 q 412 589 409 589 q 418 591 415 590 q 426 597 422 593 q 435 603 429 602 q 459 617 450 612 q 473 625 467 622 q 481 629 478 627 q 499 637 489 629 q 521 655 510 646 q 542 673 532 665 q 559 683 552 681 q 575 690 570 686 q 586 698 581 694 q 595 706 590 702 q 608 715 600 710 q 651 732 629 726 q 692 749 672 738 q 700 736 697 745 q 697 715 702 726 q 684 695 692 702 q 666 682 675 688 q 645 671 656 677 q 621 656 633 666 q 604 650 616 656 q 580 637 593 644 q 555 622 567 629 q 538 612 543 615 q 531 608 536 612 q 518 601 525 605 q 507 593 512 597 q 500 588 501 589 l 453 563 q 439 553 447 559 q 424 542 432 547 q 408 532 416 536 q 393 528 400 528 l 390 528 q 381 517 388 525 q 370 508 374 510 q 366 506 368 507 q 361 505 362 505 q 339 494 347 501 q 319 481 331 486 q 289 465 301 471 q 266 453 277 458 q 243 441 255 448 q 214 425 231 435 q 214 408 211 416 q 223 400 217 400 q 252 370 240 385 q 278 339 264 355 q 281 335 277 338 q 287 332 286 333 q 293 328 288 332 q 303 317 298 323 q 314 306 309 311 q 321 300 319 301 q 325 287 323 290 q 330 284 327 284 q 337 282 333 283 q 345 275 340 281 q 349 263 345 271 q 357 247 352 255 q 367 232 361 238 q 377 225 372 225 q 395 208 386 216 q 412 189 405 199 q 421 173 418 180 q 433 161 424 167 q 448 150 439 156 q 463 137 456 144 q 472 121 469 130 q 470 100 475 112 q 458 82 467 92 q 437 62 449 71 q 413 45 426 52 q 388 39 399 39 q 373 46 378 39 q 361 60 368 54 q 349 64 357 63 q 334 71 340 65 l 323 104 l 313 111 q 306 120 308 114 q 301 134 303 127 q 294 149 298 142 q 282 161 290 156 q 273 169 278 163 q 263 181 267 175 q 255 193 258 188 q 251 198 252 198 l 231 196 z "},"=":{"ha":661,"x_min":65,"x_max":660,"o":"m 174 532 q 181 550 178 541 q 189 566 184 559 q 200 578 193 573 q 220 585 207 583 l 254 585 q 283 592 269 585 q 315 598 298 598 q 324 597 320 598 q 331 593 328 595 q 339 590 335 591 q 350 589 344 589 l 382 593 l 465 578 l 545 589 l 572 585 q 593 591 583 585 q 615 598 604 598 q 643 591 631 598 q 660 569 655 583 l 644 514 l 635 495 q 599 476 620 481 q 560 471 578 471 l 488 476 q 442 476 468 476 q 390 475 416 476 q 337 474 363 475 q 292 473 312 473 q 247 467 271 471 q 201 463 223 463 q 189 466 195 463 q 177 474 182 469 q 168 485 172 479 q 163 498 163 492 l 174 532 m 65 220 q 68 234 65 223 q 73 249 71 244 q 81 268 77 258 q 93 288 86 279 q 110 302 100 296 q 132 310 119 309 l 166 310 q 197 317 182 311 q 228 323 212 323 l 263 313 q 280 316 273 313 q 295 318 288 318 q 318 316 307 318 q 338 311 328 313 q 358 306 348 309 q 378 304 368 304 q 418 309 397 304 q 459 313 439 313 l 485 310 q 496 312 491 310 q 507 317 501 314 q 517 321 512 319 q 530 323 523 323 q 558 316 545 323 q 574 294 571 308 l 566 276 q 559 260 562 265 q 553 252 557 256 q 546 243 550 248 q 538 227 543 238 l 535 215 q 498 195 519 201 q 460 190 477 190 l 389 196 q 292 195 341 196 q 192 191 242 194 q 146 186 169 190 q 101 182 123 182 q 77 194 89 182 q 65 220 65 205 z "},">":{"ha":610,"x_min":-36,"x_max":596,"o":"m 289 201 l 270 201 q 261 196 269 201 q 242 184 253 191 q 220 171 232 178 q 201 163 209 165 q 183 151 191 158 q 166 137 174 144 q 149 123 157 130 q 133 113 141 117 l 120 109 l 77 73 q 58 68 68 69 q 40 63 48 68 q 18 50 29 56 q -2 43 7 43 q -21 50 -14 43 q -32 65 -28 56 q -36 85 -36 75 q -32 103 -35 95 q -17 124 -27 115 q 6 140 -6 133 q 32 152 19 146 q 54 163 44 157 q 68 170 62 166 q 78 177 73 173 q 88 184 83 180 q 101 193 93 189 q 133 211 116 201 q 165 228 150 220 q 182 234 171 228 q 204 249 193 241 q 227 266 216 257 q 241 278 237 274 q 256 286 251 285 q 264 287 260 287 q 272 290 268 288 q 286 302 277 292 q 298 310 288 304 q 319 321 308 316 q 339 331 330 327 q 349 336 348 336 q 356 339 351 336 q 363 344 361 342 q 414 374 389 359 q 470 404 439 389 q 485 411 475 404 q 498 428 494 418 q 484 446 490 439 q 471 457 477 452 q 457 468 465 463 q 440 484 450 474 q 432 497 434 490 q 420 509 430 505 q 416 510 418 509 q 412 511 414 510 q 410 523 410 516 q 405 530 411 530 q 394 535 398 530 q 387 545 390 539 q 382 557 384 551 q 378 566 380 563 l 353 593 q 349 596 352 593 q 343 603 347 600 q 338 610 340 607 q 334 615 335 614 q 325 625 331 618 q 313 640 319 632 q 299 653 307 647 q 286 659 292 659 q 277 675 283 669 q 265 685 271 680 q 258 697 260 690 q 262 718 256 705 q 277 739 267 730 q 298 753 288 748 q 309 743 302 747 q 323 735 316 739 q 338 727 331 731 q 351 717 345 723 q 356 709 355 713 q 359 701 357 705 q 363 693 360 696 q 374 686 366 689 q 381 676 378 684 q 387 659 384 668 q 394 641 390 649 q 406 631 399 633 q 408 631 408 631 q 410 629 410 629 q 423 613 418 619 q 430 603 427 607 q 433 597 432 599 q 437 593 435 595 l 456 593 q 464 575 460 587 q 475 556 468 564 q 494 543 488 548 q 504 533 501 537 q 506 526 506 529 q 507 519 507 522 q 513 513 510 515 q 520 508 517 510 q 527 501 524 505 q 533 490 530 497 q 537 487 535 490 q 540 478 538 483 q 542 468 541 473 q 545 463 543 464 q 561 451 551 457 q 579 438 571 446 q 592 420 588 430 q 591 399 596 411 q 575 378 587 389 q 551 360 564 368 q 525 346 538 352 q 502 338 511 340 q 490 331 497 337 q 474 319 482 326 q 460 308 467 313 q 452 302 454 302 q 438 292 444 296 q 428 286 433 288 q 419 282 424 283 q 408 278 414 281 q 398 269 404 275 q 385 256 392 262 q 371 244 378 250 q 357 239 363 239 q 353 238 357 239 q 350 237 351 237 q 312 220 331 234 l 289 201 z "},"?":{"ha":492,"x_min":108,"x_max":642,"o":"m 164 319 q 166 335 164 330 q 172 343 169 340 q 180 350 176 347 q 190 361 185 354 q 189 374 189 368 q 188 386 188 380 q 189 411 188 398 q 190 437 190 423 q 188 459 190 448 q 182 479 186 469 l 182 585 q 183 589 182 585 q 188 601 185 594 q 192 613 190 607 q 195 623 194 620 q 212 653 202 641 q 234 675 222 665 q 260 694 246 685 q 288 715 273 703 q 314 724 302 718 q 340 732 326 730 q 347 733 342 732 q 358 734 352 734 q 368 736 363 735 q 374 736 373 736 q 379 741 376 737 q 386 748 382 744 q 392 755 389 752 q 395 759 395 759 q 401 761 398 759 q 406 764 405 762 q 415 765 408 764 q 429 768 421 766 q 444 770 437 769 q 454 771 450 771 q 464 781 460 776 q 471 790 467 786 q 478 799 474 795 q 489 807 482 803 q 497 811 491 808 q 511 818 504 814 q 524 825 518 822 q 532 829 530 828 q 539 840 534 831 q 549 859 544 848 q 559 878 555 869 q 563 890 563 887 q 556 906 563 897 q 539 922 549 914 q 519 934 530 929 q 500 939 508 939 q 477 936 489 939 q 454 930 466 933 q 430 924 442 926 q 406 921 418 921 q 361 930 378 921 q 326 960 344 940 l 326 962 q 338 1009 326 989 q 370 1043 351 1029 q 414 1063 390 1057 q 461 1070 437 1070 l 471 1070 q 553 1040 520 1061 q 605 987 585 1019 q 633 916 625 956 q 642 829 642 876 l 642 820 q 641 810 642 817 q 640 798 640 804 q 638 787 639 791 q 637 781 637 782 q 629 767 634 773 q 618 755 624 761 q 606 742 612 749 q 598 728 601 736 l 545 675 q 536 672 543 675 q 528 667 530 669 q 525 664 528 667 q 518 657 522 661 q 511 652 514 654 q 506 649 507 649 q 499 648 505 648 q 488 647 494 648 q 477 646 482 646 q 471 645 472 646 q 456 634 465 643 q 436 616 446 626 q 416 599 426 606 q 401 591 407 591 l 353 591 q 336 577 346 583 q 318 562 326 572 q 288 494 295 530 q 276 422 280 459 q 267 402 273 411 q 260 385 260 394 q 266 369 260 378 q 278 349 271 360 q 290 325 285 338 q 296 296 296 311 l 296 285 q 279 275 285 279 q 264 272 273 272 q 238 277 254 272 q 205 289 221 282 q 176 305 189 296 q 164 319 164 313 m 108 71 q 113 103 108 83 q 127 142 118 123 q 149 175 136 161 q 177 189 161 189 q 221 186 197 189 q 264 173 244 182 q 297 147 283 163 q 310 106 310 131 q 303 75 310 90 q 285 47 296 60 q 263 21 275 34 q 243 -3 252 9 q 235 -6 239 -6 q 225 -7 231 -7 l 209 -7 q 173 -2 191 -7 q 141 12 155 3 q 117 36 126 22 q 108 71 108 51 z "},"@":{"ha":1064,"x_min":162,"x_max":1103,"o":"m 494 334 q 497 318 494 326 q 508 307 499 311 q 513 302 510 304 q 520 300 517 300 q 550 308 538 300 q 574 328 562 315 q 597 348 583 335 q 623 374 610 361 l 654 405 l 710 479 l 738 511 l 770 574 l 784 627 q 785 630 784 628 q 785 633 785 632 q 784 645 785 639 q 778 654 783 651 q 776 657 777 656 q 774 660 776 659 l 772 662 l 770 662 q 768 663 768 662 q 763 663 766 663 q 760 664 760 663 l 750 664 l 747 663 q 740 660 745 663 q 728 655 734 658 q 716 650 722 652 q 709 646 711 647 q 704 644 705 645 q 701 641 703 642 q 692 634 699 640 q 680 622 686 628 q 667 610 673 615 q 659 603 661 604 l 651 597 l 644 597 l 593 542 q 583 522 585 534 q 581 515 582 519 q 578 508 581 511 q 566 493 573 499 q 554 480 559 487 q 546 467 551 477 q 540 456 541 458 l 496 379 l 496 374 q 494 334 494 355 m 654 277 q 657 283 655 279 q 662 292 659 287 q 667 302 665 297 q 670 309 669 307 q 673 328 673 315 q 673 332 673 330 l 673 337 q 670 345 673 340 q 662 350 667 350 q 660 349 661 350 q 657 347 659 349 q 653 346 654 347 q 650 345 651 345 q 648 342 650 344 q 646 340 646 341 q 643 337 645 339 q 637 331 640 334 q 631 326 634 328 q 627 323 628 323 l 587 297 q 582 292 585 296 q 575 284 579 288 q 568 277 572 281 q 562 273 564 274 q 524 246 547 256 q 479 233 500 235 l 459 233 q 439 234 450 233 q 420 236 429 234 q 417 237 419 236 q 414 241 416 239 q 391 262 400 248 q 376 293 381 277 q 373 308 373 301 q 372 325 372 315 l 372 339 q 375 359 372 350 q 384 376 378 368 q 403 421 393 399 q 426 463 414 444 q 433 475 429 469 q 440 486 437 481 q 442 490 440 487 q 445 494 444 492 q 452 503 447 496 q 463 515 457 509 q 472 528 468 522 q 479 536 477 534 q 487 543 481 541 q 496 549 493 545 l 553 597 q 553 598 553 597 q 554 600 553 599 l 555 601 q 562 608 557 602 q 573 621 567 614 q 585 633 579 627 q 591 642 590 640 q 596 645 593 643 q 600 648 599 646 l 601 649 l 605 649 q 608 650 606 649 q 616 655 612 651 q 623 662 620 659 q 676 694 650 683 q 734 712 702 706 q 757 715 746 715 q 779 715 768 715 l 785 715 q 795 711 791 714 q 805 706 800 707 q 810 705 808 705 q 813 704 812 704 l 829 704 l 829 705 q 839 714 835 709 q 847 725 843 720 q 865 742 855 734 q 887 749 875 749 l 895 749 q 909 729 905 740 q 913 704 913 718 q 905 667 913 682 q 888 633 898 651 q 886 621 886 626 q 884 611 885 616 q 881 604 884 607 l 808 454 q 807 449 807 451 q 806 445 806 448 q 805 434 806 437 q 795 411 800 422 q 784 387 790 399 l 784 385 q 781 376 783 380 q 778 370 779 373 q 776 366 777 367 q 773 360 774 363 q 771 352 771 357 q 772 339 771 345 q 781 333 774 333 q 795 337 789 333 q 806 345 800 340 l 881 389 q 885 392 883 390 q 890 394 888 393 q 930 428 910 410 q 965 465 949 446 q 993 507 981 485 q 1008 554 1004 529 q 1012 578 1011 566 q 1013 603 1013 591 q 1010 623 1013 612 q 1007 644 1008 633 q 979 711 991 682 q 953 762 968 741 l 951 762 l 905 826 q 868 845 884 833 q 833 867 852 857 q 793 891 811 881 q 757 905 775 902 q 742 902 747 903 q 733 901 736 901 l 723 901 q 713 901 717 901 q 705 899 710 901 l 681 910 q 641 907 662 910 q 607 888 621 904 q 536 877 565 885 q 486 854 508 869 q 447 818 465 840 q 408 767 429 797 l 390 749 l 365 711 q 359 700 361 707 q 357 685 357 692 l 324 603 q 313 566 316 588 q 308 529 311 545 q 305 519 307 526 q 300 506 302 513 q 296 491 298 498 q 294 479 294 484 q 310 378 297 423 q 342 296 323 333 q 349 279 347 288 q 354 260 351 270 q 362 240 357 250 q 381 222 368 230 q 398 190 389 207 q 422 163 408 174 q 438 149 431 157 q 452 134 445 142 q 466 116 458 125 q 485 98 473 107 q 503 93 493 96 q 523 87 513 90 q 539 81 532 84 q 551 77 547 78 l 591 64 l 654 66 q 684 70 671 68 q 707 71 697 71 q 739 69 727 71 q 755 67 750 67 q 763 65 759 67 q 776 63 766 63 q 791 65 785 63 q 802 69 797 66 q 813 74 807 72 q 829 79 819 77 q 843 87 830 80 q 871 103 856 95 q 899 119 886 112 q 913 125 911 125 q 942 120 935 125 q 949 106 949 115 q 940 82 949 95 q 922 61 930 68 q 906 40 913 47 q 895 28 900 32 q 885 23 890 24 q 877 22 881 22 q 860 20 867 22 q 847 14 853 18 q 808 1 829 7 q 760 -5 787 -5 l 763 -3 q 751 -5 758 -5 q 736 -5 745 -5 l 646 -5 q 628 -5 636 -5 q 615 -3 619 -5 q 575 0 595 -3 q 535 7 555 3 q 494 17 515 12 q 454 26 474 22 q 450 27 453 26 q 446 31 447 29 q 407 58 427 45 q 365 83 387 72 l 342 88 q 327 98 338 89 q 302 118 315 107 q 279 140 290 130 q 267 155 268 151 l 214 249 q 200 287 209 261 q 183 341 191 313 q 168 396 174 370 q 162 434 162 422 q 165 445 162 441 q 168 456 168 449 l 162 495 q 166 533 162 511 q 174 579 170 555 q 184 624 179 603 q 191 659 189 646 q 192 665 191 661 q 196 672 194 668 q 201 680 199 676 q 204 684 203 683 q 214 701 211 692 q 220 717 218 709 q 226 733 223 725 q 234 749 229 741 q 241 759 237 755 q 249 764 245 762 q 255 771 252 767 q 257 783 257 775 l 337 863 l 393 890 q 397 895 395 892 q 403 902 399 899 l 435 913 l 526 956 l 701 990 l 738 990 l 772 975 l 791 977 l 837 962 q 856 955 843 960 q 883 944 869 949 q 909 933 897 939 q 926 924 921 928 q 942 909 935 916 q 957 897 949 903 q 971 886 964 891 q 987 876 978 882 q 1004 859 993 872 q 1027 830 1015 846 q 1047 801 1038 815 q 1057 783 1056 787 q 1059 766 1059 774 q 1059 751 1059 758 q 1063 738 1060 744 q 1074 728 1066 732 q 1084 680 1079 705 q 1093 633 1089 654 q 1100 595 1097 611 q 1103 577 1103 580 q 1100 553 1103 562 q 1095 532 1097 545 q 1077 509 1084 519 q 1070 493 1070 499 q 1056 471 1061 481 q 1048 453 1052 462 q 1038 436 1044 445 q 1019 418 1031 428 q 979 386 995 398 q 949 365 963 374 q 920 346 935 355 q 881 323 904 336 l 837 286 l 832 281 q 825 276 830 280 q 818 271 820 272 q 805 264 812 266 q 792 258 798 262 q 773 243 781 252 q 753 230 764 235 l 731 222 l 729 222 l 684 230 q 681 231 683 231 q 678 233 680 232 q 676 233 677 233 q 669 239 673 235 q 663 245 665 242 q 654 271 654 258 l 654 277 z "},"A":{"ha":937,"x_min":-127,"x_max":966,"o":"m 532 487 q 535 469 532 476 q 543 458 538 463 q 555 450 548 453 q 571 444 562 446 q 578 439 573 441 q 585 437 581 438 l 661 437 q 678 448 669 437 q 693 472 686 458 q 707 500 701 486 q 717 522 713 515 q 724 532 718 525 q 731 541 730 540 q 737 550 734 545 q 741 556 741 555 q 745 570 742 560 q 753 591 749 580 q 760 612 757 602 q 765 627 764 623 q 764 629 764 627 q 765 631 764 631 q 766 638 765 632 q 770 645 768 644 q 770 648 770 646 q 771 654 770 651 q 772 660 771 657 q 773 664 772 663 q 779 674 775 667 q 787 690 783 682 q 796 706 792 699 q 802 715 800 713 q 797 725 800 719 q 789 731 794 731 l 789 731 q 775 723 784 728 q 765 715 766 717 q 760 709 764 715 q 754 702 755 703 q 752 699 753 701 q 750 696 751 697 q 746 692 748 694 q 740 690 745 692 q 731 685 736 688 q 722 681 726 683 q 717 678 718 679 q 713 673 716 677 q 708 666 711 670 q 702 659 705 663 q 699 654 700 655 q 693 651 698 654 q 684 645 689 648 q 675 639 679 642 q 670 635 671 636 q 665 631 669 634 q 658 624 662 628 q 651 616 654 620 q 646 611 647 612 q 638 608 645 611 q 632 603 632 604 q 625 596 629 601 q 616 587 621 592 q 608 579 612 583 q 603 575 604 575 q 600 567 602 573 q 594 555 597 562 q 589 543 591 549 q 585 537 586 538 q 571 525 580 529 q 554 515 562 520 q 539 505 545 511 q 532 487 532 498 m -127 16 q -103 60 -127 45 q -97 65 -102 61 q -84 73 -92 68 q -71 82 -77 77 q -61 89 -64 86 q -37 99 -50 96 q -14 106 -25 101 q -10 110 -13 107 q -4 115 -7 112 q 2 119 -1 117 q 5 122 4 121 q 10 124 6 123 q 19 127 14 125 q 28 129 24 128 q 33 130 32 130 q 38 133 34 132 q 43 136 42 135 q 83 164 60 148 q 122 197 106 181 q 125 201 123 198 q 130 207 127 204 q 135 213 132 210 q 137 216 137 216 q 157 230 146 224 q 175 245 168 236 q 187 265 182 252 q 198 288 192 279 q 224 306 212 296 q 245 325 235 315 q 264 346 255 335 q 284 371 273 357 q 289 376 284 375 q 296 378 290 376 q 302 381 302 380 q 326 397 316 389 q 343 412 335 404 q 359 428 351 419 q 378 447 367 436 q 387 449 379 447 q 397 452 395 450 q 399 455 397 452 q 403 460 401 457 q 407 465 405 463 q 410 467 409 467 q 423 473 418 470 q 435 480 428 475 q 436 483 435 480 q 439 489 437 486 q 441 495 440 492 q 444 498 443 498 q 452 508 445 501 q 463 517 459 515 q 470 523 465 519 q 476 527 473 525 q 504 558 492 542 q 532 588 517 574 q 535 590 534 589 q 538 591 536 591 l 542 593 q 546 598 543 594 q 554 606 550 602 q 562 613 559 610 q 567 617 566 616 q 578 627 570 620 q 590 635 587 633 q 630 665 610 650 q 670 697 650 680 q 677 704 671 699 q 684 711 683 709 l 688 720 q 694 727 692 725 q 699 730 696 729 q 705 733 702 732 q 712 739 708 735 q 728 755 721 747 q 742 771 735 763 q 755 788 748 779 q 773 805 763 796 q 782 812 775 807 q 799 825 789 818 q 817 838 808 831 q 831 848 826 845 q 834 850 832 849 q 837 851 836 850 q 840 852 839 852 q 845 857 841 853 q 848 863 848 861 q 860 863 852 863 q 876 865 867 864 q 891 866 884 865 q 901 867 899 867 q 907 869 902 867 q 914 871 913 871 l 926 871 q 956 864 945 871 q 966 839 966 857 q 959 787 966 811 q 937 739 951 764 q 936 735 937 738 q 931 728 934 732 q 927 720 929 724 q 924 715 925 717 q 923 713 924 714 q 922 711 922 712 q 920 707 920 709 l 920 701 l 920 684 q 915 675 919 681 q 910 669 911 670 q 903 652 906 661 q 897 635 901 644 q 886 612 890 624 q 879 589 882 601 q 872 566 876 578 q 863 541 869 553 q 860 537 863 540 q 853 530 857 534 q 847 522 850 526 q 844 517 844 519 q 842 508 844 516 q 840 498 840 500 q 838 492 839 496 q 834 483 836 488 q 832 475 833 479 q 831 471 831 471 q 815 447 819 461 q 806 420 811 433 q 802 406 805 416 q 797 394 798 397 q 793 388 796 393 q 787 376 791 382 q 781 365 784 370 q 778 358 779 359 q 777 353 778 357 q 775 346 777 350 q 774 338 774 342 q 773 334 773 335 q 762 303 769 318 q 748 272 755 288 q 734 242 741 257 q 723 211 728 227 q 720 205 722 210 q 717 193 719 199 q 714 181 715 186 q 712 174 713 175 q 710 170 712 173 q 706 162 708 166 q 701 154 703 158 q 699 150 699 151 q 697 146 699 149 q 693 141 695 144 q 690 135 692 138 q 688 130 689 132 q 677 114 684 124 q 670 95 670 104 q 677 84 670 90 q 694 72 685 79 q 711 56 703 65 q 718 33 718 46 q 718 24 718 29 q 717 18 718 19 q 709 11 715 14 q 695 5 703 8 q 680 1 687 3 q 670 -1 673 -1 q 660 -2 669 -1 q 638 -3 650 -3 q 614 -5 626 -4 q 595 -6 602 -5 l 589 -6 l 585 -6 q 575 -3 583 -5 q 567 -1 568 -1 l 448 -1 q 439 5 444 3 q 430 11 434 8 q 422 17 425 14 q 420 27 420 21 q 428 58 420 49 q 450 70 437 66 q 478 76 463 73 q 506 89 493 79 q 543 132 528 106 q 571 183 559 157 q 572 187 571 184 q 575 195 573 191 q 578 202 576 199 q 580 206 579 205 q 585 212 581 208 q 590 216 589 216 q 601 248 600 230 q 608 281 603 267 q 611 289 608 283 q 616 301 613 294 q 621 313 618 307 q 623 320 623 318 l 623 333 l 623 341 q 623 354 623 348 q 618 363 622 359 q 611 365 617 363 q 603 367 605 367 q 597 370 602 368 q 587 374 593 372 q 577 379 582 377 q 571 381 572 381 l 566 381 l 556 381 q 543 380 551 381 q 525 378 534 379 q 509 377 515 378 q 501 376 502 376 q 494 374 500 376 q 486 371 488 372 l 484 371 q 465 374 474 371 q 447 376 456 376 q 432 374 441 376 q 413 367 422 371 q 395 358 404 363 q 382 347 387 353 q 375 339 380 346 q 368 328 370 332 q 363 323 366 328 q 312 277 334 304 q 265 227 289 251 q 253 214 261 222 q 235 196 244 205 q 218 179 226 187 q 208 169 210 172 q 201 163 206 168 q 195 159 198 161 q 168 125 179 146 q 156 83 156 104 l 156 75 l 184 47 q 189 38 188 43 q 190 28 190 33 l 190 22 q 185 4 190 10 q 169 -1 181 -1 q 151 2 159 -1 q 132 5 142 5 q 116 0 123 5 q 98 -6 109 -5 l 77 -6 q 26 -3 52 -6 q -26 0 0 0 q -49 -5 -38 0 q -73 -11 -60 -11 q -103 -6 -92 -11 q -127 13 -115 -2 l -127 16 z "},"B":{"ha":918,"x_min":-39,"x_max":993,"o":"m 771 863 q 724 883 749 875 q 671 895 698 890 q 662 893 668 895 q 649 888 656 891 l 606 844 q 601 838 604 842 q 593 829 597 834 q 584 818 589 823 q 576 807 579 812 q 569 790 573 798 q 562 773 566 781 q 555 761 560 770 q 543 743 550 752 q 531 716 536 729 q 519 692 526 704 q 504 670 513 681 q 484 651 496 660 q 482 634 486 644 q 474 614 479 625 q 464 591 469 603 q 459 569 459 580 q 460 555 459 564 q 465 543 460 547 q 478 537 469 539 q 498 533 488 534 q 520 532 509 532 q 536 532 530 532 q 552 535 546 532 q 567 538 558 538 q 594 535 583 538 q 620 532 606 532 l 644 532 q 651 546 646 541 q 661 554 655 551 q 673 561 666 557 q 687 567 680 564 q 698 571 690 568 q 715 578 706 574 q 731 585 724 582 q 742 590 739 589 q 753 600 747 595 q 766 609 760 604 q 773 614 768 611 q 782 620 777 616 q 790 625 787 623 q 795 628 793 627 q 810 633 802 631 q 823 642 817 634 q 828 649 825 644 q 835 659 831 654 q 842 669 839 665 q 846 675 845 673 q 847 677 847 675 q 849 680 848 679 q 851 684 850 682 q 858 704 856 694 q 859 724 859 713 q 858 744 859 734 q 851 765 856 754 q 847 774 851 766 q 840 789 844 781 l 830 797 q 827 805 829 801 q 823 813 825 808 q 814 825 819 819 q 804 836 810 831 q 801 837 803 836 q 796 840 799 838 q 790 844 793 842 l 771 863 m 256 98 q 268 76 256 85 q 290 62 279 68 l 314 62 q 391 68 352 62 q 470 76 431 75 q 475 83 473 81 q 481 86 478 85 q 489 88 485 87 q 496 90 492 88 q 505 95 498 92 q 512 100 511 98 q 516 101 513 100 q 524 104 520 102 q 532 107 528 106 q 535 109 535 109 q 543 113 537 111 q 549 117 548 116 q 585 151 568 134 q 614 185 601 168 q 637 223 627 203 q 652 269 646 243 q 653 271 652 270 q 653 274 653 273 q 654 276 654 275 q 653 278 654 277 q 653 281 653 279 q 652 284 652 283 q 652 297 652 288 q 650 314 651 305 q 649 331 650 323 q 648 340 648 338 q 646 354 648 344 q 640 368 643 364 q 636 372 639 369 q 630 377 633 374 q 624 383 627 380 q 620 387 621 386 q 616 391 619 388 q 610 399 614 395 q 604 406 607 403 q 601 410 602 410 l 559 454 q 546 461 553 459 q 530 465 538 463 q 513 468 522 466 q 496 473 504 469 q 467 485 481 479 q 435 492 453 492 q 415 484 425 492 q 397 465 405 476 q 384 441 389 454 q 376 420 378 429 q 373 413 375 418 q 370 401 372 408 q 367 389 368 395 q 366 381 366 383 q 356 368 362 372 q 348 354 349 363 q 343 340 347 351 q 335 318 339 330 q 327 297 331 307 q 323 284 323 287 q 309 254 317 267 q 292 229 300 241 q 276 202 283 216 q 267 170 269 189 q 261 136 265 156 q 256 98 256 116 m -39 -8 q -39 8 -39 -1 q -36 26 -38 17 q -29 41 -34 35 q -16 52 -24 48 q -11 53 -16 52 q -2 55 -7 54 q 7 56 3 56 q 12 58 11 57 q 51 76 32 62 q 83 104 70 90 q 126 177 109 136 q 159 256 143 217 q 171 276 163 267 q 182 298 179 286 q 184 305 182 299 q 187 317 185 311 q 190 328 189 323 q 191 334 191 334 q 194 341 191 336 q 199 353 196 347 q 205 365 202 359 q 210 373 208 370 q 214 380 211 375 q 222 392 218 386 q 229 404 226 398 q 233 410 232 409 q 249 444 241 427 q 267 477 257 462 q 271 481 269 479 q 274 484 273 482 q 276 486 276 485 q 284 496 279 489 q 290 505 290 503 q 292 509 291 505 q 293 517 292 513 q 294 524 294 521 q 295 528 295 528 q 297 532 296 528 q 301 541 299 536 q 306 550 303 545 q 309 556 308 554 q 313 564 310 558 q 321 577 317 570 q 328 591 325 585 q 332 598 332 597 l 332 618 q 349 660 336 642 q 376 698 362 678 q 381 707 379 704 q 385 714 383 711 q 389 722 387 718 q 397 733 391 726 q 399 742 399 738 q 403 749 400 745 q 405 753 403 750 q 409 761 406 757 q 414 769 412 765 q 417 773 416 772 q 418 777 417 774 q 421 785 420 781 q 425 792 423 789 q 427 797 426 795 q 428 800 427 797 q 431 806 429 802 q 434 812 432 809 q 435 818 435 816 q 428 838 435 829 q 412 853 421 847 q 404 857 410 854 q 389 864 397 861 q 374 871 381 868 q 366 876 368 875 q 350 890 353 882 q 347 911 347 898 l 347 921 q 347 926 347 924 q 350 932 347 928 q 354 934 351 932 q 361 940 357 937 q 369 946 366 943 q 374 950 372 949 q 378 954 375 951 q 383 957 380 956 q 389 961 386 959 l 459 961 q 466 964 463 963 q 473 965 469 964 q 482 966 477 966 q 496 966 488 966 q 516 965 500 966 q 548 963 531 964 q 581 962 566 962 q 600 961 596 961 q 615 960 605 960 q 638 960 625 960 q 666 960 651 960 q 697 960 682 960 q 728 960 713 960 q 756 960 743 960 q 780 960 770 960 q 796 961 790 960 q 805 958 799 960 q 819 954 812 956 q 831 949 825 951 q 840 947 838 947 q 854 937 848 943 q 866 927 860 931 q 872 925 868 927 q 877 924 876 924 q 891 911 886 916 q 903 901 897 907 q 917 888 909 896 q 940 867 926 880 q 964 842 954 857 q 983 812 973 827 q 984 794 983 806 q 988 768 986 782 q 991 741 989 754 q 993 722 992 728 q 987 697 993 708 q 978 675 982 686 q 934 588 960 626 q 865 519 908 550 q 852 511 861 515 q 836 503 844 507 q 818 496 827 499 q 804 490 810 492 q 787 487 797 488 q 768 482 777 485 q 753 474 759 479 q 747 458 747 468 l 747 450 q 748 427 747 439 q 757 407 750 414 q 768 397 762 401 q 781 389 774 393 q 791 380 787 385 q 795 366 795 375 q 788 345 795 354 q 776 326 781 336 l 776 280 q 778 225 776 253 q 781 169 781 198 q 748 117 767 139 q 710 71 729 94 q 704 63 709 69 q 695 52 699 57 q 648 24 672 35 q 598 8 624 14 q 546 1 573 3 q 492 -1 519 -1 q 471 -1 481 -1 q 450 0 460 0 q 433 -8 442 -6 q 414 -9 424 -9 l 399 -9 q 390 -9 396 -9 q 379 -9 385 -9 q 370 -8 374 -9 q 366 -8 366 -8 q 356 -6 364 -8 q 342 -3 347 -3 l 338 -6 q 332 -8 334 -8 q 322 -11 330 -9 q 314 -14 315 -13 l 263 -14 l 243 -14 q 237 -15 241 -14 q 228 -16 233 -16 q 217 -18 222 -17 q 210 -19 212 -18 q 203 -20 208 -19 q 192 -23 198 -22 q 180 -26 185 -24 q 173 -27 174 -27 q 157 -29 170 -28 q 129 -31 144 -30 q 100 -32 113 -31 q 83 -32 87 -32 q 68 -34 80 -32 q 42 -39 56 -37 q 15 -44 28 -41 q -2 -47 2 -46 q -30 -37 -20 -47 q -39 -8 -39 -26 z "},"C":{"ha":879,"x_min":128,"x_max":982,"o":"m 331 0 q 311 11 322 5 q 289 19 300 17 q 285 20 288 19 q 278 22 282 21 q 270 23 274 22 q 265 24 267 24 q 258 32 265 24 q 246 42 251 39 q 241 49 245 44 q 232 59 237 54 q 224 70 228 65 q 218 76 220 75 q 202 90 212 84 q 186 104 193 96 q 170 135 174 120 q 157 170 165 150 q 137 235 146 202 q 129 302 128 268 q 140 392 131 348 q 157 481 149 437 q 158 487 158 481 q 159 497 159 492 q 160 508 160 503 q 161 515 161 513 q 163 519 161 515 q 168 529 165 524 q 173 539 170 534 q 176 547 175 544 q 181 557 177 549 q 186 566 185 564 q 188 572 186 567 q 190 583 189 577 q 193 594 192 589 q 195 600 195 599 q 199 606 195 601 q 209 618 203 612 q 218 630 214 625 q 223 636 222 635 q 226 643 224 637 q 230 653 228 648 q 235 664 233 659 q 237 670 237 669 q 291 744 259 710 q 355 810 323 779 q 367 822 361 817 q 378 830 372 826 q 389 839 384 834 q 401 850 395 844 q 407 853 403 850 q 414 861 410 857 q 421 868 418 865 q 425 873 425 872 q 433 875 427 874 q 440 876 439 876 q 447 882 441 878 q 454 887 453 886 q 461 889 456 887 q 468 892 467 892 q 483 900 476 895 q 496 910 490 905 q 510 921 503 916 q 524 929 516 926 q 531 931 526 930 q 541 935 536 933 q 551 937 547 936 q 557 939 556 938 q 563 941 559 939 q 568 943 566 943 q 577 946 570 945 q 587 947 584 947 q 595 948 588 948 q 610 947 602 948 q 618 947 617 947 q 631 951 626 948 q 642 956 637 954 q 652 960 647 958 q 665 962 658 962 q 692 965 679 964 q 718 966 705 966 q 752 965 735 966 q 785 962 768 964 q 791 958 786 961 q 798 953 797 954 q 809 947 800 951 q 827 937 817 942 q 845 926 836 931 q 855 920 853 921 q 861 916 856 919 q 872 908 866 912 q 884 899 878 903 q 893 892 890 895 q 895 889 894 890 q 898 887 896 887 q 904 879 899 885 q 915 865 909 872 q 927 851 921 857 q 935 845 933 845 q 952 840 943 843 q 967 830 960 836 q 978 814 974 824 q 982 791 982 805 q 975 769 982 779 q 963 749 968 759 q 948 717 956 734 q 935 683 940 700 q 934 679 935 682 q 932 672 933 676 q 931 664 932 668 q 929 659 930 661 q 905 629 923 642 q 868 617 888 617 q 858 619 863 617 q 847 625 852 621 q 839 634 842 629 q 836 645 836 639 l 836 651 q 837 662 836 655 q 839 675 838 669 q 840 687 840 682 q 840 693 840 692 q 842 698 841 694 q 845 707 843 702 q 848 718 846 713 q 850 726 849 723 q 853 733 850 728 q 855 741 855 739 q 854 746 855 743 q 853 753 854 749 q 852 760 852 757 q 850 764 851 763 q 847 769 850 765 q 839 777 843 772 q 831 784 835 781 q 827 787 828 787 q 822 795 826 789 q 817 802 818 801 q 810 809 814 804 q 802 818 806 813 q 794 825 798 822 q 789 829 790 829 q 777 837 787 831 q 756 849 768 842 q 734 863 745 856 q 718 873 724 869 q 704 878 711 876 q 688 879 696 879 l 676 879 q 644 878 657 879 q 610 873 630 878 q 596 853 603 862 q 576 840 589 844 q 571 838 575 840 q 562 835 567 837 q 553 832 557 833 q 548 829 549 830 l 545 826 q 539 821 543 825 q 530 814 534 818 q 521 806 525 810 q 516 802 517 803 q 507 791 513 799 q 492 774 500 783 q 478 758 485 766 q 468 745 471 749 q 467 742 468 745 q 464 736 465 739 q 461 730 463 733 q 459 726 459 727 q 456 723 458 725 q 451 717 454 720 q 445 712 448 714 q 440 709 442 709 q 435 705 440 707 q 431 703 431 704 q 426 693 429 701 q 421 683 422 686 q 419 681 421 682 q 414 676 416 679 q 409 672 412 674 q 407 670 407 671 q 405 663 406 669 q 401 656 403 657 q 387 621 395 640 q 370 585 378 601 q 364 578 368 584 q 359 570 360 572 q 358 561 359 569 q 355 551 356 553 l 353 547 q 352 545 353 546 q 351 542 351 543 q 328 503 338 522 q 307 463 317 484 q 301 432 302 447 q 299 401 301 416 q 288 346 295 374 q 281 290 281 318 l 281 275 q 282 269 281 273 q 284 264 284 265 l 284 241 q 290 204 287 222 q 304 170 292 187 q 308 165 304 169 l 312 161 q 315 156 313 160 q 319 147 317 152 q 324 137 321 142 q 328 132 326 133 q 331 126 328 130 q 338 116 334 121 q 346 106 342 111 q 351 100 349 102 q 356 101 354 101 q 361 101 359 101 q 376 98 370 101 q 389 93 382 96 q 403 87 395 90 q 421 85 411 85 q 445 85 432 85 q 468 89 458 85 q 472 92 469 90 q 480 96 476 94 q 488 101 484 99 q 492 104 491 104 q 514 114 503 111 q 534 128 524 117 q 539 135 535 129 q 545 142 543 141 q 558 153 550 148 q 576 161 567 157 q 594 168 585 164 q 610 175 603 171 q 620 182 614 178 q 630 192 625 187 q 640 202 635 197 q 646 211 644 208 q 667 234 655 223 q 689 252 678 245 q 707 264 699 260 q 718 269 715 269 l 722 269 q 739 268 728 269 q 758 262 749 267 q 775 250 768 258 q 785 228 783 242 l 785 222 q 782 204 785 214 q 773 186 779 195 q 763 167 768 176 q 755 151 758 158 q 751 140 755 149 q 744 121 748 132 q 736 101 740 111 q 732 89 733 92 q 730 85 731 88 q 727 80 728 83 q 725 74 726 77 q 723 72 724 72 q 706 48 715 60 q 688 27 698 37 q 668 11 679 18 q 642 5 656 5 q 623 9 629 5 q 610 19 616 14 q 596 30 604 25 q 576 34 589 34 l 568 34 q 555 32 560 34 q 540 24 551 31 q 534 19 538 24 q 529 14 530 14 q 526 13 529 14 q 518 12 522 12 q 511 11 515 12 q 506 11 507 11 q 475 -2 490 6 q 442 -9 460 -9 l 431 -9 q 411 -7 425 -9 q 381 -4 397 -5 q 351 -2 366 -3 q 331 0 337 -1 z "},"D":{"ha":1221,"x_min":89,"x_max":1230,"o":"m 454 137 q 457 112 454 121 q 468 97 461 102 q 486 90 475 92 q 512 88 497 88 q 574 93 543 88 q 633 102 605 98 q 642 105 636 103 q 653 108 647 106 q 664 111 659 109 q 671 113 669 112 q 681 117 673 113 q 699 126 690 121 q 716 135 708 131 q 727 141 725 140 q 732 142 728 141 q 741 143 736 142 q 750 144 746 143 q 756 146 755 144 q 768 151 758 146 q 783 159 778 156 q 790 163 785 159 q 798 169 795 168 q 818 180 808 175 q 838 190 828 184 q 858 201 848 195 q 878 216 868 207 q 888 226 880 218 q 905 242 896 233 q 925 259 915 251 q 944 270 936 267 q 958 286 951 278 q 970 298 964 292 q 981 310 977 305 q 985 316 981 311 q 991 323 988 322 q 995 333 991 325 q 999 341 998 340 q 1014 358 1005 349 q 1031 377 1023 368 q 1046 397 1040 387 q 1055 418 1053 407 q 1068 468 1062 439 q 1074 521 1074 497 q 1068 547 1074 532 q 1055 572 1062 562 q 1063 602 1062 588 q 1065 629 1065 615 l 1065 654 l 1065 694 q 1051 717 1059 707 q 1038 741 1042 728 q 1035 751 1036 743 q 1032 759 1034 758 q 998 801 1018 782 q 954 832 977 819 q 904 852 930 845 q 851 859 878 859 q 820 852 831 859 q 800 837 808 846 q 785 814 792 827 q 769 789 779 802 q 753 768 762 777 q 741 746 745 760 q 740 743 741 746 q 739 737 739 740 q 737 731 738 734 q 736 728 736 728 q 733 722 735 726 q 729 713 732 718 q 725 704 727 708 q 722 699 723 701 q 715 689 720 694 q 705 677 710 683 q 695 665 700 671 q 690 652 691 659 q 688 645 689 650 q 687 633 688 640 q 687 622 687 627 q 686 615 686 616 q 683 611 685 614 q 678 605 680 608 q 673 599 675 602 q 671 595 671 596 q 668 591 669 595 q 666 587 666 588 q 664 579 665 585 q 663 572 663 573 q 659 569 661 571 q 654 563 656 566 q 650 557 652 560 q 647 554 648 555 q 645 549 646 553 q 643 545 643 545 q 640 536 642 543 q 637 529 638 530 q 628 511 634 523 q 617 487 623 499 q 606 464 611 474 q 600 450 602 453 q 598 447 600 450 q 593 441 596 444 q 589 435 591 438 q 586 431 587 432 l 582 422 q 579 415 582 421 q 577 407 577 409 q 565 383 571 393 q 553 357 558 372 q 551 349 553 355 q 549 341 549 342 q 547 336 548 340 q 544 326 545 331 q 541 315 543 320 q 539 310 540 311 q 534 302 538 308 q 523 291 529 297 q 513 279 517 284 q 507 271 508 273 q 493 247 497 258 q 483 220 488 235 q 474 200 479 210 q 465 180 469 190 q 457 159 460 170 q 454 137 454 148 m 89 11 q 91 23 89 16 q 98 37 94 31 q 106 50 102 44 q 117 60 111 56 q 120 63 118 61 q 125 68 123 66 q 131 72 128 71 l 234 72 q 241 78 235 75 q 248 83 247 82 q 255 86 250 85 q 261 89 261 88 q 267 92 263 89 q 272 98 270 96 q 281 108 275 101 q 293 121 288 115 q 303 134 299 128 q 308 141 308 140 q 321 163 317 151 q 332 188 324 176 q 336 192 333 189 q 342 199 339 195 q 348 206 345 203 q 351 211 351 210 q 353 216 352 212 q 354 225 353 220 q 355 234 355 230 q 355 239 355 238 q 360 254 357 248 q 365 263 362 259 q 371 273 368 268 q 378 286 374 278 q 386 299 380 290 q 396 318 391 308 q 406 338 401 329 q 412 352 411 348 q 418 355 414 352 q 422 360 422 359 q 424 368 422 362 q 427 379 425 373 q 429 391 428 386 q 431 399 431 397 q 436 406 432 401 q 443 418 439 412 q 450 429 447 424 q 455 435 454 434 q 459 444 456 438 q 465 456 462 450 q 470 467 467 462 q 473 474 472 472 q 476 481 474 475 q 481 495 479 488 q 485 508 484 502 q 488 516 487 514 q 492 523 489 517 q 496 529 494 526 q 502 539 498 532 q 507 548 505 547 q 508 555 507 550 q 511 567 509 561 q 513 579 512 574 q 516 587 515 585 q 518 594 516 589 q 524 605 521 599 q 530 616 527 610 q 534 624 532 621 q 540 633 535 626 q 551 649 545 641 q 561 666 556 658 q 566 675 566 673 q 568 680 567 676 q 570 687 569 683 q 571 695 570 691 q 572 699 572 699 l 577 709 q 581 715 578 711 q 585 723 583 719 q 590 732 587 728 q 599 739 593 736 q 610 745 605 742 q 620 753 616 749 q 624 765 624 758 l 624 845 l 620 850 q 616 855 618 852 q 613 859 614 857 q 566 882 595 882 l 553 882 q 545 881 551 882 q 523 878 538 880 q 482 874 508 876 q 417 871 456 873 q 389 860 407 870 q 355 835 372 850 q 325 802 338 820 q 313 770 313 785 q 320 744 313 756 q 337 722 327 732 q 358 702 347 711 q 375 685 368 693 q 377 682 376 685 q 381 675 379 680 q 385 668 383 671 q 389 662 387 664 q 393 654 393 656 q 394 648 394 652 q 393 634 394 642 q 390 618 392 626 q 384 603 388 610 q 375 591 380 595 q 370 587 373 589 q 362 583 366 585 q 355 579 359 581 q 351 577 352 577 q 309 572 330 572 q 291 573 300 572 q 272 577 281 574 q 267 581 271 578 q 259 589 264 585 q 250 598 254 593 q 243 606 245 602 q 239 614 243 606 q 234 629 236 623 q 232 635 234 630 q 230 642 230 641 q 218 675 225 659 q 211 709 211 691 q 214 750 211 727 q 225 797 218 774 q 244 840 233 820 q 272 873 256 861 q 292 883 281 879 q 308 897 302 887 q 319 914 315 905 q 332 929 323 923 q 354 935 342 932 q 380 940 367 937 q 405 947 393 943 q 425 958 416 951 q 471 958 448 958 q 517 958 494 958 q 580 958 549 958 q 643 958 610 958 q 650 955 644 956 q 656 953 655 953 l 669 953 l 703 953 q 721 951 707 952 q 753 950 736 951 q 785 948 770 949 q 804 947 800 947 q 812 947 806 947 q 828 947 819 947 q 847 948 837 947 q 867 948 857 948 q 882 948 876 948 q 891 947 888 948 q 927 942 911 947 q 962 934 942 937 l 985 934 q 989 932 986 933 q 997 929 993 930 q 1004 926 1001 928 q 1008 924 1008 924 q 1018 922 1010 924 q 1027 920 1026 921 q 1035 912 1029 918 q 1042 906 1040 906 q 1048 902 1043 905 q 1055 900 1054 900 q 1065 890 1058 897 q 1081 875 1073 883 q 1097 860 1089 867 q 1108 850 1105 852 q 1115 844 1109 848 q 1129 835 1122 840 q 1142 826 1136 830 q 1149 821 1148 822 q 1152 819 1151 821 q 1156 817 1154 817 q 1159 809 1156 815 q 1164 802 1162 804 q 1171 789 1166 798 q 1180 769 1175 780 q 1190 749 1185 758 q 1196 736 1194 740 q 1199 730 1198 734 q 1202 723 1200 726 q 1215 681 1208 701 q 1230 638 1223 661 l 1230 591 q 1224 503 1230 548 q 1206 418 1219 458 q 1204 413 1206 416 q 1202 407 1202 409 q 1198 402 1201 406 q 1192 394 1195 398 q 1186 385 1189 389 q 1182 380 1183 381 q 1180 374 1181 377 q 1179 365 1179 368 q 1158 315 1170 338 q 1132 267 1146 292 q 1126 258 1130 265 q 1121 248 1122 250 q 1108 233 1115 239 q 1096 222 1102 227 q 1084 213 1090 218 q 1074 201 1078 208 q 1072 197 1074 200 q 1068 190 1070 194 q 1064 182 1065 186 q 1061 177 1062 178 q 1042 162 1054 168 q 1023 149 1031 157 q 991 122 1008 136 q 957 98 975 108 q 945 92 955 97 q 925 82 936 87 q 904 72 913 77 q 891 66 894 67 q 884 61 890 64 q 878 55 879 57 q 872 54 876 55 q 863 51 868 52 q 854 48 859 50 q 850 47 850 47 q 827 34 837 41 q 804 24 817 27 q 779 23 796 24 q 743 22 762 22 q 708 20 724 21 q 686 19 692 19 q 668 16 682 18 q 638 12 654 14 q 606 7 622 9 q 582 5 590 5 q 575 3 581 5 q 566 0 569 1 l 361 0 q 343 -3 356 -1 q 316 -8 330 -5 q 289 -12 302 -10 q 272 -15 277 -14 l 214 -15 q 201 -16 212 -15 q 177 -17 190 -16 q 154 -18 165 -18 q 140 -19 143 -19 l 137 -19 q 122 -18 130 -19 q 106 -13 114 -16 q 94 -4 99 -9 q 89 11 89 2 z "},"E":{"ha":1053,"x_min":-64,"x_max":1085,"o":"m -64 50 l -64 52 q -52 74 -59 67 q -29 81 -45 81 q -7 76 -17 81 q 13 71 2 71 l 16 71 q 23 73 17 71 q 37 78 30 75 q 51 82 44 80 q 59 85 57 84 l 63 85 q 70 82 68 85 q 77 79 72 79 q 79 79 78 79 q 82 81 81 81 q 93 91 89 84 q 101 104 98 97 q 108 119 105 112 q 114 132 111 126 q 119 138 115 133 q 123 146 122 144 q 128 153 124 147 q 137 165 132 159 q 147 176 142 171 q 153 183 151 182 q 163 203 159 192 q 171 227 168 215 q 177 251 174 239 q 184 272 180 262 q 204 306 192 290 q 223 339 216 322 q 231 376 229 357 q 241 415 233 395 q 254 439 248 430 q 268 457 261 449 q 282 474 275 465 q 298 494 290 482 q 315 529 309 511 q 331 564 321 547 q 334 569 332 566 q 339 575 336 572 q 343 580 341 578 q 345 583 345 583 q 346 590 345 585 q 347 601 347 595 q 349 611 348 606 q 351 617 350 616 q 352 621 351 618 q 353 624 353 622 q 354 627 353 625 q 367 654 362 640 q 378 680 372 669 q 386 686 380 680 q 393 692 392 691 q 395 697 393 693 q 397 706 396 701 q 400 715 399 711 q 401 720 401 720 q 417 745 408 734 q 434 768 427 756 q 437 773 435 770 q 440 777 439 776 q 443 787 441 779 q 446 807 444 796 q 450 827 448 817 q 453 844 452 838 l 453 845 q 451 849 453 846 q 448 852 450 852 q 414 854 436 854 q 370 858 391 854 q 333 870 349 861 q 317 900 317 880 q 328 922 317 911 q 351 932 339 932 l 397 932 q 404 935 399 932 q 411 937 410 937 l 418 937 q 432 935 425 937 q 446 932 439 932 l 448 932 q 456 934 451 933 q 467 935 462 935 q 477 937 473 936 q 482 937 481 937 q 548 946 515 943 q 615 948 581 948 q 645 948 630 948 q 675 947 659 948 q 691 953 684 953 q 696 952 694 953 q 704 951 699 951 l 712 951 q 718 954 714 951 l 722 956 q 745 960 734 958 q 766 962 755 961 q 787 962 777 962 q 810 962 798 962 q 823 962 815 962 q 838 962 831 962 q 852 961 846 962 q 859 961 858 961 q 874 960 861 961 q 901 959 886 960 q 928 957 916 958 q 943 956 940 956 l 1000 956 q 1011 955 1002 956 q 1029 952 1019 954 q 1048 949 1039 951 q 1062 947 1057 947 q 1072 942 1069 945 q 1076 933 1075 938 q 1078 922 1078 928 q 1080 909 1078 916 q 1083 902 1080 908 q 1085 894 1085 896 l 1085 893 q 1077 850 1085 870 q 1062 810 1069 831 q 1056 787 1057 797 q 1051 762 1055 777 q 1043 744 1049 754 q 1028 726 1036 734 q 1009 712 1019 718 q 990 706 999 706 l 985 706 q 967 727 972 714 q 960 753 962 739 q 957 783 958 768 q 953 810 956 798 q 952 814 952 812 q 951 819 951 817 q 949 823 950 821 q 943 830 948 825 q 933 840 939 834 q 923 850 928 845 q 915 858 918 855 q 911 861 914 859 q 906 863 907 863 l 863 863 q 854 863 860 863 q 841 864 848 863 q 829 865 834 865 q 821 867 823 866 q 812 871 820 867 q 802 876 804 876 q 790 879 800 877 q 769 883 781 881 q 748 888 758 886 q 736 890 738 890 q 706 900 720 895 q 677 905 692 905 q 652 897 662 905 q 632 876 642 889 q 629 870 631 875 q 624 860 627 866 q 618 848 621 854 q 615 839 616 842 q 612 831 613 838 q 609 823 610 825 q 604 819 608 823 q 595 810 600 814 q 586 802 590 806 q 581 797 581 798 q 578 792 579 794 q 577 789 577 790 q 576 786 576 787 q 574 782 576 785 q 571 774 573 779 q 568 767 570 770 q 566 762 566 763 q 564 760 565 761 l 562 758 q 556 750 560 755 q 547 738 551 744 q 538 727 542 732 q 534 720 534 722 q 531 716 532 720 q 529 711 529 712 q 527 703 529 709 q 522 690 525 696 q 517 677 519 683 q 515 669 515 671 q 512 663 514 667 q 508 655 510 659 q 503 646 505 650 q 500 641 501 642 q 491 628 496 635 q 481 613 486 621 q 472 596 475 605 q 468 580 468 588 q 471 562 468 572 q 478 545 473 553 q 490 533 483 538 q 507 528 497 528 q 525 529 517 528 q 542 532 533 530 q 554 535 549 534 q 564 536 559 536 q 583 534 574 536 q 606 532 592 532 l 656 532 q 667 535 663 532 q 675 543 672 538 q 682 551 679 547 q 689 559 686 556 q 693 565 690 561 q 701 572 696 568 q 708 579 705 576 q 712 583 711 583 q 718 590 713 585 q 726 601 722 595 q 735 611 731 606 q 741 617 739 616 q 744 620 741 618 q 750 624 747 621 q 756 628 753 626 q 759 630 759 629 q 770 642 766 636 q 780 653 775 648 q 791 661 785 658 q 806 664 798 664 q 828 656 824 664 q 832 632 832 648 q 830 606 832 620 q 826 580 829 591 q 821 572 826 578 q 817 564 817 566 q 813 560 815 563 q 810 556 812 557 q 778 478 797 516 q 741 400 758 440 q 738 391 741 399 q 736 381 736 382 q 727 355 731 368 q 716 333 722 343 q 700 315 709 323 q 675 302 690 307 q 673 300 675 300 q 670 300 671 300 q 657 308 663 300 q 647 325 651 315 q 641 345 643 335 q 638 360 638 355 q 640 374 638 368 q 642 389 642 380 q 635 425 642 408 q 609 447 629 441 q 602 448 608 448 q 590 450 597 449 q 578 451 584 450 q 572 452 573 452 q 562 457 570 453 q 553 463 554 460 q 543 464 551 463 q 534 466 535 466 q 529 468 533 467 q 521 469 526 469 q 512 470 516 470 q 507 471 507 471 q 503 471 505 471 q 500 471 501 471 q 487 470 494 471 q 473 467 480 469 q 459 462 466 465 q 448 458 453 460 q 424 439 435 452 q 406 415 414 426 q 374 356 389 385 q 340 296 358 326 q 338 294 339 295 q 337 293 337 294 q 336 292 336 292 q 331 289 334 291 q 324 285 328 287 q 317 281 320 283 q 312 278 313 279 q 313 270 313 273 q 313 262 313 266 q 304 214 313 237 q 284 170 296 191 q 281 165 283 169 q 277 157 279 161 q 273 150 275 153 q 270 146 271 147 l 270 135 q 271 115 270 127 q 278 98 273 104 q 284 95 280 97 q 292 90 288 92 q 299 86 296 88 q 304 85 302 85 l 313 85 l 340 85 q 357 83 345 84 q 382 80 369 82 q 408 77 396 79 q 425 75 420 76 q 433 73 427 75 q 440 71 439 71 q 448 69 442 70 q 460 68 454 68 q 473 66 467 67 q 482 66 479 66 l 524 66 q 532 63 526 66 q 538 61 537 61 l 545 61 l 557 61 q 563 60 558 60 q 575 60 568 60 q 588 60 581 60 q 600 60 595 60 q 608 60 602 60 q 621 60 614 60 q 633 60 627 60 q 642 61 640 60 q 688 65 663 62 q 732 71 712 67 q 758 82 748 74 q 781 98 768 90 q 801 112 793 106 q 821 128 809 117 q 828 132 823 129 q 839 138 833 135 q 850 145 845 142 q 858 149 856 148 q 878 161 871 157 q 897 176 884 166 q 899 178 897 176 q 903 183 901 180 q 908 188 906 186 q 911 190 910 190 q 930 213 924 201 q 945 235 937 225 q 964 241 951 241 q 971 238 968 241 q 977 230 975 235 q 980 221 979 226 q 981 212 981 216 q 980 206 981 210 q 979 196 980 201 q 978 185 979 191 q 976 178 977 180 q 972 161 975 171 q 967 141 970 151 q 960 121 964 131 q 953 104 956 111 q 950 100 952 103 q 946 94 948 97 q 941 88 943 91 q 939 85 939 85 q 935 78 938 83 q 929 66 932 73 q 923 54 926 60 q 920 47 920 49 q 901 25 913 34 q 875 11 889 16 q 845 2 861 5 q 817 0 830 0 l 798 0 q 794 1 798 0 q 788 2 791 1 q 782 4 785 3 q 779 5 779 5 q 768 5 776 5 q 753 6 761 6 q 738 5 745 6 q 728 5 730 5 q 720 9 723 7 q 712 11 717 11 q 704 9 707 11 q 693 5 701 7 l 659 5 l 623 5 q 614 6 622 5 q 604 8 606 8 q 604 9 604 9 q 601 11 602 11 q 590 8 595 11 q 577 5 585 5 l 535 5 l 511 5 q 501 4 508 5 q 486 3 494 4 q 470 2 477 3 q 460 2 463 2 q 448 2 456 2 q 432 3 439 3 q 418 4 424 4 q 411 5 412 5 l 402 5 q 382 4 394 5 q 358 3 370 4 q 336 2 346 3 q 321 2 326 2 l 260 2 q 251 3 258 2 q 236 4 244 3 q 221 5 229 5 q 212 6 214 6 q 208 6 212 6 q 201 5 205 5 q 193 5 197 5 q 189 5 189 5 q 184 3 188 3 q 176 3 180 3 q 156 4 166 3 q 142 5 145 5 q 136 3 141 5 q 129 1 130 2 q 105 -1 117 -1 q 81 -1 94 -1 q 44 -1 62 -1 q 8 0 26 0 l -33 0 q -53 19 -47 5 q -64 47 -58 33 l -64 50 z "},"F":{"ha":865,"x_min":20,"x_max":1069,"o":"m 20 34 q 22 43 20 38 q 28 54 25 49 q 36 64 32 60 q 42 72 40 69 q 48 78 44 75 q 57 84 53 81 q 65 89 62 87 q 69 93 68 92 q 82 96 73 96 q 97 100 92 96 q 104 103 98 101 q 113 104 111 104 q 117 111 113 105 q 125 122 121 116 q 132 134 129 129 q 136 140 136 139 l 189 244 q 189 252 189 246 q 190 263 189 257 q 191 274 191 269 q 192 280 192 279 q 204 302 195 291 q 216 323 213 313 q 225 349 222 336 q 235 376 228 362 q 238 378 236 376 q 242 384 240 381 q 247 390 245 387 q 250 394 249 393 q 263 429 258 411 q 278 465 269 447 q 295 497 287 482 q 309 532 304 511 q 322 566 317 547 q 333 602 327 585 q 338 610 334 603 q 346 625 342 617 q 354 640 350 633 q 359 649 357 647 q 360 654 359 650 q 362 663 361 658 q 365 673 363 668 q 367 682 366 678 q 391 750 376 717 q 418 819 406 783 q 419 823 418 820 q 420 827 420 826 q 419 837 420 833 q 414 846 418 842 q 405 846 411 846 q 390 848 398 847 q 376 849 382 848 q 367 850 370 850 q 348 856 358 852 q 329 865 338 859 q 314 879 320 871 q 306 897 307 887 l 306 901 q 311 920 306 910 q 325 932 317 930 q 339 933 329 932 q 360 936 349 935 q 381 938 371 937 q 395 940 391 939 q 399 942 396 941 q 405 943 402 943 q 411 945 408 944 q 414 945 414 945 l 425 945 q 439 943 432 945 q 454 940 446 940 l 460 940 q 468 943 462 941 q 476 945 474 945 q 486 946 478 945 q 502 947 493 947 q 519 949 511 948 q 531 950 527 950 l 556 950 l 565 950 q 570 951 566 950 q 579 954 574 953 q 588 957 584 956 q 593 958 592 958 q 595 960 593 959 q 597 961 595 960 q 614 963 606 961 q 630 966 622 966 q 666 967 648 966 q 711 974 685 968 q 754 971 732 974 q 799 968 777 968 q 858 973 829 968 q 916 979 886 979 q 924 978 920 979 q 935 977 929 978 q 947 976 941 977 q 951 975 947 976 q 961 972 956 974 q 970 970 966 971 q 976 969 975 969 q 979 968 977 968 q 982 968 980 968 q 1000 973 991 968 q 1018 979 1008 979 q 1036 973 1027 979 q 1053 959 1045 967 q 1065 942 1060 951 q 1069 926 1069 932 l 1069 916 q 1068 900 1069 911 q 1067 877 1067 888 q 1065 857 1066 866 q 1065 846 1065 848 q 1058 829 1064 838 q 1051 814 1053 820 q 1046 800 1048 808 q 1043 785 1045 792 q 1039 770 1042 777 q 1031 757 1036 762 q 1026 751 1029 755 q 1019 743 1023 747 q 1012 736 1015 739 q 1008 733 1008 734 q 1004 732 1006 732 l 1000 732 q 985 737 991 732 q 975 748 979 741 q 969 762 971 754 q 965 776 966 769 q 964 788 965 779 q 962 806 963 796 q 961 825 962 816 q 960 838 960 833 q 956 844 960 839 q 951 850 953 850 q 945 857 949 852 q 937 867 941 862 q 928 875 932 871 q 923 880 924 879 q 904 889 913 887 q 886 890 895 890 q 876 893 881 890 q 867 895 871 895 q 857 897 862 895 q 848 900 852 899 q 843 902 847 901 q 834 904 839 903 q 825 906 829 905 q 819 908 821 907 l 808 908 q 764 903 786 908 q 720 897 742 897 q 692 900 706 897 q 664 903 677 903 q 646 900 656 903 q 631 893 636 897 q 629 890 631 892 q 624 886 627 888 q 619 882 621 884 q 617 880 617 880 q 597 870 609 874 q 579 857 585 865 q 567 834 574 847 q 554 807 561 821 q 542 780 547 793 q 531 757 536 767 q 530 747 531 755 q 526 738 528 739 q 503 682 518 709 q 502 678 503 681 q 499 672 500 675 q 496 666 498 669 q 495 663 495 663 l 495 648 l 495 610 q 493 601 495 609 q 490 593 490 593 q 492 578 490 587 q 495 568 494 568 l 530 547 l 537 547 l 544 547 q 545 547 545 547 q 546 548 546 547 q 547 548 547 548 q 556 547 551 548 q 564 545 562 545 l 565 545 q 571 546 566 545 q 584 547 577 547 q 596 549 590 548 q 603 550 602 550 q 656 563 635 552 q 695 589 678 573 q 728 624 713 605 q 764 663 744 643 q 771 667 765 664 q 778 672 777 671 q 786 684 783 677 q 794 698 790 691 q 804 710 798 705 q 817 715 809 715 q 822 711 820 715 q 826 702 825 707 q 829 691 828 696 q 829 684 829 686 q 822 659 829 671 q 810 633 815 647 q 804 614 806 624 q 798 593 801 604 q 790 570 795 582 q 779 547 786 559 q 777 540 779 545 q 772 529 774 535 q 769 518 770 524 q 767 511 767 513 q 764 486 766 502 q 760 453 762 470 q 755 423 758 437 q 751 404 753 409 q 731 366 743 376 q 699 355 719 357 q 686 367 690 355 q 679 393 682 378 q 678 410 678 400 q 678 429 678 420 q 676 457 678 445 q 667 475 675 470 q 652 484 659 481 q 645 485 648 484 q 639 486 642 486 q 618 485 629 486 q 593 484 608 484 q 580 484 587 484 q 565 484 573 484 l 564 484 q 539 483 557 484 q 501 481 521 482 q 464 479 481 480 q 437 479 446 479 q 419 468 428 475 q 406 450 410 461 q 400 439 404 447 q 394 422 397 431 q 389 405 391 413 q 386 394 387 397 q 384 384 385 392 q 381 368 382 376 q 378 351 380 359 q 376 341 377 343 q 366 319 374 328 q 353 299 358 311 q 338 259 344 279 q 325 218 332 238 q 307 180 317 198 q 278 148 296 162 q 273 144 273 146 q 272 137 272 142 l 272 130 q 276 105 272 114 q 288 91 280 96 q 306 83 296 86 q 330 74 317 79 q 342 70 334 72 q 356 63 349 67 q 367 55 362 60 q 372 42 372 50 q 368 29 372 35 q 358 17 364 22 q 346 8 353 12 q 333 3 339 4 q 325 2 332 3 q 309 2 317 2 q 292 1 300 1 q 282 1 284 1 q 271 -1 279 0 q 259 -2 262 -2 q 217 1 235 -2 q 178 5 199 5 l 165 5 l 145 5 q 139 3 144 5 q 127 0 134 2 q 116 -3 121 -2 q 109 -5 111 -5 l 89 -5 q 83 -4 87 -4 q 75 -3 79 -3 q 66 -2 70 -2 q 61 -1 62 -1 q 55 1 59 -1 q 48 4 52 3 q 41 8 44 6 q 37 12 38 9 q 28 22 32 17 q 22 29 25 26 q 20 34 20 33 z "},"G":{"ha":939,"x_min":123,"x_max":1086,"o":"m 123 339 q 124 354 123 343 q 125 378 124 366 q 126 403 125 391 q 128 419 127 414 q 131 424 129 420 q 135 431 133 427 q 140 437 138 434 q 142 442 142 441 q 143 447 142 443 q 145 454 144 450 q 146 461 146 458 q 147 466 147 465 q 168 529 157 498 q 189 593 180 560 q 190 597 189 593 q 192 605 191 601 q 193 612 193 609 q 194 616 194 616 q 206 639 199 629 q 222 660 214 650 q 239 679 231 669 q 255 701 248 689 q 260 709 256 702 q 264 720 263 717 q 276 738 271 726 q 292 757 281 749 q 302 762 294 758 q 311 767 310 766 q 319 771 315 767 q 326 781 322 775 q 333 791 330 786 q 339 799 336 796 q 343 803 340 800 q 351 809 347 806 q 359 815 355 812 q 363 818 362 817 q 382 834 371 825 q 404 853 393 844 q 427 868 416 862 q 448 874 439 875 l 499 911 q 518 917 508 914 q 536 927 529 919 q 550 929 543 927 q 566 934 558 931 q 582 940 574 937 q 593 945 589 943 q 604 952 597 949 q 616 958 611 956 q 630 958 621 958 q 652 958 640 958 q 673 958 663 958 q 686 958 682 958 q 696 962 688 959 q 713 968 704 965 q 729 975 722 972 q 739 979 737 977 q 749 977 741 979 q 758 974 757 975 q 775 972 762 973 q 805 968 789 970 q 834 965 821 966 q 852 963 848 964 q 859 961 853 963 q 865 958 864 958 q 931 945 899 951 q 998 935 963 939 q 1017 933 1005 935 q 1035 932 1029 932 q 1052 936 1046 932 q 1068 940 1059 940 q 1077 939 1074 940 q 1086 932 1081 937 l 1086 909 q 1080 877 1086 890 q 1068 846 1073 863 q 1067 842 1067 846 q 1065 835 1066 839 q 1064 828 1065 831 q 1063 823 1063 824 q 1053 797 1059 808 q 1040 771 1047 786 q 1037 764 1038 770 q 1035 757 1035 758 q 1030 745 1034 753 q 1023 729 1027 737 q 1017 712 1020 720 q 1012 701 1013 704 q 985 677 1002 687 q 951 667 968 667 q 939 673 944 667 q 932 686 934 679 l 932 791 q 925 818 932 806 q 908 841 918 831 q 885 865 896 855 q 862 881 873 875 q 836 890 850 888 q 803 893 821 893 l 789 893 q 777 892 781 893 q 763 888 772 892 q 744 884 753 885 q 725 882 734 883 q 705 880 715 882 q 686 874 695 878 q 680 871 685 873 q 670 865 675 868 q 660 859 665 862 q 654 857 655 857 q 649 855 653 856 q 641 853 645 854 q 632 852 636 852 q 627 850 627 851 q 621 848 625 850 q 610 843 616 846 q 597 837 604 840 q 588 832 591 834 q 581 829 585 832 q 573 823 577 827 q 566 814 569 819 q 560 808 562 810 q 542 798 553 800 q 522 791 532 796 q 514 783 520 789 q 501 771 508 777 q 488 759 494 764 q 480 752 481 753 q 466 741 473 746 q 452 728 458 736 q 448 723 452 728 q 441 713 445 718 q 433 703 437 707 q 429 697 429 698 q 425 692 428 696 q 419 684 422 688 q 411 674 415 679 q 405 667 407 670 q 395 654 399 661 q 390 640 392 647 q 385 625 387 633 q 377 611 382 618 q 361 591 371 602 q 349 569 352 581 q 347 560 348 568 q 345 550 345 552 q 330 525 339 536 q 316 498 321 513 q 313 490 315 496 q 309 477 311 484 q 304 464 307 470 q 302 456 302 458 q 295 443 298 448 q 289 431 292 437 q 284 418 286 425 q 283 401 283 411 q 288 370 283 386 q 292 339 292 354 l 292 325 l 292 288 q 294 271 293 283 q 297 244 295 258 q 300 216 298 229 q 302 198 301 203 q 308 179 303 188 q 320 164 313 171 q 334 150 327 157 q 349 136 342 143 q 355 129 351 134 q 365 118 360 123 q 375 107 370 112 q 382 100 380 102 q 393 96 385 98 q 410 92 401 94 q 427 87 419 90 q 439 85 435 85 l 458 85 q 503 93 481 85 q 546 113 526 102 q 562 133 551 116 q 583 169 572 149 q 602 206 594 189 q 612 230 610 224 q 616 247 614 236 q 620 270 618 258 q 624 290 623 281 q 627 300 626 298 l 627 317 q 617 350 627 337 q 595 372 608 363 q 567 391 582 382 q 541 413 553 399 q 539 419 541 414 q 536 428 538 425 l 536 431 q 541 443 536 437 q 553 453 546 449 q 567 460 559 458 q 580 463 574 463 l 583 460 q 593 459 586 460 q 607 456 600 458 q 621 454 614 455 q 630 452 627 452 l 805 442 q 832 436 815 437 q 865 434 848 435 q 892 427 881 432 q 904 407 904 421 q 900 393 904 397 q 890 386 897 388 q 877 384 884 384 q 861 381 869 383 q 811 360 833 374 q 771 323 789 347 l 771 319 l 771 315 q 773 306 771 314 q 776 296 776 298 q 768 273 776 284 q 758 249 761 261 q 745 198 752 224 q 729 146 739 172 q 734 139 731 144 q 742 127 738 134 q 748 116 745 121 q 752 108 751 110 q 755 103 753 106 q 758 100 757 100 l 758 79 q 753 53 758 65 q 734 34 748 40 q 730 32 734 33 q 722 31 726 31 q 714 30 718 30 q 710 29 711 29 q 703 26 709 29 q 692 20 698 23 q 680 14 686 17 q 673 11 675 11 q 666 9 672 9 q 654 7 661 8 q 642 6 648 7 q 635 6 637 6 q 629 3 634 5 q 622 0 624 1 q 588 -8 604 -7 q 554 -9 572 -9 q 522 -5 536 -9 q 490 0 507 0 q 479 1 488 1 q 461 3 471 2 q 444 5 452 4 q 433 6 435 5 q 410 13 422 6 q 387 19 397 19 q 379 20 385 19 q 365 22 372 21 q 352 23 358 22 q 345 24 346 24 q 291 51 317 33 q 242 93 265 70 q 200 143 219 117 q 165 193 180 169 q 146 224 155 211 q 132 259 136 237 q 131 269 132 261 q 130 284 131 276 q 129 301 130 293 q 128 311 129 309 q 127 316 128 311 q 126 325 127 320 q 124 334 125 330 q 123 339 123 338 z "},"H":{"ha":1223,"x_min":-22,"x_max":1381,"o":"m 1330 878 q 1301 863 1314 869 q 1277 850 1289 856 q 1262 827 1268 840 q 1254 802 1255 815 l 1217 760 q 1197 702 1212 729 q 1171 645 1183 674 q 1168 641 1170 645 q 1165 632 1167 637 q 1162 623 1164 627 q 1160 617 1160 618 q 1156 606 1160 616 q 1152 593 1152 597 q 1150 590 1151 593 q 1149 583 1149 587 q 1147 575 1148 579 q 1147 570 1147 572 q 1142 562 1146 569 q 1135 547 1139 555 q 1127 532 1131 539 q 1122 524 1123 525 q 1121 514 1122 522 q 1118 505 1119 506 q 1115 497 1118 503 q 1113 490 1113 492 q 1107 481 1112 488 q 1097 465 1103 473 q 1086 449 1091 456 q 1081 439 1082 441 q 1078 434 1080 437 q 1076 429 1076 431 q 1073 422 1075 428 q 1069 410 1071 416 q 1065 398 1067 404 q 1063 392 1063 393 q 1056 382 1061 390 q 1043 366 1050 374 q 1030 350 1036 357 q 1023 340 1025 342 q 1018 325 1018 331 q 1015 307 1017 318 q 1012 302 1014 305 q 1010 298 1010 299 q 1007 293 1010 296 q 1003 287 1005 290 q 998 282 1000 284 q 996 279 996 279 q 994 271 995 277 q 993 256 994 264 q 992 241 993 248 q 992 233 992 234 q 989 221 991 229 q 984 205 987 214 q 980 190 982 197 q 977 180 978 182 q 962 150 971 164 q 954 121 954 136 q 955 111 954 113 q 962 104 956 109 l 992 89 q 999 90 993 89 q 1010 90 1004 90 q 1019 89 1018 90 q 1032 84 1027 89 q 1040 73 1037 80 q 1045 59 1044 66 q 1047 45 1047 52 q 1048 42 1047 44 q 1048 37 1048 41 q 1042 29 1048 31 q 1038 28 1042 29 q 1029 26 1034 27 q 1021 25 1025 26 q 1015 24 1017 24 q 1002 23 1012 24 q 981 22 992 23 q 960 21 970 22 q 949 19 951 20 q 928 14 938 18 q 907 11 918 11 q 898 13 902 11 q 890 15 895 15 q 882 14 888 15 q 857 13 877 14 q 798 12 838 12 q 689 11 759 11 q 675 19 680 11 q 671 34 671 26 q 678 53 671 45 q 695 64 685 60 q 717 71 705 68 q 736 76 728 73 q 741 79 736 76 q 752 86 746 82 q 766 95 759 90 q 779 104 773 100 q 804 119 790 111 q 822 142 817 128 q 827 160 823 147 q 835 187 831 173 q 844 214 840 201 q 849 233 848 227 q 852 256 846 244 q 867 278 858 267 q 887 300 877 290 q 902 321 897 311 q 904 332 902 323 q 906 345 905 342 q 918 376 911 360 q 925 410 925 392 l 925 420 q 908 440 920 435 q 883 445 897 445 q 867 444 875 445 q 852 444 860 444 l 845 444 q 828 449 835 445 q 810 453 821 453 q 790 450 799 453 q 770 447 781 447 q 745 450 757 447 q 719 453 732 453 q 652 448 686 453 q 576 444 617 444 q 571 446 576 444 q 566 450 567 448 q 560 450 566 450 q 547 451 555 450 q 530 452 538 451 q 515 453 522 452 q 506 451 513 452 q 496 450 498 450 q 478 448 493 448 q 464 449 471 448 q 449 449 456 449 q 437 449 442 449 q 430 450 432 450 q 424 446 429 448 q 417 444 418 445 q 399 440 410 441 q 383 434 389 439 q 363 410 370 423 q 353 384 357 397 q 346 355 349 370 q 336 326 342 340 q 315 280 327 302 q 294 236 303 258 q 286 213 290 229 q 279 180 282 197 q 273 148 275 163 q 271 123 271 132 q 279 91 271 101 q 300 76 288 81 q 327 71 312 72 q 354 67 342 71 q 375 55 366 64 q 383 27 383 46 q 377 8 383 16 q 359 0 370 0 l 138 0 q 128 -2 135 -1 q 113 -5 121 -3 q 97 -7 104 -6 q 86 -8 89 -8 l 7 -8 q -15 3 -9 -5 q -22 27 -22 12 q -19 46 -22 36 q -7 62 -17 56 l 36 62 q 51 67 43 62 q 66 77 59 71 q 80 89 73 83 q 91 100 86 96 q 98 113 93 104 q 108 133 103 123 q 118 153 113 144 q 125 165 123 162 q 137 189 130 177 q 149 212 144 201 q 150 218 149 214 q 153 229 151 223 q 155 239 154 234 q 157 245 156 244 q 170 273 161 258 q 184 298 178 288 q 187 300 185 298 q 192 304 189 302 q 197 309 195 307 q 200 311 199 311 q 212 331 205 319 q 224 354 218 342 q 235 378 231 366 q 242 400 240 390 l 242 418 l 242 424 q 245 431 242 425 q 251 446 248 437 q 259 462 255 454 q 266 476 263 471 q 281 501 272 489 q 298 525 290 513 q 312 550 307 537 q 317 580 318 564 l 355 656 q 359 663 355 657 q 364 670 364 668 q 368 676 366 672 q 373 686 370 681 q 377 694 375 690 q 378 698 378 698 l 378 705 l 378 730 l 378 734 q 380 739 378 736 q 385 745 382 742 q 390 751 388 748 q 393 754 393 753 q 400 768 395 759 q 411 788 406 778 q 420 807 416 798 q 425 820 425 817 q 427 825 426 821 q 430 835 429 829 q 433 846 431 840 q 436 855 435 851 q 433 865 436 860 q 425 873 430 869 q 415 874 422 873 q 400 876 408 875 q 384 879 392 878 q 374 881 376 880 q 360 886 368 883 q 345 893 353 890 q 332 900 338 897 q 327 905 327 903 q 321 915 321 909 q 327 928 321 922 q 330 931 327 930 q 336 932 333 932 q 346 934 338 933 q 362 936 354 935 q 378 937 371 937 q 388 939 386 938 q 395 940 389 939 q 408 942 401 941 q 421 945 414 944 q 430 948 427 947 q 441 947 432 948 q 462 946 450 947 q 485 944 473 945 q 502 943 496 943 q 515 946 509 943 q 530 948 521 948 q 534 945 530 947 q 543 942 538 944 q 552 940 548 941 q 558 939 557 939 q 562 939 558 938 q 574 940 566 939 q 597 942 583 941 q 632 943 611 943 q 640 946 633 943 q 647 948 646 948 q 671 950 661 949 q 695 951 682 951 q 707 950 699 951 q 723 946 715 949 q 736 939 730 943 q 742 928 742 934 q 738 919 742 922 q 732 909 734 915 q 707 893 718 900 q 681 881 696 886 q 660 877 673 879 q 635 871 648 874 q 612 865 623 868 q 595 858 601 862 q 590 853 594 857 q 585 850 587 850 q 583 844 585 848 q 578 834 581 840 q 574 825 576 829 q 572 820 572 821 q 569 817 572 820 q 563 811 566 814 q 556 805 559 808 q 553 802 553 802 q 550 795 552 802 q 549 787 549 789 q 544 780 547 786 q 538 773 540 774 q 533 763 536 770 q 526 750 530 756 q 519 738 523 743 q 515 731 516 732 q 509 713 510 722 q 507 693 508 704 q 505 689 506 692 q 501 682 503 686 q 498 674 499 677 q 496 670 496 671 q 484 646 491 656 q 472 622 477 635 q 468 609 470 617 q 463 592 465 601 q 460 575 461 583 q 458 562 458 567 q 467 528 458 543 q 487 527 473 528 q 515 526 500 526 q 544 524 530 525 q 562 524 557 524 l 628 524 q 649 529 639 525 q 671 534 659 534 q 687 529 680 534 q 705 524 694 525 l 741 524 q 748 519 742 524 q 755 515 754 515 q 767 512 758 514 q 779 509 777 509 q 787 510 781 509 q 802 512 794 511 q 817 514 810 513 q 825 515 824 515 l 954 515 q 995 564 981 536 q 1023 622 1008 591 q 1027 629 1024 624 q 1033 639 1029 633 q 1039 650 1036 645 q 1042 656 1042 654 q 1045 663 1042 657 q 1047 670 1047 669 q 1053 683 1050 674 q 1058 693 1057 692 q 1061 697 1058 694 q 1067 705 1064 701 q 1073 713 1070 709 q 1076 717 1076 716 q 1076 723 1076 718 q 1078 733 1077 728 q 1080 743 1079 739 q 1081 749 1080 748 q 1085 759 1081 751 q 1089 768 1089 767 q 1093 780 1090 772 q 1098 797 1095 788 q 1102 816 1101 806 q 1105 832 1104 825 q 1102 848 1105 842 q 1094 859 1099 854 q 1081 866 1088 863 q 1066 873 1074 869 q 1062 874 1065 873 q 1056 879 1059 876 q 1048 883 1052 881 q 1042 886 1044 885 q 1038 889 1042 886 q 1029 895 1034 892 q 1020 901 1025 899 q 1015 905 1016 904 q 1005 911 1013 906 q 994 919 997 916 q 996 927 994 923 q 1000 932 997 931 q 1007 938 1002 935 q 1016 944 1011 941 q 1024 949 1021 947 q 1028 951 1028 951 l 1133 951 q 1144 948 1139 949 q 1160 948 1149 948 q 1170 952 1162 948 q 1180 956 1178 956 q 1187 958 1180 957 q 1205 959 1195 958 q 1228 961 1216 960 q 1250 962 1240 962 q 1254 960 1250 961 q 1262 958 1259 959 q 1299 954 1280 956 q 1324 951 1318 951 q 1339 946 1329 948 q 1358 942 1348 944 q 1374 936 1367 940 q 1381 926 1381 932 q 1376 908 1381 916 q 1363 895 1371 900 q 1347 885 1356 889 q 1330 878 1338 880 z "},"I":{"ha":572,"x_min":-72,"x_max":795,"o":"m -72 14 q -68 27 -72 19 q -60 44 -65 36 q -47 59 -54 53 q -34 67 -41 66 l -11 67 l 13 67 q 19 58 14 60 q 29 56 24 56 l 34 56 q 59 61 45 56 q 83 71 74 66 q 88 75 85 71 q 93 80 92 79 q 126 125 111 102 q 154 174 142 148 q 159 184 155 176 q 166 202 162 193 q 173 221 170 212 q 177 231 176 229 q 183 241 178 233 q 192 259 187 250 q 201 276 197 269 q 205 286 205 284 q 208 296 206 289 q 211 305 210 304 q 213 314 211 309 q 216 320 216 319 q 218 324 216 321 q 223 332 220 328 q 227 339 225 336 q 229 344 229 342 q 240 371 235 357 q 251 398 245 385 q 264 422 256 411 q 286 442 273 434 q 287 453 285 448 q 293 465 289 459 q 300 475 296 470 q 305 484 303 480 q 312 515 312 498 q 318 545 313 532 q 326 556 319 549 q 333 566 332 564 q 338 576 334 567 q 344 589 341 585 q 375 665 358 627 q 410 739 393 702 q 421 761 414 753 q 433 777 427 769 q 442 794 438 784 q 446 821 446 804 q 441 833 446 830 q 427 838 436 836 q 361 846 395 842 q 294 853 328 850 q 293 857 294 854 q 291 861 292 860 l 291 865 q 295 883 291 874 q 305 900 299 892 q 328 915 315 911 q 357 918 341 918 l 376 918 q 386 918 381 918 q 394 919 390 918 q 413 924 404 919 q 433 932 423 930 l 540 932 q 591 937 566 933 q 642 945 616 941 q 693 953 667 949 q 744 956 718 956 q 762 955 753 956 q 779 951 771 954 q 791 941 786 947 q 795 924 795 935 q 788 896 795 903 q 769 886 781 888 q 744 882 758 883 q 719 871 731 880 l 629 861 q 625 859 628 861 q 619 854 623 857 q 611 848 615 851 q 606 842 608 844 q 601 833 604 841 q 597 825 598 826 q 595 820 597 823 q 590 814 593 817 q 585 809 587 811 q 582 806 583 806 q 578 797 581 804 q 570 780 574 789 q 561 762 566 770 q 555 749 557 753 q 552 742 555 747 q 550 736 550 736 q 547 723 549 733 q 545 710 545 713 q 542 706 545 709 q 536 699 539 703 q 530 691 533 695 q 527 686 527 688 q 511 663 519 677 q 505 646 511 659 q 494 618 500 633 q 482 590 488 604 q 474 574 476 577 q 471 569 473 573 q 465 560 468 565 q 459 551 462 555 q 456 545 457 547 q 455 542 456 545 q 453 535 454 538 q 452 527 452 531 q 450 522 451 524 q 435 477 446 500 q 414 433 423 454 q 408 420 412 429 q 400 402 404 411 q 394 385 397 393 q 391 376 391 378 q 389 373 390 375 q 387 367 388 370 q 386 361 387 364 q 385 358 385 359 q 380 353 384 357 q 373 343 377 349 q 366 334 369 338 q 361 328 362 330 q 352 310 355 320 q 346 288 349 299 q 340 266 343 277 q 333 245 338 254 q 331 241 333 244 q 326 236 328 239 q 321 230 323 233 q 318 227 319 227 q 306 206 315 220 q 289 177 298 193 q 274 148 280 162 q 267 127 267 134 l 267 117 q 274 104 269 111 q 286 91 279 97 q 301 81 293 85 q 315 75 309 77 l 352 75 q 363 71 357 75 q 375 60 370 66 q 383 47 380 54 q 386 35 386 41 q 385 26 386 31 q 380 18 385 21 l 374 16 q 370 15 372 16 q 367 14 368 14 q 328 5 347 9 q 291 0 309 0 l 258 0 l 174 0 q 168 -1 172 0 q 159 -2 164 -1 q 150 -4 155 -3 q 145 -6 146 -5 q 126 -5 142 -6 q 98 -5 111 -5 q 80 -6 82 -5 q 75 -7 78 -6 q 67 -9 71 -8 q 60 -12 63 -10 q 56 -14 57 -14 l -48 -14 q -57 -8 -50 -14 q -67 0 -64 -3 q -71 7 -71 3 q -72 14 -72 11 z "},"J":{"ha":897,"x_min":8,"x_max":946,"o":"m 13 -330 q 12 -318 13 -326 q 11 -301 12 -310 q 9 -283 9 -292 q 8 -272 8 -275 l 8 -265 q 13 -249 8 -257 q 22 -236 17 -241 q 29 -229 24 -233 q 38 -219 33 -224 q 46 -211 43 -214 q 51 -206 50 -207 q 57 -203 53 -205 q 65 -201 61 -202 q 74 -198 70 -199 q 79 -197 77 -197 q 83 -199 79 -197 q 91 -203 86 -201 q 99 -208 95 -205 q 107 -212 104 -210 q 125 -225 116 -217 q 140 -241 134 -233 l 140 -296 q 141 -306 140 -298 q 144 -315 143 -313 q 149 -325 146 -318 q 156 -339 152 -332 q 163 -353 159 -347 q 168 -361 166 -359 q 173 -365 169 -363 q 178 -367 177 -366 l 180 -367 l 183 -367 q 188 -363 184 -366 q 197 -358 192 -361 q 205 -352 201 -355 q 210 -349 209 -349 q 214 -347 211 -348 q 220 -343 217 -345 q 226 -340 223 -342 q 230 -338 229 -339 q 242 -325 236 -334 q 254 -311 249 -315 q 260 -303 254 -309 q 271 -291 265 -298 q 283 -279 277 -285 q 291 -272 289 -274 q 293 -269 292 -271 q 296 -264 294 -266 q 300 -255 297 -261 q 304 -249 304 -250 q 312 -242 306 -248 q 319 -236 318 -237 q 329 -215 326 -227 q 338 -193 332 -203 q 342 -186 338 -192 q 349 -174 345 -180 q 357 -162 353 -168 q 361 -155 361 -157 q 368 -144 363 -152 q 376 -127 372 -136 q 385 -110 380 -118 q 390 -100 389 -102 q 392 -89 391 -97 q 394 -80 394 -81 q 402 -64 397 -71 q 412 -49 407 -56 q 423 -35 418 -42 q 432 -19 428 -28 q 450 28 441 4 q 471 75 459 53 q 477 89 471 78 q 488 113 482 100 q 500 137 494 125 q 507 151 506 148 q 517 184 515 167 q 526 217 520 201 q 535 235 530 227 q 545 252 540 243 q 552 270 549 261 q 555 291 555 279 q 545 305 555 300 q 526 311 535 310 l 488 311 l 474 311 q 465 317 469 314 q 457 321 460 319 q 451 325 453 323 q 436 335 440 332 q 432 351 432 338 q 433 365 432 359 q 441 378 434 372 l 474 378 l 507 378 q 511 375 508 377 q 519 372 515 374 q 526 369 523 370 q 530 367 530 368 l 541 367 q 556 370 548 367 q 572 377 564 372 q 587 386 580 381 q 601 395 595 391 q 607 401 603 397 q 615 409 611 405 q 622 415 619 412 q 625 420 625 418 q 627 426 626 420 q 628 436 627 431 q 629 446 628 441 q 630 452 629 451 q 634 462 631 458 q 641 471 637 467 q 648 480 645 475 q 654 490 652 485 q 655 497 654 491 q 658 509 656 503 q 660 520 659 515 q 662 527 661 526 q 666 533 663 529 q 674 543 670 538 q 682 551 678 547 q 686 556 685 555 q 697 576 693 565 q 703 599 701 587 q 706 622 705 610 q 709 645 707 634 q 718 666 711 656 q 724 685 724 675 l 724 692 q 652 699 688 690 q 583 720 616 707 q 580 723 582 720 q 577 725 578 725 q 573 734 577 726 q 568 744 570 743 q 563 748 567 745 q 554 754 559 751 q 545 759 549 757 q 541 762 541 762 q 534 771 539 764 q 524 785 529 778 q 513 800 518 793 q 507 810 509 807 l 421 853 l 408 853 q 379 852 394 853 q 351 848 364 852 q 343 844 350 847 q 332 838 336 840 l 328 833 l 324 829 q 315 824 320 826 q 304 819 309 821 q 294 813 298 817 q 286 806 289 810 q 283 801 285 805 q 279 794 281 798 q 275 787 277 790 q 273 783 273 783 q 264 767 269 778 q 257 753 259 756 l 257 751 l 257 749 q 267 739 260 746 q 277 730 274 732 q 287 729 279 730 q 302 727 294 728 q 318 726 311 726 q 328 725 325 725 l 361 725 q 371 721 368 724 q 377 712 374 717 q 381 702 379 707 q 385 692 382 696 q 392 688 385 691 q 398 683 398 684 q 408 670 401 680 q 418 654 415 659 l 418 654 q 415 624 418 639 q 405 598 412 610 q 387 581 398 587 q 359 574 376 574 q 334 579 346 574 q 309 589 322 585 q 302 591 307 590 q 296 593 297 593 q 291 594 294 593 q 283 596 287 595 q 276 597 279 597 q 273 598 273 598 q 253 614 261 604 q 237 636 244 625 q 225 660 231 648 q 215 683 220 672 q 212 725 213 706 q 210 765 210 743 l 210 778 q 212 789 211 781 q 215 808 214 798 q 218 826 217 817 q 220 838 219 834 q 237 853 230 847 q 249 871 244 859 q 251 878 249 873 q 254 884 254 884 q 256 891 255 888 q 257 895 257 894 q 266 902 260 897 q 277 911 271 906 q 289 919 283 916 q 296 924 294 922 q 302 925 296 924 q 314 928 308 926 q 326 931 320 930 q 332 932 331 932 q 360 944 348 937 q 390 950 372 950 l 394 950 q 399 949 395 950 q 408 948 404 949 q 417 947 413 948 q 421 947 421 947 l 427 947 q 438 947 433 947 q 448 948 443 948 q 465 942 458 948 q 468 939 465 941 q 474 932 471 936 q 480 926 477 929 q 484 924 483 924 q 490 922 485 922 q 503 923 496 922 q 514 924 509 924 l 517 924 q 520 920 518 922 q 526 913 523 917 q 532 907 529 910 q 536 903 535 904 q 540 901 537 903 q 547 899 543 900 q 555 896 551 897 q 559 895 558 895 q 576 884 572 889 q 584 873 581 878 q 590 863 587 868 q 601 853 593 858 q 605 850 602 852 q 611 847 608 849 q 616 844 614 846 q 620 842 619 843 q 636 831 629 837 q 649 819 643 825 q 662 806 655 812 q 677 791 668 799 q 684 785 680 789 q 693 777 688 781 q 701 770 697 772 q 705 767 704 767 q 711 767 706 767 q 724 766 717 766 q 739 764 731 765 q 752 762 747 763 l 758 762 q 768 772 764 762 q 776 795 772 781 q 785 826 780 810 q 800 857 791 843 q 822 881 809 871 q 855 890 836 890 q 880 887 866 890 q 908 878 895 884 q 932 863 922 872 q 946 842 943 854 l 946 818 q 937 771 946 792 q 903 739 928 751 q 898 737 901 738 q 890 735 894 736 q 882 733 886 734 q 876 730 878 732 q 858 703 864 719 q 846 673 852 687 q 844 668 846 672 q 842 663 842 665 q 838 659 841 663 q 832 652 836 656 q 826 645 829 648 q 823 640 823 641 q 810 605 814 624 q 799 569 806 586 q 781 533 791 551 q 763 496 772 515 q 748 457 754 477 q 743 416 743 437 l 743 414 l 755 401 q 763 396 759 399 q 770 389 767 393 q 779 381 774 386 l 860 381 q 882 370 874 381 q 890 346 890 359 q 885 326 890 334 q 871 313 880 318 q 851 307 862 309 q 829 305 840 305 l 829 305 l 829 307 q 821 308 827 307 q 809 309 815 308 q 797 310 802 309 q 790 311 791 311 l 783 311 l 776 311 q 762 310 772 311 q 740 309 751 309 q 719 308 729 308 q 705 307 709 307 q 687 280 692 296 q 677 250 682 264 q 670 238 673 240 q 659 227 666 236 q 652 212 652 219 q 649 198 652 205 q 631 161 640 178 q 615 122 623 143 q 613 115 614 121 q 611 104 612 110 q 608 92 610 98 q 607 85 607 86 q 602 77 606 83 q 594 62 598 70 q 587 47 590 54 q 583 39 584 41 q 541 -59 560 -10 q 498 -155 522 -107 q 474 -192 486 -177 q 441 -220 461 -207 q 435 -229 437 -224 q 434 -238 434 -233 q 433 -249 433 -243 q 432 -259 433 -254 q 427 -270 430 -267 q 418 -278 423 -272 q 414 -282 417 -279 q 409 -291 412 -286 q 402 -301 406 -296 q 398 -307 399 -305 q 393 -312 397 -308 q 386 -322 390 -317 q 377 -331 382 -327 q 371 -338 373 -336 q 363 -346 368 -341 q 354 -355 359 -351 q 347 -363 350 -359 q 342 -367 343 -367 q 336 -370 341 -368 q 326 -372 332 -371 q 315 -375 320 -374 q 309 -376 311 -376 q 302 -380 308 -377 q 291 -386 297 -382 q 279 -392 284 -389 q 273 -395 273 -395 q 262 -398 269 -397 q 254 -400 255 -400 q 182 -412 220 -412 q 140 -409 161 -412 q 98 -400 119 -406 q 94 -398 97 -400 q 86 -394 90 -397 q 77 -389 81 -391 q 69 -385 72 -387 q 38 -361 54 -375 q 13 -330 22 -347 z "},"K":{"ha":961,"x_min":-39,"x_max":1158,"o":"m 477 951 q 510 950 486 951 q 559 949 533 949 q 609 947 586 948 q 641 947 632 947 q 652 937 648 941 q 659 927 656 932 q 661 915 661 922 q 661 900 661 909 q 661 888 661 897 q 660 876 660 879 q 641 858 651 865 q 621 843 631 850 q 600 829 610 836 q 581 810 590 821 q 578 806 580 810 q 576 800 576 802 q 572 795 574 799 q 566 786 569 791 q 561 778 564 782 q 558 773 559 774 q 520 716 536 745 q 491 656 505 688 q 489 651 491 654 q 488 646 488 648 q 484 640 486 644 q 477 629 481 635 q 471 619 474 624 q 467 612 468 614 q 466 605 467 612 q 463 590 465 599 q 461 572 462 581 q 459 557 460 563 q 458 555 458 557 q 458 551 458 553 q 459 545 458 549 q 461 537 459 541 q 465 531 463 533 q 472 529 468 528 q 477 530 473 529 q 485 534 481 532 q 492 537 489 536 q 496 538 495 538 q 507 541 500 540 q 519 545 513 543 q 570 575 549 562 q 600 593 592 588 q 653 641 627 616 q 704 692 680 665 q 751 748 729 718 q 793 812 774 777 q 792 829 793 820 q 783 844 791 839 q 763 854 774 849 q 744 866 753 859 q 728 882 734 873 q 722 905 722 891 q 723 911 722 909 q 726 918 723 913 q 732 925 728 920 q 740 935 736 930 q 746 943 743 939 q 749 947 749 946 q 758 948 751 947 q 769 951 766 950 q 812 956 794 955 q 854 956 831 956 l 864 956 q 878 956 871 956 q 890 951 884 955 l 989 951 q 1015 960 1002 958 q 1040 962 1027 962 q 1058 962 1049 962 q 1076 961 1066 961 l 1088 961 q 1095 962 1090 961 q 1105 963 1099 962 q 1115 964 1110 963 q 1121 964 1120 964 q 1146 956 1135 964 q 1158 932 1158 947 q 1151 907 1158 919 q 1131 890 1143 896 q 1126 890 1129 890 q 1119 888 1122 889 q 1111 887 1115 888 q 1107 886 1107 886 q 1104 884 1106 886 q 1100 881 1102 883 q 1095 878 1097 879 q 1093 876 1093 876 q 1065 867 1080 869 q 1037 858 1050 865 q 1030 854 1036 857 q 1020 846 1025 850 q 1009 838 1014 842 q 1004 834 1004 835 q 998 830 1002 833 q 987 824 993 827 q 977 819 982 821 q 971 815 972 816 q 951 801 965 811 q 922 780 937 791 q 895 759 907 768 q 877 745 882 749 q 866 736 875 743 q 848 719 858 728 q 830 703 839 710 q 819 693 821 695 q 793 676 809 684 q 764 659 777 669 q 738 640 752 652 q 707 623 723 627 q 703 622 707 623 q 696 620 700 621 q 689 618 692 619 q 684 617 685 618 q 680 615 683 617 q 674 610 677 613 q 666 604 670 607 q 660 600 662 602 q 624 574 646 586 q 576 547 602 562 q 573 540 576 545 q 571 534 571 535 q 573 527 571 532 q 576 519 576 522 q 581 510 576 517 q 585 500 585 503 l 585 482 q 587 477 585 481 q 589 471 589 473 q 618 410 603 444 q 641 346 633 376 q 642 341 642 345 q 644 333 643 337 q 646 326 645 330 q 647 323 646 323 q 676 244 656 282 q 718 172 696 207 q 721 157 722 163 q 726 143 720 150 q 750 121 738 129 q 777 101 763 113 q 783 97 779 101 q 788 93 787 93 q 805 83 797 85 q 824 77 814 80 q 830 77 825 77 q 839 76 834 77 q 848 74 844 75 q 854 73 852 73 q 859 69 856 72 q 866 61 863 66 q 873 52 870 57 q 877 42 876 47 q 872 15 877 24 q 854 -1 867 6 q 846 -7 852 -3 q 835 -12 840 -11 q 824 -9 832 -12 q 811 -6 816 -7 q 810 -6 810 -6 q 808 -7 810 -7 l 806 -7 q 800 -9 806 -7 q 793 -12 793 -12 q 762 -10 785 -13 q 690 -7 739 -7 q 645 -12 669 -7 q 600 -16 622 -16 q 561 -23 580 -22 q 520 -24 542 -24 l 504 -24 q 491 -21 496 -24 q 485 -9 485 -19 q 488 4 485 -1 q 496 16 490 9 q 504 25 498 18 q 517 38 510 31 q 530 51 524 45 q 538 58 536 57 q 554 87 550 72 q 558 119 558 102 q 557 136 558 130 q 554 149 556 143 q 550 161 553 155 q 543 176 547 168 q 541 179 543 176 q 538 185 540 182 q 536 191 537 189 q 534 195 534 194 q 533 202 534 197 q 531 214 532 208 q 530 226 530 220 q 530 233 530 231 q 527 239 529 234 q 523 251 525 245 q 518 263 520 258 q 515 270 515 269 q 513 277 514 272 q 510 287 511 281 q 508 298 509 293 q 507 304 507 302 q 500 319 503 309 q 496 331 497 329 q 486 357 492 339 q 469 392 479 374 q 448 422 459 409 q 425 435 437 435 q 412 429 418 435 q 404 421 410 427 q 391 409 397 416 q 378 396 385 402 q 370 387 372 390 q 364 381 368 386 q 359 374 361 376 q 359 369 359 373 q 357 359 358 364 q 356 351 357 355 q 355 346 355 347 q 352 337 355 344 q 346 322 349 330 q 339 308 342 315 q 336 299 336 301 q 334 292 336 296 q 332 284 332 287 q 329 275 332 283 q 327 265 327 267 q 324 262 326 264 q 320 256 322 259 q 315 250 317 253 q 313 246 313 247 q 310 240 311 243 q 308 233 308 235 q 289 182 298 207 q 279 130 279 158 l 279 122 q 280 109 279 113 q 289 96 282 105 q 298 87 292 94 q 313 72 305 80 q 327 58 320 64 q 336 50 334 52 q 341 40 340 44 q 342 31 342 36 q 332 12 342 18 q 313 0 321 6 l 200 0 l 172 -7 l 168 -7 q 153 -7 161 -7 q 135 -9 144 -8 q 118 -11 126 -9 q 106 -12 111 -12 q 89 -15 98 -12 q 70 -22 79 -18 q 51 -28 60 -25 q 33 -31 42 -31 q -31 -12 -1 -31 q -36 -3 -35 -9 q -38 10 -37 3 q -39 23 -39 17 q -39 34 -39 30 q -33 48 -39 43 q -19 57 -27 54 q -2 62 -11 60 q 12 63 7 63 l 25 63 l 59 63 q 82 69 71 64 q 103 82 94 75 q 121 100 113 90 q 136 119 130 110 q 148 157 144 137 q 159 195 152 176 q 181 252 168 224 q 206 307 193 280 q 265 451 235 380 q 323 593 294 522 q 325 599 323 595 q 327 604 327 603 q 335 624 330 611 q 346 649 340 637 q 355 672 351 662 q 359 683 359 682 q 362 690 360 684 q 367 703 364 696 q 371 718 369 711 q 374 730 373 726 q 377 741 376 733 q 378 749 378 748 q 379 754 378 750 q 381 764 380 759 q 382 772 382 768 q 383 777 383 777 q 388 785 385 779 q 393 792 392 791 q 398 803 397 798 q 401 814 400 808 q 402 830 402 821 q 402 853 402 840 q 400 858 402 854 q 396 866 399 862 q 392 875 394 871 q 388 881 389 879 q 372 894 382 889 q 354 903 363 899 q 338 913 345 907 q 332 932 332 920 q 334 934 332 932 q 337 935 336 935 q 365 941 348 938 q 400 946 381 944 q 439 950 420 949 q 476 951 459 951 l 477 951 z "},"L":{"ha":1000,"x_min":-64,"x_max":940,"o":"m -64 33 q -57 55 -64 45 q -41 72 -51 65 q -19 82 -31 79 q 5 85 -7 85 q 16 82 12 85 q 22 75 19 79 q 30 68 25 71 q 43 64 34 64 q 52 66 45 64 q 58 67 55 66 q 71 75 68 68 q 83 85 75 81 q 92 90 84 87 q 100 94 99 94 q 107 102 106 97 q 111 114 107 108 q 113 118 111 115 q 118 125 115 121 q 122 133 120 130 q 123 137 123 136 q 131 150 126 142 q 140 168 135 159 q 148 184 144 176 q 153 193 152 191 q 156 203 153 195 q 158 214 158 211 q 160 220 158 215 q 161 227 161 225 q 167 236 163 228 q 172 245 171 244 q 172 251 172 247 q 174 259 173 255 q 175 268 174 264 q 176 273 176 272 q 178 279 176 274 q 183 290 180 284 q 190 301 186 296 q 195 311 193 307 q 227 372 211 341 q 255 433 243 402 q 257 438 256 434 q 261 448 259 443 q 264 457 262 453 q 266 463 265 461 q 268 466 267 464 q 269 469 269 467 q 271 471 270 470 q 273 476 271 472 q 277 484 275 479 q 282 491 280 488 q 284 495 284 494 q 286 500 284 496 q 289 505 288 503 q 291 511 290 508 q 293 515 292 513 q 294 519 293 517 q 299 526 294 520 q 310 539 304 532 q 320 553 315 547 q 326 561 325 559 q 329 567 327 562 q 332 575 330 572 q 332 579 332 576 q 334 587 333 583 q 335 594 334 591 q 336 598 336 597 q 359 646 344 623 q 383 692 374 669 q 385 699 383 694 q 388 709 387 703 q 391 719 390 714 q 393 725 393 724 q 398 740 395 733 q 405 751 401 746 q 412 763 408 757 q 422 778 416 770 q 430 798 426 786 q 445 814 435 809 q 449 833 449 823 q 445 853 449 841 q 431 866 438 859 q 417 880 423 873 q 406 886 414 883 q 389 892 397 889 q 372 898 380 895 q 361 903 364 901 q 358 909 359 905 q 357 914 357 913 q 376 949 357 941 q 392 954 383 953 q 409 955 401 955 q 426 954 418 955 q 437 953 434 953 q 447 950 443 953 q 457 947 451 947 l 458 947 q 462 949 458 947 q 470 951 466 950 q 477 954 474 953 q 481 956 481 956 q 486 958 483 957 q 490 960 488 959 l 496 961 q 500 960 497 961 q 508 957 504 958 q 515 954 511 956 q 519 953 518 953 q 521 950 519 951 q 525 950 524 950 q 530 950 527 950 q 534 953 533 951 q 551 953 541 953 q 572 954 562 954 q 591 955 583 954 q 600 956 599 956 q 606 958 602 956 q 614 961 610 959 q 623 964 618 963 q 628 966 627 966 l 640 966 l 671 966 q 677 966 672 966 q 687 968 682 967 q 697 970 692 969 q 703 970 702 970 l 707 970 l 721 970 q 737 970 728 970 q 753 967 745 969 q 765 960 760 964 q 770 948 770 956 q 766 930 770 939 q 755 913 762 921 q 740 901 749 906 q 722 895 731 896 q 706 894 718 895 q 682 892 694 893 q 658 891 669 892 q 642 890 646 890 q 631 884 634 888 q 626 875 627 880 q 623 864 625 870 q 618 853 622 859 q 614 848 617 852 q 607 839 611 844 q 599 830 603 834 q 594 825 595 825 q 586 808 589 818 q 580 786 583 798 q 576 764 578 775 q 571 744 574 753 q 565 731 569 736 q 556 720 561 725 q 547 709 551 714 q 539 697 542 703 q 533 687 537 695 q 528 678 530 680 q 517 655 524 666 q 505 631 509 644 q 503 622 505 630 q 500 612 501 614 q 499 608 500 611 q 496 603 497 604 q 480 573 486 588 q 469 544 474 559 q 460 513 465 529 q 449 481 456 498 q 446 475 448 479 q 442 467 444 471 q 437 458 439 462 q 435 452 435 454 q 428 443 433 450 q 422 433 423 436 q 409 409 413 420 q 398 386 404 398 q 378 350 386 368 q 364 311 370 332 q 362 307 364 310 q 359 302 361 304 q 357 300 359 302 q 355 295 356 298 q 352 291 353 293 q 351 288 351 288 q 350 283 351 286 q 348 276 349 279 q 347 268 347 272 q 345 264 346 264 q 343 259 345 263 q 340 254 342 256 q 338 252 340 254 q 333 248 336 250 q 329 243 331 245 q 326 241 326 241 q 325 234 326 239 q 322 227 323 228 q 317 214 320 224 q 313 203 314 205 q 310 198 311 201 q 308 193 309 196 q 303 189 307 193 q 298 184 300 185 q 296 175 298 182 q 294 164 294 167 q 289 158 294 163 q 284 151 284 153 q 281 146 283 150 q 279 141 279 142 q 278 136 279 140 q 277 127 278 132 q 276 119 277 123 q 275 114 275 115 q 273 104 275 112 q 271 94 271 97 q 282 72 271 82 q 306 62 293 62 q 322 65 315 62 q 337 67 330 67 l 345 67 q 356 64 347 66 q 374 61 364 63 q 391 59 383 60 q 401 58 399 58 l 404 58 q 429 61 418 58 q 454 67 441 64 q 548 80 500 76 q 642 90 595 84 q 697 97 668 93 q 750 114 726 100 q 754 118 751 115 q 762 125 758 121 q 769 133 766 130 q 774 137 772 136 q 786 146 777 140 q 805 161 795 153 q 823 176 814 169 q 835 184 831 182 q 849 208 843 195 q 862 232 855 220 q 880 252 869 244 q 906 260 890 260 l 916 260 q 922 256 918 259 q 929 248 926 252 q 936 241 933 244 q 939 237 939 237 q 940 229 939 235 q 940 220 940 222 q 940 207 940 215 q 939 198 939 199 q 936 187 939 196 q 930 168 933 178 q 924 148 926 157 q 920 137 921 139 l 920 123 q 918 116 920 121 q 916 109 916 111 q 912 102 915 107 q 906 90 909 96 q 900 78 903 83 q 897 71 897 73 q 894 64 896 69 q 891 53 892 59 q 888 41 890 46 q 886 34 887 35 q 885 31 886 33 q 882 28 883 29 q 839 11 863 19 q 793 0 814 3 l 769 0 q 762 0 767 0 q 752 -1 758 -1 q 743 -2 747 -2 q 736 -3 738 -3 l 477 -2 l 458 -2 q 438 -2 452 -2 q 409 -1 425 -1 q 379 0 393 -1 q 359 0 366 0 q 350 1 357 0 q 333 2 342 1 q 317 4 324 3 q 308 5 310 5 l 306 5 l 302 5 q 297 4 301 5 q 289 2 293 3 q 280 1 284 1 q 275 0 276 0 l 166 0 q 148 -7 158 -3 q 130 -14 138 -11 q 109 -16 123 -14 q 77 -18 94 -17 q 46 -21 61 -20 q 25 -24 31 -23 l 18 -24 l 11 -24 q 7 -22 10 -24 q -1 -19 3 -21 q -8 -16 -5 -17 q -12 -14 -12 -14 q -18 -13 -14 -14 q -29 -11 -23 -12 q -39 -9 -35 -10 q -45 -8 -44 -9 q -52 -3 -49 -7 q -58 8 -55 2 q -62 22 -60 15 q -64 33 -64 28 z "},"M":{"ha":1225,"x_min":-80,"x_max":1324,"o":"m -80 28 q -74 46 -80 37 q -60 63 -68 56 q -42 76 -52 71 q -25 85 -33 82 q -18 86 -23 85 q -7 87 -13 87 q 3 89 -1 88 q 9 89 8 89 q 34 98 22 92 q 56 114 45 105 q 75 133 66 123 q 95 151 85 142 q 101 156 95 153 q 108 161 106 159 q 111 162 109 161 q 113 165 113 164 q 148 222 130 195 q 182 278 166 250 q 207 324 197 300 q 230 372 216 349 q 258 416 245 395 q 286 463 272 436 q 288 466 287 463 q 291 473 290 469 q 294 480 293 477 q 296 486 295 484 q 316 509 304 497 q 333 536 328 520 q 334 541 333 537 q 335 548 334 544 q 337 555 336 552 q 338 559 338 559 q 340 565 338 561 q 345 574 342 569 q 350 583 347 578 q 353 588 352 587 q 354 594 353 589 q 357 603 355 600 q 357 607 357 604 q 359 614 358 610 q 360 622 359 618 q 361 627 361 625 q 368 640 363 630 q 378 660 372 649 q 388 680 383 670 q 395 692 393 689 q 407 708 400 701 q 421 724 414 716 q 435 740 429 732 q 447 757 442 748 q 448 761 447 758 q 451 769 450 765 q 453 777 452 773 q 455 780 454 780 q 460 789 456 782 q 468 804 464 796 q 475 819 471 812 q 478 827 478 825 q 479 831 478 828 q 479 838 479 835 q 470 864 479 855 q 448 876 461 872 q 418 881 434 880 q 389 886 402 882 q 366 899 375 890 q 357 926 357 907 l 357 935 q 361 942 358 938 q 369 950 365 946 q 376 956 372 954 q 380 958 379 958 l 455 958 q 471 953 463 954 q 488 952 479 952 q 505 951 496 952 q 521 947 513 951 l 672 947 q 676 944 673 947 q 682 939 679 942 q 687 934 685 937 q 690 932 690 932 q 694 927 691 930 q 700 919 696 923 q 705 912 703 916 q 709 908 707 909 q 709 902 709 906 q 710 892 709 897 q 710 883 710 887 q 711 876 711 878 q 710 869 711 873 q 710 859 710 864 q 709 850 709 854 q 709 846 709 846 q 706 838 709 844 q 701 827 704 833 q 694 815 697 821 q 690 810 691 810 q 684 791 686 801 q 680 773 682 782 q 675 755 677 764 q 666 739 672 747 q 665 720 666 733 q 663 693 664 707 q 660 667 661 680 q 658 650 659 654 q 656 644 658 648 q 653 635 655 640 q 650 626 651 630 q 648 621 648 621 q 646 601 647 613 q 637 583 645 589 l 637 503 q 634 498 636 502 q 630 492 632 495 q 627 485 628 488 q 625 480 625 481 q 624 478 624 480 q 624 474 624 475 q 624 469 624 472 q 625 466 624 466 q 626 457 625 463 q 627 443 627 450 q 629 429 628 435 q 630 419 629 422 q 633 416 630 418 q 638 415 637 415 q 643 416 640 415 q 648 419 647 418 q 655 426 650 420 q 667 438 661 431 q 678 450 673 444 q 685 456 684 455 q 689 459 686 457 q 695 464 692 461 q 701 468 698 466 q 705 471 704 470 q 715 480 708 473 q 724 489 722 488 q 728 499 725 491 q 732 509 730 507 q 749 523 738 518 q 766 536 760 527 q 770 543 766 538 q 777 553 773 547 q 785 563 781 558 q 789 569 788 568 q 796 576 791 571 q 808 588 802 582 q 820 600 814 594 q 826 606 825 605 q 830 612 827 608 q 836 621 833 616 q 842 630 839 626 q 846 635 844 633 q 848 640 846 637 q 853 645 850 642 q 857 651 855 648 q 860 654 859 653 q 869 663 862 656 q 883 677 876 669 q 898 692 891 686 q 907 701 905 699 q 909 704 907 701 q 919 715 911 707 q 942 740 926 724 q 987 786 958 757 q 1019 833 997 812 q 1023 836 1020 833 q 1031 842 1027 839 q 1038 848 1035 845 q 1043 850 1042 850 q 1045 853 1043 852 q 1048 857 1048 855 q 1049 867 1048 858 q 1052 880 1051 877 q 1056 884 1053 880 q 1064 891 1059 887 q 1072 899 1068 895 q 1076 903 1075 902 q 1080 910 1077 905 q 1084 916 1084 915 q 1087 919 1086 918 q 1090 921 1088 921 q 1109 932 1099 926 q 1132 944 1120 939 q 1156 954 1143 950 q 1180 958 1168 958 l 1204 958 q 1209 958 1204 958 q 1219 957 1214 957 q 1230 956 1225 956 q 1235 955 1234 955 q 1246 953 1237 954 q 1265 951 1255 952 q 1285 950 1276 951 q 1297 950 1294 950 q 1320 935 1315 947 q 1324 906 1324 922 l 1324 900 q 1323 895 1324 897 q 1315 888 1321 892 q 1275 864 1297 875 q 1235 838 1253 853 q 1229 826 1233 834 q 1220 809 1225 818 q 1212 791 1216 800 q 1207 780 1208 783 q 1201 763 1206 777 q 1191 734 1196 749 q 1180 704 1185 718 q 1174 686 1175 690 q 1160 656 1168 671 q 1146 627 1152 642 q 1115 544 1128 585 q 1084 463 1101 503 q 1078 446 1083 459 q 1066 417 1072 433 q 1053 386 1059 401 q 1043 363 1046 371 q 1032 334 1036 347 q 1024 307 1027 320 q 1023 302 1023 305 q 1021 294 1022 298 q 1020 287 1021 290 q 1019 283 1019 283 q 1015 274 1019 281 q 1008 259 1012 267 q 1000 245 1004 252 q 996 236 996 238 q 992 225 995 234 q 986 205 989 216 q 980 186 983 195 q 977 175 977 177 q 972 164 975 168 q 968 157 970 161 q 964 149 966 153 q 963 136 963 144 q 969 108 963 117 q 986 95 976 99 q 1010 90 997 92 q 1037 85 1023 89 q 1040 83 1038 85 q 1045 80 1042 82 q 1049 77 1047 79 q 1052 76 1052 76 q 1060 72 1055 75 q 1072 65 1066 69 q 1081 57 1078 62 q 1084 48 1085 53 q 1071 20 1082 28 q 1042 11 1059 11 q 980 13 1010 11 q 917 14 949 14 q 860 13 890 14 q 802 6 831 12 q 797 4 801 5 q 789 1 793 3 q 780 -3 784 -1 q 775 -5 776 -4 l 736 -5 l 700 -5 q 674 11 686 0 q 661 35 661 21 q 676 72 661 60 q 712 91 691 84 q 756 102 733 97 q 794 119 779 107 q 811 144 807 127 q 822 175 816 161 q 825 180 823 176 q 829 188 827 184 q 833 197 831 193 q 836 202 836 201 q 838 210 836 203 q 841 217 840 216 l 846 222 q 870 269 861 245 q 888 319 879 293 q 889 325 888 321 q 892 330 891 328 q 904 348 899 341 q 911 366 909 355 q 912 373 911 368 q 914 384 913 378 q 916 394 915 389 q 916 400 916 399 q 920 412 917 403 q 926 424 924 420 q 927 429 926 425 q 931 436 929 432 q 936 443 934 439 q 939 447 939 446 q 941 451 940 448 q 942 458 941 454 q 943 466 943 463 q 943 471 943 469 q 957 499 947 484 q 972 527 967 513 q 973 531 972 528 q 975 538 974 534 q 976 546 975 543 q 977 550 977 549 q 985 572 981 562 q 995 594 990 583 q 1002 616 999 604 q 1005 640 1005 627 q 997 663 1005 653 q 975 673 988 673 l 963 673 q 925 631 941 653 q 892 583 908 609 l 890 581 q 888 580 888 580 q 865 560 876 569 q 844 541 854 551 q 823 522 833 532 q 802 498 813 511 q 800 495 802 498 q 796 488 798 492 q 792 480 793 484 q 789 475 790 476 q 782 467 787 473 q 770 452 776 460 q 758 437 764 444 q 752 428 753 430 q 747 422 751 427 q 740 412 743 417 q 732 401 736 406 q 728 395 729 397 q 722 389 727 394 q 710 377 716 383 q 697 366 703 371 q 690 358 692 360 q 682 350 688 356 q 671 337 677 344 q 660 323 665 330 q 653 315 655 317 q 648 309 652 314 q 643 302 644 303 q 639 293 642 300 q 632 278 636 286 q 624 263 628 270 q 619 254 621 256 q 617 252 619 254 q 613 247 616 250 q 609 241 611 243 q 606 236 607 238 q 601 230 605 235 q 591 219 596 225 q 582 209 586 214 q 577 202 578 203 q 560 175 570 192 q 538 141 550 158 q 512 112 526 124 q 483 100 498 100 q 477 100 479 100 q 474 104 475 101 q 471 111 473 106 q 469 120 470 115 q 466 127 467 124 q 465 132 465 131 q 465 143 465 133 q 465 159 465 153 q 468 223 465 191 q 478 288 472 256 q 480 292 479 288 q 483 300 481 296 q 486 309 484 305 q 489 315 488 313 q 491 320 489 316 q 495 329 493 325 q 500 338 498 334 q 502 342 502 342 q 503 352 503 345 q 505 367 504 359 q 506 381 505 375 q 507 389 507 388 q 511 398 508 393 q 517 405 514 404 q 515 416 516 408 q 515 433 515 424 q 515 451 515 442 q 517 463 516 459 q 519 471 517 463 q 521 480 521 478 q 530 546 528 513 q 536 611 532 578 q 536 622 536 613 q 538 642 537 631 q 540 662 539 653 q 541 673 541 671 l 541 677 q 536 688 541 683 q 526 692 531 692 q 519 690 524 692 q 513 686 513 688 q 497 675 503 681 q 488 663 492 669 q 480 650 484 656 q 470 635 476 643 q 413 559 440 596 q 361 480 386 522 q 345 440 351 460 q 330 400 338 420 q 326 395 328 399 q 321 387 323 391 q 317 377 319 382 q 314 372 315 373 q 312 362 314 370 q 308 346 310 354 q 303 329 305 337 q 300 319 300 321 q 298 316 300 319 q 296 311 297 314 q 293 305 294 308 q 291 302 291 302 q 288 290 290 298 q 286 278 286 281 q 279 268 284 275 q 267 252 273 260 q 256 236 261 244 q 248 225 250 229 q 234 196 239 212 q 220 165 229 180 q 216 158 220 163 q 209 146 213 153 q 201 135 204 140 q 197 128 197 130 l 197 119 q 200 104 197 109 q 208 95 203 98 q 220 90 214 92 q 235 85 227 88 q 253 77 242 82 q 275 64 264 71 q 294 48 286 57 q 301 31 301 39 q 293 8 301 18 q 272 -5 284 -1 q 255 -4 266 -5 q 229 -4 243 -4 q 198 -4 214 -4 q 164 -3 181 -3 q 99 -4 130 -3 q 56 -5 68 -5 q 43 -5 53 -5 q 23 -6 34 -5 q 1 -8 12 -7 q -14 -9 -9 -9 q -19 -10 -16 -9 q -26 -11 -22 -11 q -34 -12 -31 -12 q -38 -13 -37 -13 l -40 -13 l -43 -13 q -70 0 -60 -7 q -80 28 -80 8 z "},"N":{"ha":1198,"x_min":-66,"x_max":1417,"o":"m 1185 970 q 1204 973 1189 971 q 1238 976 1219 975 q 1273 979 1256 978 q 1298 981 1291 981 q 1303 980 1299 981 q 1313 978 1308 979 q 1322 976 1318 977 q 1328 975 1326 975 l 1364 975 l 1378 975 q 1385 975 1380 975 q 1396 974 1390 975 q 1406 972 1401 973 q 1412 970 1410 971 q 1416 966 1415 969 q 1417 961 1417 964 l 1417 958 q 1413 939 1417 946 q 1402 928 1409 932 q 1387 921 1395 924 q 1370 915 1378 918 q 1364 912 1369 915 q 1355 907 1360 910 q 1345 902 1350 905 q 1341 900 1341 900 l 1335 900 l 1317 900 q 1288 890 1303 898 q 1261 873 1272 882 l 1219 829 q 1216 824 1218 829 q 1210 814 1213 820 q 1204 802 1207 808 q 1200 792 1202 796 q 1167 726 1184 758 q 1134 659 1149 693 q 1131 653 1133 659 q 1129 645 1129 647 q 1128 642 1129 645 q 1126 634 1127 638 q 1125 626 1126 630 q 1124 622 1124 623 q 1122 617 1124 621 q 1117 610 1120 614 q 1113 602 1115 606 q 1111 598 1111 599 q 1107 591 1109 597 q 1102 578 1105 585 q 1096 563 1099 570 q 1090 551 1093 555 q 1070 499 1081 525 q 1048 447 1060 473 q 1044 435 1047 444 q 1040 424 1040 427 q 1037 414 1038 422 q 1034 405 1036 406 q 1031 401 1034 404 q 1025 396 1028 399 q 1020 390 1022 393 q 1017 386 1017 387 q 1014 380 1015 386 q 1011 372 1012 374 q 1009 367 1011 370 q 1006 363 1007 363 q 1002 357 1006 361 q 995 348 999 353 q 987 339 991 343 q 983 334 983 335 q 970 309 975 325 q 959 283 964 292 q 955 275 958 281 q 950 269 951 270 q 948 266 949 267 q 945 263 946 264 l 941 259 q 939 255 941 259 q 936 247 938 252 q 933 237 935 242 q 931 230 932 233 q 928 221 930 229 q 925 212 926 214 q 915 193 920 202 q 905 176 909 184 q 897 158 900 168 q 894 137 894 149 q 899 120 894 130 q 913 103 905 111 q 931 90 922 96 q 950 85 941 85 q 957 87 953 85 q 966 88 960 87 q 979 89 971 89 q 1002 87 989 89 q 1024 80 1014 85 q 1041 65 1034 75 q 1048 42 1048 56 q 1045 32 1047 39 q 1044 24 1044 24 q 1039 17 1042 21 q 1031 9 1036 13 q 1024 3 1027 5 q 1020 0 1021 0 l 931 0 l 915 0 q 889 1 903 0 q 846 5 875 2 l 836 5 l 808 5 q 790 6 800 5 q 771 9 781 7 q 752 16 761 11 q 738 28 743 20 q 735 33 736 29 q 733 37 733 37 q 731 47 732 39 q 728 63 730 54 q 725 79 726 71 q 724 89 724 87 q 721 94 724 90 q 719 98 720 96 q 716 106 718 102 q 714 113 714 111 l 714 132 q 700 151 714 134 q 689 178 693 165 q 684 204 686 191 q 680 230 682 217 q 677 259 679 243 q 653 363 668 309 q 644 379 650 372 q 633 395 637 387 q 631 401 633 397 q 628 410 630 405 q 626 418 627 414 q 625 424 625 422 q 622 430 625 425 q 617 440 620 435 q 613 451 615 446 q 610 458 610 456 q 608 463 609 458 q 607 471 608 467 q 607 480 607 476 q 606 486 606 484 q 593 516 602 501 q 583 547 585 532 q 580 556 582 549 q 577 572 578 564 q 574 589 575 581 q 572 598 572 596 q 571 604 572 599 q 568 615 570 609 q 564 626 566 621 q 563 632 563 631 q 561 642 562 633 q 558 659 560 650 q 555 677 557 669 q 553 688 554 686 q 552 693 553 689 q 547 703 550 698 q 542 712 545 708 q 539 717 540 716 q 535 727 536 723 q 533 732 534 730 q 528 735 531 734 q 516 736 524 736 q 511 735 515 736 q 507 734 507 734 q 498 725 505 734 q 483 706 492 715 q 480 701 482 705 q 476 693 478 697 q 472 684 474 688 q 469 680 469 680 q 464 671 468 677 q 460 664 460 665 q 459 659 460 663 q 458 650 458 655 q 456 642 457 646 q 455 636 455 637 q 451 628 454 635 q 443 611 447 621 q 433 593 438 602 q 427 580 429 585 q 421 572 425 578 q 416 566 418 567 q 413 556 416 564 q 407 539 410 548 q 401 523 404 530 q 397 513 399 515 q 394 505 397 511 q 389 494 392 500 q 384 483 387 488 q 380 476 381 478 q 377 472 379 475 q 373 466 375 469 q 368 460 370 463 q 366 458 366 458 q 352 422 358 442 q 332 381 346 403 q 325 370 328 374 q 321 360 323 365 q 318 351 319 356 q 314 339 316 347 q 310 331 311 334 q 308 325 309 328 q 306 321 307 323 q 304 318 304 319 q 302 315 303 316 q 299 307 301 314 q 298 299 298 300 q 295 293 297 298 q 291 284 293 289 q 287 274 289 279 q 285 269 285 269 q 282 259 284 267 q 276 243 279 252 q 271 228 273 235 q 269 218 269 220 q 262 189 264 201 q 260 179 262 187 q 258 165 258 170 q 259 160 258 163 q 261 152 260 156 q 262 145 262 149 q 262 142 262 142 q 266 134 264 138 q 267 128 267 129 q 272 122 269 126 q 277 119 276 119 q 283 108 279 117 q 292 94 287 99 q 328 78 309 85 q 367 66 347 71 q 394 57 384 62 q 404 32 404 52 q 398 16 404 22 q 383 7 392 10 q 365 2 374 3 q 348 0 355 1 l 307 0 q 237 3 271 0 q 168 6 203 6 q 115 2 141 6 q 62 -5 88 -2 l 37 -5 q 28 -7 35 -5 q 20 -9 20 -9 l -24 -9 q -27 -8 -24 -9 q -32 -3 -29 -6 q -38 2 -35 -1 q -43 6 -41 4 q -50 12 -45 8 q -57 19 -54 15 q -64 28 -61 24 q -66 37 -66 33 q -59 60 -66 50 q -43 76 -52 69 q -35 79 -41 77 q -24 83 -30 81 q -13 87 -18 85 q -4 89 -7 89 q 5 90 -3 90 q 22 92 13 91 q 40 93 32 92 q 51 94 49 94 q 56 97 52 95 q 62 100 59 98 q 98 125 80 111 q 132 155 117 139 q 136 162 132 157 q 140 170 139 168 q 157 193 149 182 q 173 217 166 203 q 179 230 176 223 q 186 245 182 237 q 186 247 186 246 q 187 248 186 248 q 187 249 187 248 l 199 272 q 201 279 201 275 q 205 288 202 282 q 208 298 205 290 q 214 316 211 307 q 219 334 217 326 q 222 345 222 343 q 226 351 223 346 q 232 361 229 355 q 238 373 235 368 q 242 381 241 378 q 247 388 243 382 q 252 395 250 394 q 265 420 260 407 q 275 447 271 433 q 278 457 275 450 q 280 466 280 465 q 283 475 281 469 q 285 481 285 480 q 292 488 286 482 q 298 494 298 493 q 301 498 298 495 q 303 505 303 502 q 305 509 304 505 q 309 518 307 513 q 312 527 311 523 q 314 532 313 531 q 316 536 314 533 q 320 542 317 539 q 324 548 322 545 q 327 551 326 551 q 330 556 328 552 q 334 565 332 560 q 339 574 336 570 q 342 580 341 578 q 347 588 343 583 q 351 593 351 593 q 356 597 352 594 q 366 603 361 600 q 374 609 370 606 q 380 612 378 612 q 381 617 380 613 q 384 627 382 622 q 387 635 385 631 q 389 641 388 640 q 394 649 391 646 q 402 656 398 653 q 409 664 406 660 q 412 673 412 668 l 412 680 q 410 685 412 681 q 407 693 409 688 q 405 701 406 697 q 403 706 404 705 q 415 714 406 713 q 427 717 423 715 l 431 726 q 435 739 432 729 q 440 761 437 749 q 446 783 444 773 q 450 797 449 793 q 452 801 450 798 q 455 807 453 804 q 458 812 457 810 q 460 815 460 815 q 460 823 460 817 q 460 833 460 829 q 460 842 460 836 q 460 850 460 848 q 454 856 460 851 q 446 863 448 861 q 433 863 442 863 q 413 865 423 864 q 393 866 402 865 q 380 867 383 867 q 368 868 375 867 q 354 869 361 869 q 342 871 347 870 q 338 873 338 872 q 334 876 337 873 q 328 883 332 879 q 320 892 324 888 q 314 900 316 897 q 309 909 309 906 q 308 920 308 912 q 319 939 308 933 q 342 947 331 944 q 365 948 349 947 q 401 950 382 949 q 436 952 420 951 q 460 953 453 953 q 484 957 469 954 q 514 963 498 960 q 543 970 529 967 q 565 972 557 972 q 588 965 581 969 q 600 954 595 960 q 609 938 604 947 q 625 915 614 928 q 631 897 629 908 q 633 881 632 886 q 635 872 634 879 q 636 858 635 865 q 637 843 637 850 q 637 834 637 836 q 646 815 641 825 q 653 797 650 806 q 654 790 653 795 q 655 780 654 785 q 656 770 655 774 q 656 764 656 765 q 657 761 656 763 q 659 752 658 759 q 661 734 660 746 q 661 703 661 722 q 675 689 670 696 q 682 674 680 682 q 686 658 685 667 q 690 641 688 650 q 694 630 691 639 q 700 612 696 621 q 706 594 703 602 q 709 583 709 585 q 712 574 709 581 q 714 566 714 567 l 714 555 l 714 551 q 716 546 714 550 q 721 537 718 542 q 725 529 723 533 q 727 524 727 525 q 729 516 728 522 q 733 504 731 510 q 736 492 734 497 q 738 486 737 486 q 744 470 739 482 q 754 445 749 458 q 764 419 760 431 q 770 405 769 408 q 773 396 772 404 q 777 386 774 388 q 778 381 777 385 q 781 372 779 377 q 783 363 782 367 q 785 358 785 359 l 785 319 q 787 311 785 317 q 791 299 789 305 q 796 286 793 292 q 800 278 798 280 q 814 261 802 269 q 835 254 826 254 l 842 254 q 850 262 844 256 q 863 275 856 269 q 876 288 869 281 q 884 296 882 294 q 891 309 888 301 q 897 326 895 317 q 902 343 900 334 q 907 358 904 352 q 909 362 907 359 q 914 370 911 366 q 918 378 916 374 q 920 381 920 381 q 922 386 921 382 q 924 395 923 391 q 925 405 924 400 q 925 410 925 409 q 953 464 935 438 q 987 513 972 489 q 990 518 989 514 q 991 524 991 522 q 992 527 991 524 q 994 534 994 530 q 996 542 995 538 q 997 547 996 546 q 1006 563 1000 555 q 1017 580 1013 570 q 1017 584 1017 581 q 1018 590 1017 587 q 1019 595 1019 593 q 1020 598 1020 598 q 1033 622 1023 611 q 1048 645 1043 633 q 1055 657 1050 648 q 1065 679 1059 667 q 1075 699 1070 690 q 1082 711 1080 709 q 1088 721 1082 714 q 1095 730 1094 728 q 1099 741 1099 735 q 1100 753 1100 747 q 1101 765 1100 760 q 1106 777 1101 771 q 1116 800 1112 789 q 1119 826 1119 810 q 1112 851 1119 840 q 1095 873 1105 863 q 1073 890 1085 883 q 1048 900 1060 897 q 1044 901 1048 900 q 1035 902 1040 901 q 1026 903 1030 903 q 1020 905 1021 904 q 1015 908 1019 905 q 1006 914 1011 911 q 997 920 1001 918 q 991 924 992 923 q 981 930 985 928 q 974 934 977 932 q 969 940 970 937 q 968 951 968 944 q 972 965 968 961 q 987 970 977 969 q 1030 977 1005 974 q 1082 981 1055 981 q 1099 980 1088 981 q 1121 978 1109 979 q 1141 976 1132 977 q 1153 975 1150 975 q 1165 973 1154 975 q 1185 970 1175 970 z "},"O":{"ha":953,"x_min":130,"x_max":951,"o":"m 231 228 q 231 216 231 224 q 233 198 232 208 q 234 181 233 189 q 235 170 235 173 q 256 132 238 149 q 296 105 273 116 q 344 86 319 94 q 385 76 368 79 q 401 78 391 76 q 424 83 412 80 q 452 90 437 85 q 463 95 454 91 q 482 104 472 100 q 501 113 492 109 q 512 119 510 117 q 537 127 525 124 q 561 135 549 131 q 582 145 572 139 q 602 161 593 151 q 610 173 607 166 q 616 185 613 179 q 622 197 618 191 q 633 208 626 203 q 663 235 647 218 q 686 265 680 251 q 699 283 690 273 q 716 303 707 292 q 733 327 726 315 q 741 351 740 338 q 756 371 746 361 q 769 392 766 380 q 771 397 770 393 q 773 406 772 401 q 775 415 774 411 q 777 421 777 420 q 784 432 780 425 q 791 447 787 439 q 797 462 794 455 q 800 471 799 469 q 805 491 804 481 q 808 510 806 500 q 811 529 809 519 q 818 547 813 538 q 821 554 819 549 q 826 564 823 559 q 830 574 828 570 q 833 581 833 578 l 842 659 q 841 671 842 665 q 837 685 839 678 q 832 699 834 692 q 829 709 829 705 q 827 720 827 710 q 825 732 827 729 q 823 739 825 733 q 818 750 821 744 q 814 762 816 756 q 811 768 812 767 q 805 782 808 777 q 799 791 802 787 q 791 797 796 794 q 777 806 786 800 q 756 821 766 813 q 732 829 747 829 q 706 834 719 833 q 681 836 693 836 q 650 834 665 836 q 620 829 635 832 q 585 816 603 820 q 549 802 566 812 q 473 743 509 776 q 401 675 436 710 q 393 665 395 673 q 385 651 390 656 q 380 646 385 650 q 372 639 376 643 q 364 632 368 635 q 359 628 360 629 q 356 622 359 627 q 350 613 353 618 q 345 605 347 609 q 342 600 342 601 q 338 595 341 599 q 331 586 335 591 q 324 576 328 581 q 319 570 321 572 q 311 548 312 559 q 303 524 310 536 q 299 520 302 523 q 294 513 296 517 q 289 505 291 509 q 286 500 286 501 q 282 489 286 498 q 279 476 279 479 q 275 466 277 473 q 273 458 273 458 q 264 446 269 450 q 255 434 260 442 q 250 421 254 431 q 244 410 245 412 q 242 408 243 410 q 240 402 241 405 q 239 396 239 399 q 237 392 238 393 q 236 387 237 391 q 232 378 234 382 q 227 369 229 373 q 224 363 225 364 q 225 361 224 363 q 226 355 226 358 q 227 349 227 352 q 228 345 228 346 q 227 333 227 339 q 227 322 227 328 q 226 313 227 317 q 225 308 226 312 q 224 299 224 304 q 223 290 224 294 q 222 284 222 286 q 218 277 219 282 q 215 265 216 271 q 214 251 215 254 q 217 245 214 249 q 222 238 219 242 q 227 232 224 235 q 231 228 229 229 m 263 29 q 259 32 262 29 q 255 34 256 34 q 240 45 247 39 q 223 53 233 52 q 208 63 217 57 q 191 78 199 70 q 177 95 183 86 q 170 111 171 103 q 167 119 168 111 q 165 129 166 126 q 161 139 164 131 q 154 156 157 146 q 146 174 150 165 q 142 184 143 182 q 140 193 141 186 q 140 204 140 199 l 140 208 q 140 218 140 210 q 141 228 141 226 q 140 231 141 228 q 139 239 140 235 q 136 248 138 243 q 134 254 135 252 q 130 298 130 274 q 130 312 130 305 q 131 326 130 319 q 134 353 132 340 q 138 378 136 366 q 139 395 138 385 q 141 416 140 406 q 143 435 142 427 q 144 445 144 444 q 145 451 144 446 q 147 463 146 456 q 150 476 149 469 q 153 487 152 483 q 163 514 156 502 q 176 542 170 527 q 180 552 178 545 q 183 562 182 559 q 211 625 193 594 q 248 685 228 656 q 261 701 253 692 q 277 716 269 709 q 295 731 286 724 q 309 745 303 739 q 312 750 310 746 q 315 755 314 754 q 319 760 315 756 q 332 774 322 764 q 363 803 342 784 q 419 853 383 821 q 433 864 425 857 q 448 873 441 870 q 452 873 449 873 q 460 874 456 874 q 468 876 465 875 q 473 876 472 876 q 477 878 475 877 q 481 881 481 881 q 487 884 483 882 q 495 888 490 886 q 503 893 499 890 q 506 897 506 895 q 538 905 522 903 q 570 913 555 907 q 579 916 574 914 q 596 919 585 917 q 627 923 607 921 q 680 929 646 926 q 707 918 695 920 q 736 915 719 917 q 739 913 737 913 q 744 910 741 911 q 756 901 753 904 q 770 897 760 898 l 781 897 q 788 894 783 897 q 793 892 792 892 q 841 858 819 876 q 883 815 864 839 q 884 812 883 815 q 887 804 886 808 q 891 797 889 800 q 893 792 892 793 q 897 787 894 791 q 904 778 900 783 q 910 769 907 773 q 913 764 913 765 q 916 758 914 762 q 917 751 917 753 q 917 745 917 749 q 918 735 918 741 q 919 726 918 730 q 920 722 919 722 q 923 713 920 720 q 928 698 925 706 q 935 684 931 690 q 939 675 938 677 q 940 659 941 665 q 949 646 940 652 q 948 635 949 643 q 946 618 947 627 q 945 601 945 609 q 944 589 944 592 q 949 569 947 583 q 951 547 951 554 q 949 538 950 545 q 946 523 947 531 q 943 509 944 515 q 941 500 941 502 q 940 491 941 496 q 939 479 939 485 q 938 468 939 473 q 938 463 938 464 q 935 454 937 460 q 931 440 933 448 q 926 425 928 432 q 922 415 924 418 q 921 411 922 414 q 917 404 919 408 q 914 396 916 399 q 912 392 912 393 q 904 370 907 381 q 898 346 901 358 q 890 323 895 334 q 879 302 886 312 q 875 298 878 301 q 868 291 872 295 q 862 283 865 287 q 857 278 859 279 q 852 270 856 277 q 846 259 848 262 q 841 251 844 256 q 833 241 837 246 q 828 232 830 236 q 825 228 825 228 q 821 224 824 227 q 814 218 818 221 q 808 212 811 215 q 804 208 805 209 q 790 184 795 197 q 776 161 785 172 q 748 131 762 146 q 718 106 733 116 q 708 100 716 104 q 697 95 701 96 q 693 88 697 94 q 688 81 689 82 q 673 67 684 76 q 651 49 663 58 q 627 33 639 40 q 608 24 616 26 q 597 20 606 24 q 588 14 589 16 q 582 13 587 14 q 573 11 578 12 q 564 7 568 9 q 559 6 559 6 q 551 3 557 5 q 538 -3 545 0 q 526 -9 532 -7 q 519 -13 520 -12 q 504 -18 511 -16 q 490 -19 497 -19 q 477 -18 484 -19 q 464 -18 470 -18 l 429 -18 q 419 -15 427 -18 q 402 -9 412 -12 q 385 -4 393 -6 q 372 -3 376 -2 q 368 -1 372 -3 q 360 4 364 1 q 352 8 356 6 q 348 11 349 11 q 330 15 342 12 q 305 21 318 18 q 280 26 292 24 q 263 29 268 29 z "},"P":{"ha":979,"x_min":146,"x_max":1085,"o":"m 638 511 l 638 503 q 645 496 640 502 q 652 489 651 491 q 659 489 654 489 q 668 489 663 489 q 678 488 673 488 q 684 488 682 488 q 726 493 705 488 q 768 505 747 498 q 807 522 788 513 q 845 541 827 532 q 858 549 849 544 q 868 556 867 555 q 903 589 887 570 q 926 630 918 607 q 931 648 928 635 q 940 673 935 660 q 948 699 945 687 q 954 715 952 711 l 954 720 q 942 777 954 749 q 907 823 930 804 q 891 829 900 828 q 874 833 882 829 q 864 838 869 835 q 852 844 858 841 q 840 849 846 847 q 829 852 833 852 q 820 850 826 852 q 806 847 813 849 q 793 842 800 845 q 785 838 787 840 q 744 789 760 817 q 715 733 728 762 q 707 715 710 725 q 701 696 704 706 q 696 676 699 686 q 691 659 694 667 q 678 635 687 646 q 668 611 669 624 q 667 602 667 609 q 665 588 666 595 q 663 573 664 580 q 662 564 663 566 q 659 559 662 564 q 653 551 656 555 q 648 542 650 546 q 644 536 645 538 q 640 524 641 531 q 638 511 638 517 m 146 18 q 152 35 146 26 q 166 51 157 44 q 184 64 174 58 q 201 72 193 69 q 208 73 203 72 q 219 74 213 73 q 229 75 224 75 q 235 76 234 76 q 286 93 261 81 q 328 123 311 106 q 337 139 334 130 q 342 157 340 148 q 346 173 345 165 q 347 183 347 180 q 359 217 353 198 q 370 252 365 235 q 379 281 376 269 q 385 296 383 293 q 390 304 386 298 q 399 317 394 310 q 409 331 404 325 q 414 339 413 337 q 415 343 414 340 q 418 349 416 347 q 453 425 435 387 q 485 503 472 463 q 492 543 490 523 q 498 583 493 564 q 505 601 500 592 q 515 617 509 609 q 526 633 520 625 q 535 650 532 642 q 545 678 541 663 q 555 705 548 693 q 559 710 555 706 q 564 715 564 715 q 574 731 568 721 q 586 753 581 741 q 594 775 591 764 q 597 794 597 787 q 597 809 597 802 q 591 823 596 817 q 588 827 591 824 q 583 832 586 829 q 577 838 580 836 q 574 841 574 840 q 567 847 572 843 q 559 852 562 850 q 555 853 557 852 q 547 854 553 854 q 527 856 540 855 q 493 857 515 857 q 476 846 484 847 q 455 841 469 844 q 448 840 454 841 q 441 838 443 839 q 437 835 440 838 q 432 833 433 833 q 423 832 430 833 q 409 830 416 831 q 394 829 401 829 q 385 828 387 828 q 381 825 385 827 q 376 823 377 823 q 355 807 366 817 q 334 785 344 797 q 317 759 324 772 q 310 733 311 746 l 310 701 q 308 693 310 699 q 305 686 305 688 l 305 680 q 317 656 305 666 q 343 635 329 646 q 369 613 357 625 q 381 581 381 600 q 375 565 381 574 q 360 546 368 555 q 342 530 351 537 q 329 522 334 523 l 310 522 q 288 524 298 522 q 268 532 278 525 q 261 537 266 533 q 251 547 256 542 q 241 557 246 552 q 235 564 237 562 q 230 574 233 566 q 224 583 226 582 q 215 599 220 593 q 206 612 210 606 q 200 626 202 618 q 197 646 197 633 l 197 654 q 199 673 198 659 q 202 701 201 686 q 205 729 203 715 q 207 747 206 742 q 209 752 207 749 q 212 757 212 755 q 213 765 212 759 q 216 777 214 770 q 218 788 217 783 q 220 794 220 793 q 224 800 221 795 q 232 810 228 804 q 240 823 236 817 q 248 833 245 829 q 282 870 263 850 q 320 903 300 891 q 349 918 332 911 q 384 932 366 926 q 420 942 402 938 q 452 945 437 945 q 524 939 488 945 q 597 932 559 932 q 605 928 601 928 q 612 927 608 927 l 617 927 l 625 927 q 674 929 649 927 q 728 932 700 932 l 746 932 q 773 925 763 927 q 797 922 783 922 q 830 923 817 922 q 863 924 844 924 q 868 926 864 925 q 877 929 872 928 q 887 931 882 930 q 892 932 891 932 q 897 930 893 932 q 905 927 901 929 q 912 924 909 925 q 916 922 915 922 q 928 919 918 921 q 939 916 937 918 q 944 915 940 916 q 952 911 948 913 q 961 906 957 909 q 968 903 966 904 q 992 890 981 896 q 1015 876 1004 884 q 1037 845 1031 861 q 1051 810 1044 829 q 1054 805 1052 808 q 1057 797 1055 801 q 1060 790 1059 793 q 1062 786 1061 787 q 1064 781 1062 785 q 1067 776 1067 777 q 1067 770 1067 774 q 1069 760 1068 765 q 1071 749 1070 754 q 1072 744 1072 745 q 1075 733 1072 740 q 1079 719 1077 726 q 1083 704 1082 711 q 1085 692 1085 697 l 1085 686 q 1084 672 1085 681 q 1083 653 1084 663 q 1082 637 1082 644 q 1081 630 1081 631 q 1078 625 1080 629 q 1074 617 1076 621 q 1069 608 1072 612 q 1067 603 1067 604 q 1064 595 1067 602 q 1062 588 1062 589 q 1056 582 1061 587 q 1045 572 1051 577 q 1035 562 1040 566 q 1028 556 1029 557 q 1025 549 1027 554 q 1020 537 1023 543 q 1014 525 1017 530 q 1010 517 1011 519 q 997 500 1005 508 q 981 487 989 493 q 962 475 972 481 q 945 463 953 469 q 922 441 932 452 q 898 424 911 431 q 855 409 876 414 q 813 395 833 404 l 728 395 q 707 403 717 401 q 687 406 697 406 q 667 407 677 407 q 644 410 656 408 q 639 412 643 410 q 633 415 635 414 l 625 415 q 605 411 617 415 q 582 400 593 406 q 559 386 570 393 q 545 372 549 378 q 544 365 545 370 q 543 353 543 359 q 541 342 542 347 q 540 334 541 336 q 528 286 536 310 q 512 239 520 262 q 499 192 505 216 q 493 142 493 168 q 487 119 493 130 q 481 98 481 109 q 481 93 481 96 q 482 89 481 91 q 494 83 484 84 q 515 82 504 82 q 537 81 527 81 q 551 76 548 80 q 563 53 557 67 q 568 29 568 39 q 562 14 568 20 q 549 1 555 7 q 520 -11 538 -8 q 482 -13 502 -13 q 456 -12 469 -13 q 433 -12 443 -12 q 389 -9 411 -12 q 345 -6 367 -6 l 315 -6 q 309 -7 313 -6 q 300 -11 305 -9 q 291 -14 296 -12 q 286 -16 287 -16 q 279 -17 284 -16 q 267 -20 273 -18 q 253 -23 260 -22 q 244 -24 247 -24 l 242 -24 l 220 -24 q 182 -20 199 -24 q 151 1 164 -16 q 146 9 147 5 q 146 18 146 12 z "}}}
